<svg width="13" height="17" viewBox="0 0 13 17" fill="none" xmlns="http://www.w3.org/2000/svg">
<path d="M6.14645 4.93685C6.24021 4.83722 6.36739 4.78125 6.5 4.78125C6.63261 4.78125 6.75979 4.83722 6.85355 4.93685C6.94732 5.03648 7 5.1716 7 5.3125V8.5H9C9.13261 8.5 9.25979 8.55597 9.35355 8.6556C9.44732 8.75523 9.5 8.89035 9.5 9.03125C9.5 9.17215 9.44732 9.30727 9.35355 9.4069C9.25979 9.50653 9.13261 9.5625 9 9.5625H6.5C6.36739 9.5625 6.24021 9.50653 6.14645 9.4069C6.05268 9.30727 6 9.17215 6 9.03125V5.3125C6 5.1716 6.05268 5.03648 6.14645 4.93685Z" fill="#A428F6"/>
<path fill-rule="evenodd" clip-rule="evenodd" d="M11 1.77119V2.17812C10.838 2.14306 10.671 2.125 10.5 2.125C11.163 2.125 11.7989 2.40485 12.2678 2.903C12.7366 3.40114 13 4.07677 13 4.78125V12.2188C13 12.9232 12.7366 13.5989 12.2678 14.097C11.7989 14.5951 11.163 14.875 10.5 14.875C10.671 14.875 10.838 14.8569 11 14.8219V15.2288C11 16.2074 10.253 17 9.333 17H4.667C3.746 17 3 16.2063 3 15.2288V14.8219C3.162 14.8569 3.329 14.875 3.5 14.875C2.83696 14.875 2.20107 14.5951 1.73223 14.097C1.26339 13.5989 1 12.9232 1 12.2188V8.5H0.5C0.367393 8.5 0.240214 8.44403 0.146446 8.3444C0.0526781 8.24477 0 8.10965 0 7.96875V5.84375C0 5.70285 0.0526781 5.56773 0.146446 5.4681C0.240214 5.36847 0.367393 5.3125 0.5 5.3125H1V4.78125C1 4.07677 1.26339 3.40114 1.73223 2.903C2.20107 2.40485 2.83696 2.125 3.5 2.125C3.33208 2.12491 3.16458 2.1427 3 2.17812V1.77119C3 0.792625 3.747 0 4.667 0H9.333C10.254 0 11 0.793688 11 1.77119ZM10.5 3.1875C10.8978 3.1875 11.2794 3.35541 11.5607 3.6543C11.842 3.95318 12 4.35856 12 4.78125V12.2188C12 12.6414 11.842 13.0468 11.5607 13.3457C11.2794 13.6446 10.8978 13.8125 10.5 13.8125H3.5C3.10218 13.8125 2.72064 13.6446 2.43934 13.3457C2.15804 13.0468 2 12.6414 2 12.2188V4.78125C2 4.35856 2.15804 3.95318 2.43934 3.6543C2.72064 3.35541 3.10218 3.1875 3.5 3.1875H10.5Z" fill="#A428F6"/>
</svg>
