<svg width="58" height="54" viewBox="0 0 58 54" fill="none" xmlns="http://www.w3.org/2000/svg">
<g clip-path="url(#clip0_3524_651)">
<path d="M35.6144 15.8825L11.6436 25.9219L17.3288 39.7198L41.2996 29.6805L35.6144 15.8825Z" fill="white"/>
<path d="M52.1319 25.1272L51.0092 22.4979L46.8205 18.5141L48.1865 15.3822L46.2683 11.2486L42.4764 9.28161L7.26271 24.5326L6.00564 28.3205L7.8597 32.557L11.2609 34.0442L9.87521 38.0055L11.7616 42.6347L15.1492 44.3544L50.8558 28.6376M17.1598 39.9872L11.264 26.2087L35.9355 15.5956L41.6669 29.3687L17.1598 39.9872Z" fill="white"/>
<path d="M30.5337 24.8493L28.8553 28.1152L31.2237 30.7688L27.6688 30.1416L25.5223 33.2866L25.1324 29.4386L21.7863 28.4925L25.0067 27.3489L24.8105 24.1167L27.0494 26.2393L30.5337 24.8493Z" fill="white"/>
<path d="M42.3458 19.1416L40.9764 15.8577C40.9331 15.7532 40.8693 15.6584 40.7889 15.5789C40.7085 15.4993 40.6129 15.4366 40.5077 15.3941C40.4024 15.3516 40.2895 15.3304 40.1755 15.3315C40.0615 15.3326 39.9485 15.356 39.843 15.4005C39.7376 15.445 39.6417 15.5096 39.5608 15.5907C39.48 15.6718 39.4158 15.7677 39.3719 15.8731C39.328 15.9785 39.3052 16.0911 39.305 16.2047C39.3047 16.3183 39.3268 16.4306 39.3702 16.5351L40.7414 19.8226C40.8291 20.0338 40.9978 20.2006 41.2104 20.2863C41.423 20.3721 41.6622 20.3698 41.8753 20.2799C42.0883 20.19 42.2579 20.0199 42.3466 19.8071C42.4352 19.5942 42.4358 19.356 42.3482 19.1448L42.3458 19.1416Z" fill="#199CFF"/>
<path d="M45.0842 25.7114L43.7149 22.4265C43.6715 22.322 43.6078 22.2272 43.5273 22.1477C43.4468 22.0681 43.3512 22.0053 43.2459 21.9628C43.0333 21.8771 42.7941 21.8794 42.581 21.9693C42.4755 22.0138 42.3796 22.0784 42.2988 22.1596C42.2179 22.2407 42.1537 22.3367 42.1098 22.4421C42.0211 22.655 42.0205 22.8932 42.1082 23.1043L43.4774 26.3892C43.5033 26.4507 43.5362 26.5089 43.5754 26.5628C43.6959 26.7415 43.88 26.8677 44.0912 26.9163C44.3024 26.9649 44.5252 26.9324 44.7153 26.8251C44.9054 26.7178 45.0489 26.5437 45.1173 26.3374C45.1856 26.131 45.1738 25.9076 45.0842 25.7114Z" fill="#199CFF"/>
<path d="M42.5353 29.2328L38.0806 18.5515L35.4221 16.7044L40.5958 29.1194L17.5361 38.8853L12.3612 26.472L35.4237 16.7032L38.0823 18.5503L36.6987 15.2309C36.6554 15.126 36.5916 15.031 36.511 14.9511C36.4304 14.8713 36.3346 14.8083 36.229 14.7657C36.1235 14.7232 36.0103 14.7019 35.8959 14.7031C35.7816 14.7044 35.6683 14.7281 35.5626 14.7729L10.8954 25.2213C10.6827 25.3117 10.5137 25.4819 10.4254 25.6948C10.3371 25.9076 10.3367 26.1456 10.4244 26.3566L16.2625 40.3606C16.3508 40.5712 16.5195 40.7375 16.7318 40.8234C16.8371 40.8659 16.95 40.8871 17.0641 40.8859C17.1783 40.8846 17.2913 40.8609 17.3967 40.816L42.0635 30.3671C42.169 30.3228 42.2651 30.2583 42.346 30.1773C42.4269 30.0962 42.4911 30.0002 42.535 29.8948C42.5788 29.7894 42.6014 29.6767 42.6015 29.5631C42.6015 29.4494 42.579 29.3372 42.5353 29.2328Z" fill="#199CFF"/>
<path d="M31.9786 31.4426C32.075 31.286 32.1194 31.1036 32.1052 30.9216C32.0911 30.7396 32.0192 30.5674 31.8999 30.4301L29.7846 27.985L31.4897 25.1959C31.5877 25.0393 31.6333 24.8563 31.62 24.6734C31.6067 24.4906 31.535 24.3175 31.4155 24.1793C31.296 24.041 31.1349 23.945 30.9556 23.905C30.7763 23.865 30.5881 23.8833 30.4186 23.9571L27.4053 25.2333L25.29 22.7883C25.1719 22.6489 25.0117 22.5512 24.8329 22.5094C24.654 22.4677 24.4657 22.484 24.2954 22.5561C24.1251 22.6283 23.9817 22.7523 23.8861 22.9103C23.7904 23.0683 23.7475 23.252 23.7636 23.4346L24.0175 26.6698L21.0042 27.9461C20.8338 28.0168 20.6898 28.1394 20.593 28.2962C20.4963 28.4529 20.4517 28.6357 20.4659 28.818C20.48 29.0003 20.5522 29.1727 20.6718 29.3102C20.7914 29.4477 20.9523 29.5432 21.1313 29.5828L24.3006 30.3049L24.553 33.5428C24.5654 33.7257 24.6362 33.8993 24.7551 34.0381C24.8739 34.1769 25.0346 34.2738 25.2137 34.3146C25.3929 34.3554 25.5811 34.3381 25.751 34.2651C25.921 34.192 26.0637 34.0672 26.1585 33.9087L27.8636 31.1195L31.0333 31.8422C31.2118 31.8837 31.3997 31.8674 31.5696 31.7955C31.7396 31.7237 31.8828 31.6001 31.9786 31.4426ZM26.7152 29.6937L26.0777 30.7362L25.9834 29.527C25.9176 28.6902 24.7706 28.6358 24.1365 28.4911L25.2626 28.014C25.4323 27.9425 25.5754 27.8195 25.6713 27.6627C25.7673 27.5058 25.8111 27.3233 25.7965 27.1414L25.7048 25.9335L26.4953 26.8475C27.0439 27.4819 28.012 26.8511 28.613 26.5965L27.9759 27.6386C27.5322 28.3633 28.4222 29.0753 28.8456 29.5648C28.2011 29.4171 27.1705 28.9484 26.7152 29.6937Z" fill="#199CFF"/>
<path d="M49.8845 30.4307L51.4093 29.7562C51.7583 29.5892 51.9812 29.0053 51.7457 28.4764C51.4263 27.757 52.3705 26.8042 52.6478 26.6786C53.0858 26.4852 53.3117 25.7883 53.0974 25.2749L51.0344 20.3276C50.9551 20.1349 50.8077 19.9783 50.6198 19.887C50.4319 19.7958 50.2162 19.7762 50.0131 19.8319C49.5907 19.9466 49.1427 19.9057 48.752 19.7166C48.3613 19.5275 48.0542 19.203 47.8876 18.8032C47.721 18.4034 47.706 17.9553 47.8456 17.5416C47.9851 17.128 48.2697 16.7769 48.6466 16.5531C48.8286 16.4462 48.9661 16.2774 49.0334 16.0784C49.1008 15.8793 49.0934 15.6635 49.0127 15.4712L46.9503 10.5236C46.8701 10.3314 46.7226 10.1755 46.535 10.0844C46.3473 9.99326 46.132 9.97318 45.9289 10.0278C45.5066 10.138 45.0604 10.0951 44.6706 9.90674C44.2809 9.71841 43.9729 9.39702 43.8022 9.00027C43.7583 8.89589 43.6941 8.80142 43.6132 8.7223C43.5323 8.64317 43.4363 8.58095 43.3307 8.53922C43.2251 8.49749 43.112 8.47707 42.9979 8.47913C42.8839 8.48119 42.771 8.50569 42.666 8.55123C42.666 8.55123 37.4061 10.7792 37.4015 10.7809L6.53357 23.8561C6.42792 23.9004 6.33186 23.965 6.25093 24.0462C6.17 24.1273 6.1058 24.2234 6.06201 24.3289C6.01823 24.4345 5.99574 24.5473 5.99583 24.661C5.99592 24.7747 6.0186 24.887 6.06255 24.9914C6.22842 25.3917 6.24278 25.84 6.10297 26.2537C5.96317 26.6675 5.67861 27.0188 5.30171 27.243C5.11915 27.35 4.98105 27.5189 4.91311 27.7184C4.84517 27.9179 4.85204 28.1343 4.93242 28.3273L6.99538 33.2745C7.0747 33.4673 7.22206 33.6239 7.40999 33.7151C7.59791 33.8063 7.81357 33.8259 8.01673 33.7703C9.99762 33.2286 11.1476 36.007 9.38356 37.0496C9.2016 37.1565 9.06411 37.3252 8.99675 37.5243C8.9294 37.7234 8.93678 37.9392 9.01752 38.1315L11.0799 43.0791C11.1612 43.2703 11.3088 43.4255 11.4962 43.5164C11.6835 43.6073 11.8982 43.6281 12.1013 43.5748C12.4544 43.4795 12.827 43.492 13.1702 43.611C13.5134 43.7299 13.8114 43.9496 14.0252 44.2414C14.2484 44.5485 14.3079 44.9091 14.6977 45.0657C14.8029 45.108 14.9157 45.1292 15.0296 45.1279C15.1436 45.1266 15.2564 45.1029 15.3617 45.0582L19.9817 43.1017M25.791 38.7692L20.5037 41.0049L15.4092 43.1625C15.0648 42.7083 14.6143 42.3451 14.096 42.1039C13.5777 41.8628 13.007 41.7507 12.4325 41.7773L10.8834 38.0617C11.4151 37.566 11.7835 36.9217 11.939 36.2156C12.0946 35.5095 12.0298 34.7756 11.7534 34.1125C11.477 33.4495 11.0023 32.8892 10.3931 32.507C9.78398 32.1248 9.06962 31.9391 8.3462 31.9749L6.79787 28.2603C7.21827 27.8653 7.53788 27.3761 7.72952 26.8344C7.92116 26.2927 7.97915 25.7145 7.89858 25.149L37.2625 12.7088L37.593 13.5049C37.6187 13.5665 37.6514 13.6249 37.6905 13.6789C37.8105 13.8588 37.9948 13.9862 38.2066 14.0354C38.4184 14.0847 38.642 14.0523 38.8328 13.9446C39.0235 13.837 39.1673 13.6621 39.2353 13.4549C39.3034 13.2477 39.2907 13.0235 39.1998 12.8271L38.8697 12.0315L42.6262 10.4405C42.9707 10.8941 43.4212 11.2568 43.9392 11.4976C44.4573 11.7385 45.0276 11.8505 45.6017 11.824L47.1512 15.5402C46.6197 16.036 46.2515 16.6802 46.0961 17.3861C45.9407 18.092 46.0055 18.8258 46.2818 19.4887C46.5581 20.1516 47.0326 20.7119 47.6416 21.0941C48.2506 21.4763 48.9647 21.6621 49.688 21.6265L51.2389 25.34C51.182 25.4043 51.1215 25.4654 51.0578 25.523C50.8776 25.7184 50.7197 25.933 50.5871 26.1628C50.1862 26.8578 50.0283 27.6635 50.1386 28.4519L46.379 30.041L46.0485 29.2449C45.9605 29.034 45.7916 28.8676 45.5788 28.7822C45.3661 28.6969 45.1271 28.6997 44.9143 28.7899C44.7014 28.8802 44.5323 29.0505 44.4441 29.2634C44.3558 29.4763 44.3557 29.7144 44.4437 29.9253L44.7738 30.7209L39.1851 33.0924L38.5745 33.3508L34.4724 35.0884C34.4724 35.0884 25.7989 38.7618 25.7984 38.7622L25.791 38.7692ZM40.8336 34.2682L49.8772 30.4377L40.8336 34.2682ZM27.0003 40.1288L33.8496 37.2275L27.0003 40.1288ZM21.714 42.3637L25.2833 40.8516L21.714 42.3637Z" fill="#199CFF"/>
<path d="M52.8879 25.9453C52.7101 26.1692 52.5327 26.393 52.3559 26.6167L52.8879 25.9453Z" fill="#199CFF"/>
</g>
<defs>
<clipPath id="clip0_3524_651">
<rect width="31.1823" height="48.1908" fill="white" transform="translate(39.3296) rotate(54)"/>
</clipPath>
</defs>
</svg>
