<svg width="28" height="20" viewBox="0 0 28 20" fill="none" xmlns="http://www.w3.org/2000/svg">
<g id="Group 85" filter="url(#filter0_d_3430_124)">
<path id="Vector" d="M25.2838 9.12089C25.2198 13.3412 21.834 16.8261 17.5998 16.994C16.7514 17.026 15.9269 16.93 15.1505 16.7142C14.9424 16.6583 14.9024 16.3705 15.1025 16.2666C17.7279 14.9318 19.244 12.2018 19.244 9.02057C19.244 5.83935 17.7199 3.07019 15.1025 1.73536C14.9104 1.63944 14.9424 1.35169 15.1505 1.28775C15.8309 1.10391 16.5433 1 17.2716 1C21.738 1.00799 25.3479 4.6528 25.2838 9.12089Z" fill="#199CFF"/>
<path id="Vector_2" d="M10.0042 1.00793C5.58587 1.00793 2 4.5888 2 9.00093C2 13.4131 5.58587 16.9939 10.0042 16.9939C14.4225 16.9939 18.0084 13.4131 18.0084 9.00093C18.0084 4.5888 14.4225 1.00793 10.0042 1.00793ZM12.7896 4.15718L10.9407 7.96984C10.8526 8.14568 11.0047 8.33751 11.1968 8.31354L11.8131 8.21762C12.0292 8.18565 12.1733 8.42544 12.0452 8.60128L7.79503 14.2763C7.62694 14.5001 7.28276 14.3083 7.37881 14.0445L8.77154 10.3358C8.84358 10.1519 8.67549 9.96809 8.48339 10.016L7.86707 10.1759C7.69097 10.2239 7.52289 10.056 7.57891 9.88016L9.25179 3.98932C9.28381 3.88541 9.37185 3.81348 9.48391 3.81348H12.5815C12.7496 3.81348 12.8697 3.99732 12.7896 4.15718Z" fill="#199CFF"/>
</g>
<defs>
<filter id="filter0_d_3430_124" x="0" y="0" width="27.2847" height="20" filterUnits="userSpaceOnUse" color-interpolation-filters="sRGB">
<feFlood flood-opacity="0" result="BackgroundImageFix"/>
<feColorMatrix in="SourceAlpha" type="matrix" values="0 0 0 0 0 0 0 0 0 0 0 0 0 0 0 0 0 0 127 0" result="hardAlpha"/>
<feOffset dy="1"/>
<feGaussianBlur stdDeviation="1"/>
<feComposite in2="hardAlpha" operator="out"/>
<feColorMatrix type="matrix" values="0 0 0 0 0 0 0 0 0 0 0 0 0 0 0 0 0 0 0.9 0"/>
<feBlend mode="normal" in2="BackgroundImageFix" result="effect1_dropShadow_3430_124"/>
<feBlend mode="normal" in="SourceGraphic" in2="effect1_dropShadow_3430_124" result="shape"/>
</filter>
</defs>
</svg>
