<?xml version="1.0" encoding="utf-8"?>
<!-- Generator: Adobe Illustrator 25.2.1, SVG Export Plug-In . SVG Version: 6.00 Build 0)  -->
<svg version="1.1" xmlns="http://www.w3.org/2000/svg" xmlns:xlink="http://www.w3.org/1999/xlink" x="0px" y="0px"
	 viewBox="0 0 500 500" style="enable-background:new 0 0 500 500;" xml:space="preserve">
<style type="text/css">
	.st0{fill:#199CFF;}
</style>
<g id="BACKGROUND">
</g>
<g id="OBJECTS">
	<g>
		<path class="st0" d="M142.5,229.1c0,0-52.7,23.8-28.1,106.2c25.4,85.3,166.9,65.8,166.9,65.8l-83.4-119.3L142.5,229.1z"/>
		<g>
			<g>
				<g>
					<path class="st0" d="M250.2,401.5c5.8,0.9,11.6,0.6,17.5,0.4c4.5-0.1,9-0.4,13.5-0.9c10.8-1.2,21.4-3.3,31.7-6.9
						c10.6-3.7,20.6-8.4,30.1-14.4c4.9-3.1,9.6-6.3,14.3-9.8c1.3-0.9,2.6-1.8,3.9-2.7c2.8-2.2,5.7-4.3,8.4-6.5
						c8.4-7.1,15.6-15.4,21.6-24.7c3.5-5.4,6.5-11,9.1-16.9c3.5-7.7,6.1-15.8,7.9-24c0.6-2.8,0.9-5.6,1.4-8.4
						c0.1-0.9,0.3-1.7,0.4-2.6c0.2-1.3,0.4-2.5,0.4-3.8c0.1-3.2,0.1-6.5,0.1-9.7c0-4.6-0.4-9.1-0.9-13.7c-0.6-5.1-1.9-10.1-3.4-15
						c-0.8-2.6-1.7-5.1-2.8-7.6c-0.6-1.4-1.4-2.7-2.2-3.9c-3.2-4.4-7.5-7.4-12.7-9c-0.8-0.2-1.5-0.3-2.3-0.4
						c-4.5-0.7-9-0.3-13.5-0.1c-8.5,0.5-16.7,2.1-25,3.8c-11.9,2.4-23.8,4.3-35.9,5.1c-3.2,0.2-6.5,0.2-9.7,0.3
						c-2.2,0.1-4.4,0.1-6.6,0.1c-0.6,0-1.1,0-1.7,0c-2,0-3.9-0.1-5.9-0.2c-1.3-0.1-2.7-0.2-4-0.4c-2.3-0.3-4.5-0.6-6.8-1
						c-10.2-1.4-20.2-3.6-29.6-7.9c-1-0.4-2-1-2.9-1.6c-6.7-4.1-13.6-7.8-21.3-9.5c-3.6-0.8-7.3-1.1-11.1-1
						c-13.1,0.5-25.4,4-37.1,9.8c-5.8,2.8-11.3,6.1-16.3,10.1c-4,3.2-8.1,6.3-11.9,9.7c-4.7,4.1-9.3,8.3-13.5,12.9
						c-6.6,7.3-12.2,15.3-15.8,24.6c-0.5,1.3-1.2,2.6-1.8,3.8c-1.3,2.7-2.1,5.6-2.1,8.7c0,2.4,0.1,4.7,0.1,7.1
						c-0.1,5.9,0.9,11.6,2.3,17.3c1.4,5.5,3.3,10.9,5.9,16c2.5,4.9,5.3,9.7,8.9,14c3.2,3.8,6.4,7.7,10.1,11c3.1,2.7,6.2,5.4,9.4,7.9
						c10,7.8,20.8,14.4,32,20.2c9.4,4.8,19.1,8.6,29.2,11.8c4.5,1.4,9,2.9,13.7,3.8c2.3,0.5,4.6,1,7,1.4c3.7,0.7,7.5,1.3,11.2,1.8
						C245.5,401.2,247.9,401.3,250.2,401.5z"/>
				</g>
			</g>
			<g>
				<path class="st0" d="M252.5,112.3c0.2-1.3,0.4-2.4,0.6-3.5c0.4-2.3,0.7-4.7,0.9-7c0.2-3,0.5-6,0.5-9c0-0.6,0-1.1-0.1-1.7
					c-0.2-1.4-1.5-1.9-2.7-1.1c-0.6,0.4-1.1,0.9-1.6,1.4c-3.5,3.9-7.5,7.2-11.6,10.4c-1.3,1-2.6,2-4,3c-0.7,0.5-1,0.5-1.7,0
					c-1.3-1-2.6-2.1-3.9-3.1c-6.3-4.9-13.3-8.8-20.8-11.7c-5.7-2.2-11.6-3.7-17.6-4.6c-4.2-0.7-8.5-0.7-12.8-0.7
					c-10.1,0.1-19.7,2.3-28.9,6.3c-10.4,4.5-19.2,11.1-26.7,19.6c-7.4,8.4-12.7,18-16.1,28.7c-1.7,5.4-2.8,10.8-3.4,16.4
					c-0.6,5.3-0.6,10.6-0.3,15.8c0.7,9.5,2.9,18.7,6.6,27.5c3.1,7.4,7.1,14.2,12.1,20.5c7.3,9.3,16.2,16.8,26.6,22.5
					c6.5,3.5,13.3,6.1,20.5,7.8c4,0.9,8,1.6,12.2,1.8c2.4,0.1,4.7,0.3,7.1,0.3c9.7-0.4,19.1-2.2,28.1-6c10-4.2,18.6-10.3,26-18.2
					c0.6-0.6,1.3-1.2,1.4-2.1c0.1-0.6,0.6-0.9,0.9-1.3c6.7-7.7,11.6-16.5,14.9-26.2c1.8-5.4,3.1-10.9,3.7-16.6
					c0.4-3.5,0.7-6.9,0.7-10.4c-0.1-8.1-1.1-16.2-3.5-24c-1.2-4.1-2.6-8.1-4.4-12c-0.5-1.1-0.5-2,0.2-3c2.2-3.5,3.4-7.5,4.4-11.4
					c1-3.9,1.6-7.9,2.4-11.8c0-0.2,0-0.3,0.1-0.5c0-0.8-0.1-1.6-0.9-2.1c-0.7-0.4-1.4-0.2-2,0.2c-0.9,0.5-1.6,1.3-2.4,2
					C255.8,109.9,254.4,111.1,252.5,112.3z"/>
				<g>
					<path class="st0" d="M62,150.2c2.6,0.4,5,1.3,7.2,2.8c1,0.7,2,1.2,3.2,1.6c1.2,0.4,2.4,0.8,3.6,1.2c6,1.8,12,1.8,18,0.7
						c2.6-0.5,5.1-1.2,7.5-2.1c2.8-1,5.5-1.9,8.3-2.8c2.5-0.8,5-1.4,7.6-1.8c8.4-1.2,14.7,3,17.9,9.5c1.5,3.1,2.4,6.5,2.6,10
						c0.3,4,0,7.9-1.1,11.7c-0.1,0.1-0.3,0.3-0.1,0.5c0.2,0.2,0.4,0.1,0.5,0c0.5-0.1,1.1-0.1,1.6-0.2c1.9-0.1,3.8-0.3,5.6,0.2
						c5.8,1.5,9.9,5.2,12,10.7c1.2,3.2,1.2,6.5,0,9.7c-1.2,3.2-3.2,6-5.9,8.1c-4.6,3.6-9.8,6-15.7,6.8c-4.2,0.5-8.4,0.7-12.5,0.1
						c-9.7-1.4-18.5-5.1-26.7-10.4c-5.5-3.6-10.4-7.9-15.2-12.4c-3.5-3.3-6.5-7.1-9.5-10.9c-4-5.1-7.8-10.4-10.8-16.1
						c-1.2-2.3-2.3-4.7-3.2-7.1c-0.5-1.4-0.7-2.9-0.8-4.4C56.1,152.9,58.2,149.5,62,150.2z"/>
				</g>
			</g>
		</g>
	</g>
</g>
<g id="DESIGNED_BY_FREEPIK">
</g>
</svg>
