<svg xmlns="http://www.w3.org/2000/svg" viewBox="0 0 500 500"><defs><style>.cls-1{fill:#fff;}</style></defs><g id="OBJECTS"><path class="cls-1" d="M142.46,229.14s-52.67,23.8-28.13,106.18c25.41,85.31,166.86,65.75,166.86,65.75L197.82,281.78Z"/><path class="cls-1" d="M250.24,401.48c5.81.87,11.65.58,17.49.45,4.5-.1,9-.36,13.46-.86a141.19,141.19,0,0,0,61.71-21.28q7.29-4.64,14.27-9.76c1.27-.93,2.6-1.78,3.86-2.74,2.82-2.15,5.7-4.25,8.41-6.54A111.59,111.59,0,0,0,391,336a124.81,124.81,0,0,0,9.11-16.88,120.83,120.83,0,0,0,7.89-24c.6-2.77.95-5.6,1.41-8.4.14-.86.31-1.71.42-2.57a34.12,34.12,0,0,0,.45-3.76c.09-3.23.11-6.47.11-9.7a109.82,109.82,0,0,0-.94-13.69A84.2,84.2,0,0,0,406,242c-.82-2.56-1.73-5.09-2.76-7.57a18.5,18.5,0,0,0-2.23-3.88,23.6,23.6,0,0,0-12.73-9,17.86,17.86,0,0,0-2.32-.41c-4.49-.66-9-.32-13.47-.06-8.47.49-16.75,2.14-25,3.8A283,283,0,0,1,311.62,230c-3.23.23-6.47.19-9.7.27-2.21,0-4.42.08-6.63.11-.55,0-1.11,0-1.66,0-2,0-3.94-.06-5.91-.16-1.34-.06-2.68-.19-4-.36-2.27-.3-4.54-.64-6.8-1-10.2-1.44-20.2-3.64-29.65-7.89a27.14,27.14,0,0,1-2.9-1.58c-6.7-4.08-13.55-7.82-21.33-9.46A45.2,45.2,0,0,0,212,209a90.52,90.52,0,0,0-37.06,9.75,89.54,89.54,0,0,0-16.3,10.07c-4,3.2-8.09,6.33-11.93,9.72a166.79,166.79,0,0,0-13.53,12.92c-6.63,7.31-12.24,15.27-15.79,24.57-.5,1.32-1.2,2.56-1.83,3.83a20.45,20.45,0,0,0-2.12,8.67c0,2.37.1,4.73.06,7.1A65.31,65.31,0,0,0,115.79,313a79.87,79.87,0,0,0,5.91,16,74.13,74.13,0,0,0,8.88,14,96.28,96.28,0,0,0,10.1,11c3.06,2.73,6.18,5.42,9.41,7.94a205.23,205.23,0,0,0,32,20.17,182,182,0,0,0,29.18,11.77c4.53,1.41,9,2.86,13.68,3.84,2.31.49,4.63,1,7,1.39,3.73.65,7.46,1.3,11.21,1.83C245.5,401.15,247.88,401.27,250.24,401.48Z"/><path class="cls-1" d="M252.52,112.32c.22-1.35.4-2.41.58-3.46a64.27,64.27,0,0,0,.85-7c.18-3,.53-6,.48-9a11.42,11.42,0,0,0-.06-1.66,1.63,1.63,0,0,0-2.67-1.12,10.13,10.13,0,0,0-1.56,1.44,91.88,91.88,0,0,1-11.61,10.43c-1.31,1-2.64,2-4,3-.73.54-1,.54-1.68,0-1.31-1-2.59-2.07-3.9-3.09a82.66,82.66,0,0,0-20.76-11.7,83.57,83.57,0,0,0-17.58-4.62,75.48,75.48,0,0,0-12.75-.66A73.91,73.91,0,0,0,149,91.19a75.4,75.4,0,0,0-26.71,19.6,79.35,79.35,0,0,0-16.11,28.71,86.44,86.44,0,0,0-3.44,16.41,84.74,84.74,0,0,0-.28,15.84A86.76,86.76,0,0,0,109,199.24a88.14,88.14,0,0,0,12.12,20.54,85.21,85.21,0,0,0,26.6,22.45A79.87,79.87,0,0,0,168.28,250a75.28,75.28,0,0,0,12.15,1.79c2.36.14,4.72.35,7.09.26a78.89,78.89,0,0,0,28-6,75.56,75.56,0,0,0,26-18.19,4.39,4.39,0,0,0,1.44-2.12,3.09,3.09,0,0,1,.94-1.34,80.24,80.24,0,0,0,18.6-42.78,78.66,78.66,0,0,0,.68-10.38,88.94,88.94,0,0,0-3.48-24,84.3,84.3,0,0,0-4.43-12,2.78,2.78,0,0,1,.19-3A38.31,38.31,0,0,0,260,120.72c1-3.89,1.6-7.88,2.38-11.82a3.75,3.75,0,0,0,.05-.47,2,2,0,0,0-.89-2.06,2,2,0,0,0-2,.21,12.35,12.35,0,0,0-2.35,2A31,31,0,0,1,252.52,112.32Z"/><path class="cls-1" d="M62,150.18A17.47,17.47,0,0,1,69.17,153a12.12,12.12,0,0,0,3.16,1.57c1.21.38,2.4.8,3.6,1.17a37.85,37.85,0,0,0,18,.65,49.22,49.22,0,0,0,7.51-2.09c2.76-1,5.52-1.91,8.29-2.81a47.06,47.06,0,0,1,7.58-1.84c8.36-1.25,14.67,3,17.88,9.53a26.4,26.4,0,0,1,2.59,10,32.39,32.39,0,0,1-1.12,11.71c-.14.15-.28.33-.12.51s.36.08.53,0c.54-.06,1.09-.14,1.64-.18a17.25,17.25,0,0,1,5.64.22,17,17,0,0,1,12.05,10.74,13.07,13.07,0,0,1,0,9.72A18.23,18.23,0,0,1,150.5,210a32,32,0,0,1-15.66,6.77,45.12,45.12,0,0,1-12.5.07,66.55,66.55,0,0,1-26.69-10.41A104.6,104.6,0,0,1,80.48,194,93.35,93.35,0,0,1,71,183.09,119.45,119.45,0,0,1,60.18,167,49.31,49.31,0,0,1,57,159.88a15.47,15.47,0,0,1-.81-4.41C56.07,152.9,58.16,149.53,62,150.18Z"/></g></svg>