<svg width="13" height="17" viewBox="0 0 13 17" fill="none" xmlns="http://www.w3.org/2000/svg">
<path d="M2.66984 2.79306C3.68566 1.73036 5.06341 1.13333 6.5 1.13333C7.21133 1.13333 7.91569 1.27991 8.57287 1.56468C9.23005 1.84946 9.82718 2.26686 10.3302 2.79306C10.8331 3.31926 11.2321 3.94395 11.5043 4.63146C11.7766 5.31897 11.9167 6.05584 11.9167 6.8V7.93333H10.8333C10.546 7.93333 10.2705 8.05274 10.0673 8.26528C9.86414 8.47782 9.75 8.76609 9.75 9.06667V12.4667C9.75 12.7672 9.86414 13.0555 10.0673 13.2681C10.2705 13.4806 10.546 13.6 10.8333 13.6H11.9167C11.9167 14.0509 11.7455 14.4833 11.4407 14.8021C11.136 15.1209 10.7226 15.3 10.2917 15.3H7.97986C7.93293 15.2149 7.87523 15.1359 7.8077 15.0653C7.60453 14.8527 7.32898 14.7333 7.04167 14.7333H5.95833C5.67102 14.7333 5.39547 14.8527 5.1923 15.0653C4.98914 15.2778 4.875 15.5661 4.875 15.8667C4.875 16.1672 4.98914 16.4555 5.1923 16.6681C5.39547 16.8806 5.67102 17 5.95833 17H7.04167C7.32898 17 7.60453 16.8806 7.8077 16.6681C7.87523 16.5974 7.93293 16.5184 7.97986 16.4333H10.2917C11.01 16.4333 11.6988 16.1348 12.2067 15.6035C12.7147 15.0721 13 14.3514 13 13.6V6.8C13 5.90701 12.8319 5.02277 12.5052 4.19775C12.1786 3.37274 11.6998 2.62311 11.0962 1.99167C10.4926 1.36024 9.77606 0.859351 8.98744 0.517619C8.19883 0.175887 7.35359 0 6.5 0C5.64641 0 4.80117 0.175887 4.01256 0.517619C3.22394 0.859351 2.50739 1.36024 1.90381 1.99167C1.30023 2.62311 0.821438 3.37274 0.494783 4.19775C0.168127 5.02277 0 5.90701 0 6.8V12.4667C0 12.7672 0.114137 13.0555 0.317301 13.2681C0.520465 13.4806 0.796015 13.6 1.08333 13.6H2.16667C2.45398 13.6 2.72953 13.4806 2.9327 13.2681C3.13586 13.0555 3.25 12.7672 3.25 12.4667V9.06667C3.25 8.76609 3.13586 8.47782 2.9327 8.26528C2.72953 8.05274 2.45398 7.93333 2.16667 7.93333H1.08333V6.8C1.08333 5.29711 1.65402 3.85577 2.66984 2.79306Z" fill="#FF006E"/>
</svg>
