<svg width="10" height="17" viewBox="0 0 10 17" fill="none" xmlns="http://www.w3.org/2000/svg">
<path d="M2.87868 0.933597C2.31607 1.53137 2 2.34212 2 3.1875V8.5C2 9.34538 2.31607 10.1561 2.87868 10.7539C3.44129 11.3517 4.20435 11.6875 5 11.6875C5.79565 11.6875 6.55871 11.3517 7.12132 10.7539C7.68393 10.1561 8 9.34538 8 8.5V3.1875C8 2.34212 7.68393 1.53137 7.12132 0.933597C6.55871 0.335825 5.79565 0 5 0C4.20435 0 3.44129 0.335825 2.87868 0.933597Z" fill="#2E55FF"/>
<path d="M0.853553 7.06185C0.759785 6.96222 0.632608 6.90625 0.5 6.90625C0.367392 6.90625 0.240215 6.96222 0.146447 7.06185C0.0526785 7.16148 3.94966e-10 7.2966 3.94966e-10 7.4375V8.5C-1.55709e-05 9.817 0.460384 11.0871 1.29188 12.0638C2.12338 13.0405 3.26668 13.6542 4.5 13.7859V15.9375H1.5C1.36739 15.9375 1.24021 15.9935 1.14645 16.0931C1.05268 16.1927 1 16.3279 1 16.4688C1 16.6096 1.05268 16.7448 1.14645 16.8444C1.24021 16.944 1.36739 17 1.5 17H8.5C8.63261 17 8.75979 16.944 8.85355 16.8444C8.94732 16.7448 9 16.6096 9 16.4688C9 16.3279 8.94732 16.1927 8.85355 16.0931C8.75979 15.9935 8.63261 15.9375 8.5 15.9375H5.5V13.7859C6.73332 13.6542 7.87663 13.0405 8.70812 12.0638C9.53962 11.0871 10 9.817 10 8.5V7.4375C10 7.2966 9.94732 7.16148 9.85355 7.06185C9.75979 6.96222 9.63261 6.90625 9.5 6.90625C9.36739 6.90625 9.24022 6.96222 9.14645 7.06185C9.05268 7.16148 9 7.2966 9 7.4375V8.5C9 9.62717 8.57857 10.7082 7.82843 11.5052C7.07828 12.3022 6.06087 12.75 5 12.75C3.93913 12.75 2.92172 12.3022 2.17157 11.5052C1.42143 10.7082 1 9.62717 1 8.5V7.4375C1 7.2966 0.947322 7.16148 0.853553 7.06185Z" fill="#2E55FF"/>
</svg>
