<svg width="17" height="18" viewBox="0 0 17 18" fill="none" xmlns="http://www.w3.org/2000/svg">
<mask id="path-1-inside-1_3529_710" fill="white">
<path fill-rule="evenodd" clip-rule="evenodd" d="M7.21018 1.90738V2.54647H1.78645C1.49875 2.54647 1.22285 2.66139 1.01942 2.86594C0.815987 3.07049 0.701702 3.34792 0.701702 3.6372V5.81866C0.701702 6.10793 0.815987 6.38536 1.01942 6.58992C1.22285 6.79447 1.49875 6.90938 1.78645 6.90938H7.21018V8.00011H2.32882C2.16042 8.00011 1.99433 8.03953 1.84371 8.11526C1.69308 8.19099 1.56206 8.30094 1.46102 8.4364L0.403396 9.85434C0.332984 9.94875 0.294922 10.0636 0.294922 10.1816C0.294922 10.2996 0.332984 10.4144 0.403396 10.5088L1.46102 11.9267C1.56206 12.0622 1.69308 12.1721 1.84371 12.2479C1.99433 12.3236 2.16042 12.363 2.32882 12.363H7.21018V17.8167H9.37967V12.363H14.8034C15.0911 12.363 15.367 12.2481 15.5704 12.0435C15.7739 11.839 15.8881 11.5616 15.8881 11.2723V9.09084C15.8881 8.80156 15.7739 8.52413 15.5704 8.31958C15.367 8.11502 15.0911 8.00011 14.8034 8.00011H9.37967V6.90938H14.261C14.4294 6.90938 14.5955 6.86996 14.7461 6.79423C14.8968 6.7185 15.0278 6.60856 15.1288 6.47309L16.1864 5.05515C16.2569 4.96075 16.2949 4.84593 16.2949 4.72793C16.2949 4.60993 16.2569 4.49511 16.1864 4.40071L15.1288 2.98277C15.0278 2.8473 14.8968 2.73735 14.7461 2.66163C14.5955 2.5859 14.4294 2.54647 14.261 2.54647H9.37967V1.90738C9.37967 1.6181 9.26538 1.34067 9.06195 1.13612C8.85852 0.931566 8.58261 0.81665 8.29492 0.81665C8.00723 0.81665 7.73132 0.931566 7.52789 1.13612C7.32446 1.34067 7.21018 1.6181 7.21018 1.90738ZM14.261 3.6372H1.78645V5.81866H14.261L15.0746 4.72793L14.261 3.6372ZM2.32882 9.09084H14.8034V11.2723H2.32882L1.51526 10.1816L2.32882 9.09084Z"/>
</mask>
<path fill-rule="evenodd" clip-rule="evenodd" d="M7.21018 1.90738V2.54647H1.78645C1.49875 2.54647 1.22285 2.66139 1.01942 2.86594C0.815987 3.07049 0.701702 3.34792 0.701702 3.6372V5.81866C0.701702 6.10793 0.815987 6.38536 1.01942 6.58992C1.22285 6.79447 1.49875 6.90938 1.78645 6.90938H7.21018V8.00011H2.32882C2.16042 8.00011 1.99433 8.03953 1.84371 8.11526C1.69308 8.19099 1.56206 8.30094 1.46102 8.4364L0.403396 9.85434C0.332984 9.94875 0.294922 10.0636 0.294922 10.1816C0.294922 10.2996 0.332984 10.4144 0.403396 10.5088L1.46102 11.9267C1.56206 12.0622 1.69308 12.1721 1.84371 12.2479C1.99433 12.3236 2.16042 12.363 2.32882 12.363H7.21018V17.8167H9.37967V12.363H14.8034C15.0911 12.363 15.367 12.2481 15.5704 12.0435C15.7739 11.839 15.8881 11.5616 15.8881 11.2723V9.09084C15.8881 8.80156 15.7739 8.52413 15.5704 8.31958C15.367 8.11502 15.0911 8.00011 14.8034 8.00011H9.37967V6.90938H14.261C14.4294 6.90938 14.5955 6.86996 14.7461 6.79423C14.8968 6.7185 15.0278 6.60856 15.1288 6.47309L16.1864 5.05515C16.2569 4.96075 16.2949 4.84593 16.2949 4.72793C16.2949 4.60993 16.2569 4.49511 16.1864 4.40071L15.1288 2.98277C15.0278 2.8473 14.8968 2.73735 14.7461 2.66163C14.5955 2.5859 14.4294 2.54647 14.261 2.54647H9.37967V1.90738C9.37967 1.6181 9.26538 1.34067 9.06195 1.13612C8.85852 0.931566 8.58261 0.81665 8.29492 0.81665C8.00723 0.81665 7.73132 0.931566 7.52789 1.13612C7.32446 1.34067 7.21018 1.6181 7.21018 1.90738ZM14.261 3.6372H1.78645V5.81866H14.261L15.0746 4.72793L14.261 3.6372ZM2.32882 9.09084H14.8034V11.2723H2.32882L1.51526 10.1816L2.32882 9.09084Z" fill="#2E55FF" stroke="#2E55FF" stroke-width="3" mask="url(#path-1-inside-1_3529_710)"/>
</svg>
