<svg width="17" height="17" viewBox="0 0 17 17" fill="none" xmlns="http://www.w3.org/2000/svg">
<path fill-rule="evenodd" clip-rule="evenodd" d="M16.7986 3.99363C16.9432 3.45611 16.9439 2.89 16.8005 2.35213L14.5379 4.6144L12.681 4.22979L12.2963 2.37221L14.5601 0.108887C14.0216 -0.0359828 13.4544 -0.0363003 12.9158 0.107967C12.3772 0.252233 11.8861 0.535981 11.4922 0.930582C11.0983 1.32518 10.8154 1.81668 10.6721 2.35549C10.5289 2.89429 10.5303 3.46135 10.6762 3.99944L7.88491 6.82994L5.0654 4.01094C4.96713 3.91272 4.8892 3.79609 4.83607 3.66772C4.78294 3.53935 4.75564 3.40177 4.75575 3.26284V3.18887C4.75594 3.02044 4.71584 2.85439 4.63881 2.70459C4.56179 2.55479 4.45006 2.42557 4.31294 2.32771L1.05683 0.00310192L3.99983e-09 1.05974L2.32609 4.31525C2.42387 4.4522 2.55294 4.56382 2.70257 4.64083C2.8522 4.71784 3.01806 4.758 3.18635 4.75799H3.26139C3.54166 4.75805 3.81042 4.86941 4.00857 5.06758L6.83555 7.89404L4.06887 10.6996C3.3929 10.4999 2.66965 10.5311 2.01342 10.7883C1.35718 11.0455 0.805372 11.514 0.445195 12.1198C0.0850173 12.7256 -0.0629918 13.4341 0.0245558 14.1333C0.112103 14.8326 0.430215 15.4828 0.928623 15.9811C1.42703 16.4794 2.07731 16.7974 2.77671 16.885C3.47611 16.9725 4.18473 16.8245 4.79062 16.4644C5.3965 16.1043 5.86508 15.5526 6.12232 14.8965C6.37956 14.2404 6.41079 13.5173 6.21107 12.8414L9.01691 10.075L10.0399 11.0978L9.71758 12.0636C9.65565 12.2498 9.64677 12.4495 9.69194 12.6404C9.73711 12.8313 9.83455 13.0059 9.97334 13.1445L13.5201 16.6906C13.7183 16.8887 13.987 17 14.2673 17C14.5475 17 14.8162 16.8887 15.0144 16.6906L16.6906 15.0148C16.8887 14.8166 17 14.5479 17 14.2678C17 13.9876 16.8887 13.7189 16.6906 13.5207L13.1438 9.97462C13.0051 9.83585 12.8305 9.73843 12.6396 9.69327C12.4486 9.64811 12.2489 9.65699 12.0627 9.71891L11.0968 10.0412L10.0811 9.02575L12.9125 6.23423C13.4502 6.37831 14.0164 6.37841 14.5542 6.23453C15.0921 6.09065 15.5826 5.80785 15.9765 5.41452C16.3705 5.02118 16.654 4.53116 16.7986 3.99363ZM3.17056 11.6263L2.67068 11.882H2.67173L2.11267 11.9094L1.80936 12.3797L1.33907 12.6829L1.31159 13.2419L1.05583 13.7396L1.31159 14.2372L1.33907 14.7962L1.80936 15.0994L2.11267 15.5697L2.67173 15.5971L3.1695 15.8528L3.66727 15.5971L4.22633 15.5697L4.52965 15.0994L4.99994 14.7962L5.02742 14.2372L5.28317 13.7396L5.02847 13.2419L5.00099 12.6829L4.5307 12.3797L4.22739 11.9094L3.66833 11.882L3.17056 11.6263ZM11.6252 11.0972C11.7655 11.0972 11.9001 11.1529 11.9993 11.2521L15.1698 14.422C15.269 14.5212 15.3248 14.6558 15.3248 14.7961C15.3248 14.9364 15.269 15.0709 15.1698 15.1701C15.0706 15.2693 14.936 15.3251 14.7957 15.3251C14.6553 15.3251 14.5208 15.2693 14.4216 15.1701L11.251 12.0002C11.1518 11.901 11.0961 11.7664 11.0961 11.6262C11.0961 11.4859 11.1518 11.3513 11.251 11.2521C11.3503 11.1529 11.4848 11.0972 11.6252 11.0972Z" fill="#FB5607"/>
</svg>
