<?xml version="1.0" standalone="no"?>
<!DOCTYPE svg PUBLIC "-//W3C//DTD SVG 20010904//EN"
 "http://www.w3.org/TR/2001/REC-SVG-20010904/DTD/svg10.dtd">
<svg version="1.0" xmlns="http://www.w3.org/2000/svg"
 width="700.000000pt" height="700.000000pt" viewBox="0 0 700.000000 700.000000"
 preserveAspectRatio="xMidYMid meet">
<metadata>
Created by potrace 1.14, written by Peter Selinger 2001-2017
</metadata>
<g transform="translate(0.000000,700.000000) scale(0.100000,-0.100000)"
fill="#000000" stroke="none">
<path d="M3378 6938 c-11 -11 -18 -34 -19 -60 -5 -337 1 -969 10 -987 10 -18
21 -21 74 -21 34 -1 270 -2 524 -3 l462 -2 23 -22 22 -22 0 -2158 c1 -1187 -1
-2174 -4 -2193 -10 -70 103 -65 -1579 -65 l-1513 0 -18 22 c-17 21 -18 58 -17
553 0 488 -1 532 -17 548 -15 16 -64 17 -584 19 -492 2 -570 0 -587 -13 -20
-15 -20 -27 -20 -1110 l0 -1096 24 -19 c23 -19 80 -19 2762 -19 l2739 0 12 28
c8 20 11 763 11 2772 l1 2745 25 17 c24 16 67 18 526 17 275 0 508 3 518 7 46
17 47 33 47 553 0 432 -2 491 -16 505 -8 9 -21 17 -27 17 -7 1 -766 2 -1687 3
-1591 1 -1675 1 -1692 -16z"/>
</g>
</svg>
