<svg width="49" height="49" viewBox="0 0 49 49" fill="none" xmlns="http://www.w3.org/2000/svg">
<path fill-rule="evenodd" clip-rule="evenodd" d="M4.75478 20.7517C4.93673 20.3894 5.25491 20.1141 5.63955 19.9861C6.02419 19.8581 6.4439 19.8878 6.80665 20.0688L24.4987 28.9102L42.1877 20.0657C42.3677 19.9738 42.5641 19.9184 42.7655 19.9027C42.967 19.887 43.1696 19.9114 43.3616 19.9744C43.5536 20.0373 43.7313 20.1377 43.8843 20.2697C44.0374 20.4017 44.1628 20.5626 44.2533 20.7433C44.3438 20.924 44.3977 21.1208 44.4118 21.3224C44.4259 21.524 44.4 21.7263 44.3355 21.9179C44.2711 22.1094 44.1693 22.2863 44.0362 22.4383C43.903 22.5903 43.7411 22.7144 43.5597 22.8036L25.1847 31.9911C24.9718 32.0978 24.7369 32.1533 24.4987 32.1533C24.2605 32.1533 24.0257 32.0978 23.8127 31.9911L5.43772 22.8036C5.07546 22.6216 4.80014 22.3034 4.67211 21.9188C4.54409 21.5342 4.57382 21.1145 4.75478 20.7517Z" fill="#E7E7E7"/>
</svg>
