<svg width="37" height="38" viewBox="0 0 37 38" fill="none" xmlns="http://www.w3.org/2000/svg">
<g clip-path="url(#clip0_1751_277)">
<path fill-rule="evenodd" clip-rule="evenodd" d="M4.7583 5.38115C4.7583 4.17137 5.23179 3.01114 6.07461 2.1557C6.91743 1.30025 8.06054 0.819672 9.25246 0.819672L21.1463 0.819672C21.7422 0.819801 22.3136 1.06018 22.735 1.48793L31.0649 9.94262C31.4863 10.3702 31.7232 10.9503 31.7233 11.5551V32.75C31.7233 33.9598 31.2498 35.12 30.407 35.9754C29.5641 36.8309 28.421 37.3115 27.2291 37.3115H9.25246C8.06054 37.3115 6.91743 36.8309 6.07461 35.9754C5.23179 35.12 4.7583 33.9598 4.7583 32.75V5.38115ZM20.4879 9.94262L21.6114 4.24078L28.3527 11.083L22.735 12.2234C22.139 12.2234 21.5674 11.9831 21.146 11.5553C20.7246 11.1276 20.4879 10.5475 20.4879 9.94262ZM11.4995 25.9078C11.2016 25.9078 10.9158 26.0279 10.7051 26.2418C10.4944 26.4557 10.376 26.7457 10.376 27.0482C10.376 27.3506 10.4944 27.6407 10.7051 27.8545C10.9158 28.0684 11.2016 28.1885 11.4995 28.1885H24.982C25.28 28.1885 25.5658 28.0684 25.7765 27.8545C25.9872 27.6407 26.1056 27.3506 26.1056 27.0482C26.1056 26.7457 25.9872 26.4557 25.7765 26.2418C25.5658 26.0279 25.28 25.9078 24.982 25.9078H11.4995ZM11.4995 30.4693C11.2016 30.4693 10.9158 30.5894 10.7051 30.8033C10.4944 31.0171 10.376 31.3072 10.376 31.6096C10.376 31.9121 10.4944 32.2021 10.7051 32.416C10.9158 32.6299 11.2016 32.75 11.4995 32.75H18.2408C18.5388 32.75 18.8245 32.6299 19.0353 32.416C19.246 32.2021 19.3643 31.9121 19.3643 31.6096C19.3643 31.3072 19.246 31.0171 19.0353 30.8033C18.8245 30.5894 18.5388 30.4693 18.2408 30.4693H11.4995ZM21.2369 15.3911C21.2369 16.2984 20.8818 17.1686 20.2497 17.8101C19.6176 18.4517 18.7602 18.8122 17.8663 18.8122C16.9723 18.8122 16.115 18.4517 15.4829 17.8101C14.8508 17.1686 14.4957 16.2984 14.4957 15.3911C14.4957 14.4837 14.8508 13.6135 15.4829 12.972C16.115 12.3304 16.9723 11.9699 17.8663 11.9699C18.7602 11.9699 19.6176 12.3304 20.2497 12.972C20.8818 13.6135 21.2369 14.4837 21.2369 15.3911ZM17.8663 19.9525C22.3604 19.9525 23.484 21.9539 23.484 21.9539V22.2333C23.484 22.5357 23.3656 22.8258 23.1549 23.0396C22.9442 23.2535 22.6584 23.3736 22.3604 23.3736H17.8663H13.3721C13.0741 23.3736 12.7884 23.2535 12.5777 23.0396C12.3669 22.8258 12.2486 22.5357 12.2486 22.2333V21.9539C12.2486 21.9539 13.3721 19.9525 17.8663 19.9525Z" fill="#E7E7E7"/>
</g>
<defs>
<clipPath id="clip0_1751_277">
<rect width="35.9533" height="36.4918" fill="white" transform="translate(0.26416 0.819672)"/>
</clipPath>
</defs>
</svg>
