<svg width="29" height="37" viewBox="0 0 29 37" fill="none" xmlns="http://www.w3.org/2000/svg">
<path fill-rule="evenodd" clip-rule="evenodd" d="M0 4.56148C0 3.3517 0.503084 2.19147 1.39858 1.33603C2.29407 0.480583 3.50863 0 4.77505 0L17.4122 0C18.0454 0.000129175 18.6525 0.240505 19.1002 0.668256L27.9507 9.12295C28.3985 9.55057 28.6502 10.1306 28.6503 10.7354V31.9303C28.6503 33.1401 28.1472 34.3003 27.2517 35.1558C26.3562 36.0112 25.1417 36.4918 23.8752 36.4918H4.77505C3.50863 36.4918 2.29407 36.0112 1.39858 35.1558C0.503084 34.3003 0 33.1401 0 31.9303V4.56148ZM16.7127 9.12295L17.9064 3.42111L25.069 10.2633L19.1002 11.4037C18.467 11.4037 17.8597 11.1634 17.412 10.7357C16.9642 10.308 16.7127 9.72784 16.7127 9.12295ZM7.16257 25.0881C6.84597 25.0881 6.54233 25.2083 6.31846 25.4221C6.09458 25.636 5.96881 25.926 5.96881 26.2285C5.96881 26.5309 6.09458 26.821 6.31846 27.0348C6.54233 27.2487 6.84597 27.3689 7.16257 27.3689H21.4877C21.8043 27.3689 22.108 27.2487 22.3318 27.0348C22.5557 26.821 22.6815 26.5309 22.6815 26.2285C22.6815 25.926 22.5557 25.636 22.3318 25.4221C22.108 25.2083 21.8043 25.0881 21.4877 25.0881H7.16257ZM7.16257 29.6496C6.84597 29.6496 6.54233 29.7697 6.31846 29.9836C6.09458 30.1975 5.96881 30.4875 5.96881 30.79C5.96881 31.0924 6.09458 31.3825 6.31846 31.5963C6.54233 31.8102 6.84597 31.9303 7.16257 31.9303H14.3251C14.6418 31.9303 14.9454 31.8102 15.1693 31.5963C15.3931 31.3825 15.5189 31.0924 15.5189 30.79C15.5189 30.4875 15.3931 30.1975 15.1693 29.9836C14.9454 29.7697 14.6418 29.6496 14.3251 29.6496H7.16257ZM17.5085 14.5714C17.5085 15.4787 17.1312 16.3489 16.4596 16.9905C15.788 17.6321 14.877 17.9925 13.9272 17.9925C12.9774 17.9925 12.0665 17.6321 11.3949 16.9905C10.7233 16.3489 10.3459 15.4787 10.3459 14.5714C10.3459 13.664 10.7233 12.7939 11.3949 12.1523C12.0665 11.5107 12.9774 11.1503 13.9272 11.1503C14.877 11.1503 15.788 11.5107 16.4596 12.1523C17.1312 12.7939 17.5085 13.664 17.5085 14.5714ZM13.9272 19.1329C18.7023 19.1329 19.896 21.1342 19.896 21.1342V21.4136C19.896 21.716 19.7703 22.0061 19.5464 22.22C19.3225 22.4338 19.0189 22.554 18.7023 22.554H13.9272H9.15218C8.83557 22.554 8.53193 22.4338 8.30806 22.22C8.08418 22.0061 7.95841 21.716 7.95841 21.4136V21.1342C7.95841 21.1342 9.15218 19.1329 13.9272 19.1329Z" fill="white"/>
</svg>
