<svg width="50" height="50" fill="none" xmlns="http://www.w3.org/2000/svg"><g clip-path="url(#prefix__clip0_1146_508)"><g filter="url(#prefix__filter0_b_1146_508)"><circle cx="25" cy="25" r="25" fill="#4CC9F0" fill-opacity=".08"/></g><path fill-rule="evenodd" clip-rule="evenodd" d="M25 46.875a21.875 21.875 0 100-43.75 21.875 21.875 0 000 43.75zM25 50a25 25 0 100-50 25 25 0 000 50z" fill="#000"/><path fill-rule="evenodd" clip-rule="evenodd" d="M25 46.875a21.875 21.875 0 100-43.75 21.875 21.875 0 000 43.75zM25 50a25 25 0 100-50 25 25 0 000 50z" fill="url(#prefix__paint0_linear_1146_508)"/><path d="M27.906 20.587l-7.156.897-.256 1.188 1.406.259c.919.219 1.1.55.9 1.465l-2.306 10.838c-.607 2.803.328 4.122 2.525 4.122 1.703 0 3.68-.788 4.578-1.869l.275-1.3c-.625.55-1.538.769-2.144.769-.86 0-1.172-.603-.95-1.666l3.128-14.703z" fill="#000"/><path d="M27.906 20.587l-7.156.897-.256 1.188 1.406.259c.919.219 1.1.55.9 1.465l-2.306 10.838c-.607 2.803.328 4.122 2.525 4.122 1.703 0 3.68-.788 4.578-1.869l.275-1.3c-.625.55-1.538.769-2.144.769-.86 0-1.172-.603-.95-1.666l3.128-14.703z" fill="url(#prefix__paint1_linear_1146_508)"/><path d="M25 17.188a3.125 3.125 0 100-6.25 3.125 3.125 0 000 6.25z" fill="#000"/><path d="M25 17.188a3.125 3.125 0 100-6.25 3.125 3.125 0 000 6.25z" fill="url(#prefix__paint2_linear_1146_508)"/></g><defs><linearGradient id="prefix__paint0_linear_1146_508" x1="15.909" y1="-67.424" x2="75" y2="54.545" gradientUnits="userSpaceOnUse"><stop stop-color="#605ED0"/><stop offset=".541" stop-color="#4CC9F0"/><stop offset="1" stop-color="#7209B7"/></linearGradient><linearGradient id="prefix__paint1_linear_1146_508" x1="22.729" y1="-4.722" x2="50.541" y2="18.504" gradientUnits="userSpaceOnUse"><stop stop-color="#605ED0"/><stop offset=".541" stop-color="#4CC9F0"/><stop offset="1" stop-color="#7209B7"/></linearGradient><linearGradient id="prefix__paint2_linear_1146_508" x1="23.864" y1="2.509" x2="31.25" y2="17.756" gradientUnits="userSpaceOnUse"><stop stop-color="#605ED0"/><stop offset=".541" stop-color="#4CC9F0"/><stop offset="1" stop-color="#7209B7"/></linearGradient><clipPath id="prefix__clip0_1146_508"><path fill="#fff" d="M0 0h50v50H0z"/></clipPath><filter id="prefix__filter0_b_1146_508" x="-80" y="-80" width="210" height="210" filterUnits="userSpaceOnUse" color-interpolation-filters="sRGB"><feFlood flood-opacity="0" result="BackgroundImageFix"/><feGaussianBlur in="BackgroundImageFix" stdDeviation="40"/><feComposite in2="SourceAlpha" operator="in" result="effect1_backgroundBlur_1146_508"/><feBlend in="SourceGraphic" in2="effect1_backgroundBlur_1146_508" result="shape"/></filter></defs></svg>