<svg width="35" height="59" viewBox="0 0 35 59" fill="none" xmlns="http://www.w3.org/2000/svg">
<path d="M15.3498 8.79848e-09H30.6878C30.7529 -1.38953e-05 30.8169 0.0164518 30.8739 0.047861C30.9308 0.0792701 30.9789 0.1246 31.0136 0.17962C31.0484 0.23464 31.0686 0.297559 31.0724 0.362507C31.0762 0.427454 31.0636 0.492314 31.0355 0.551035L20.0684 23.7801C20.0418 23.8431 20.0324 23.912 20.0411 23.9798C20.0497 24.0477 20.0762 24.112 20.1177 24.1663C20.1593 24.2206 20.2145 24.263 20.2777 24.2891C20.3409 24.3153 20.4099 24.3242 20.4776 24.3151L27.8684 23.1729C27.943 23.1619 28.0191 23.1729 28.0874 23.2044C28.1558 23.236 28.2136 23.2868 28.2535 23.3506C28.2935 23.4145 28.3141 23.4886 28.3127 23.5639C28.3113 23.6392 28.288 23.7124 28.2456 23.7747L4.01614 58.7814C3.96386 58.8618 3.88349 58.9198 3.79074 58.944C3.698 58.9683 3.59954 58.9571 3.51461 58.9126C3.42969 58.8681 3.3644 58.7936 3.3315 58.7035C3.2986 58.6135 3.30046 58.5144 3.33671 58.4257L13.6913 30.8044C13.7161 30.7384 13.7223 30.6668 13.7092 30.5975C13.6961 30.5282 13.6642 30.4638 13.6171 30.4113C13.5699 30.3589 13.5092 30.3204 13.4416 30.3001C13.3741 30.2798 13.3022 30.2785 13.2339 30.2962L6.5814 32.0483C6.51552 32.0653 6.44634 32.0646 6.38078 32.0464C6.31522 32.0283 6.25561 31.9931 6.20791 31.9446C6.16021 31.8961 6.12611 31.8359 6.10904 31.7701C6.09196 31.7042 6.0925 31.635 6.11061 31.5694L14.978 0.272842C15.003 0.193784 15.0525 0.124731 15.1193 0.0756781C15.1862 0.0266257 15.2669 0.000120469 15.3498 8.79848e-09Z" fill="#199CFF"/>
<path d="M34.4998 34.0064L32.5284 36.9301C32.5003 36.9724 32.4642 37.0087 32.422 37.0368C32.3798 37.065 32.3325 37.0845 32.2827 37.0942C32.2329 37.1039 32.1817 37.1037 32.132 37.0934C32.0824 37.0831 32.0352 37.0631 31.9934 37.0344C30.646 36.0574 29.0273 35.5253 27.3631 35.5124C24.0221 35.5578 20.7854 37.7085 20.6356 41.7342V41.777C20.7854 45.7894 24.0221 47.9534 27.3631 47.9989C29.0266 47.9864 30.6445 47.4542 31.9907 46.4769C32.0327 46.4486 32.0798 46.4288 32.1294 46.4187C32.179 46.4087 32.2301 46.4085 32.2798 46.4182C32.3295 46.4278 32.3768 46.4472 32.419 46.4752C32.4612 46.5032 32.4974 46.5392 32.5257 46.5812L34.4971 49.5049C34.5525 49.5853 34.575 49.6838 34.5601 49.7803C34.5452 49.8768 34.4939 49.9639 34.4168 50.0238C32.3942 51.5756 29.9123 52.4095 27.3631 52.3938C20.847 52.3938 16.2461 47.5255 16.2461 41.7556C16.2461 35.9858 20.847 31.1175 27.3631 31.1175C29.916 31.0994 32.402 31.9335 34.4275 33.4875C34.5034 33.5485 34.553 33.6362 34.5665 33.7326C34.5799 33.829 34.556 33.9269 34.4998 34.0064Z" fill="#EFEEEE"/>
<path d="M14.4859 35.0895V31.5345C14.4859 31.4324 14.4453 31.3344 14.3731 31.2621C14.3008 31.1899 14.2029 31.1493 14.1007 31.1493L0.116211 31.1279V52.3802H14.098C14.2002 52.3802 14.2982 52.3396 14.3704 52.2674C14.4426 52.1951 14.4832 52.0972 14.4832 51.995V48.5176C14.4832 48.4155 14.4426 48.3175 14.3704 48.2452C14.2982 48.173 14.2002 48.1324 14.098 48.1324H5.36976C5.31895 48.1324 5.26864 48.1224 5.22174 48.1028C5.17483 48.0833 5.13225 48.0547 5.09644 48.0187C5.06064 47.9826 5.03232 47.9398 5.01312 47.8928C4.99392 47.8457 4.98422 47.7954 4.98457 47.7446V43.9729C4.98457 43.8708 5.02515 43.7728 5.09739 43.7005C5.16963 43.6283 5.2676 43.5877 5.36976 43.5877H13.7476C13.7984 43.5881 13.8488 43.5784 13.8958 43.5592C13.9429 43.54 13.9857 43.5117 14.0217 43.4759C14.0578 43.4401 14.0864 43.3975 14.1059 43.3506C14.1254 43.3037 14.1355 43.2533 14.1355 43.2025V40.0595C14.1366 40.0079 14.1273 39.9566 14.1083 39.9086C14.0893 39.8606 14.0609 39.8169 14.0248 39.78C13.9886 39.7432 13.9455 39.7139 13.8979 39.6939C13.8503 39.6739 13.7992 39.6636 13.7476 39.6636H5.36976C5.2676 39.6636 5.16963 39.623 5.09739 39.5508C5.02515 39.4786 4.98457 39.3806 4.98457 39.2784V35.8599C4.98457 35.7577 5.02515 35.6597 5.09739 35.5875C5.16963 35.5153 5.2676 35.4747 5.36976 35.4747H14.1007C14.2027 35.474 14.3002 35.4332 14.3723 35.3611C14.4444 35.289 14.4852 35.1914 14.4859 35.0895Z" fill="#EFEEEE"/>
<path d="M32.6536 10.4538V6.89879C32.6536 6.79663 32.6131 6.69865 32.5408 6.62642C32.4686 6.55418 32.3706 6.5136 32.2684 6.5136L18.2866 6.49487V27.7445H32.2684C32.3193 27.7445 32.3696 27.7344 32.4165 27.7149C32.4634 27.6954 32.506 27.6668 32.5418 27.6307C32.5776 27.5947 32.6059 27.5519 32.6251 27.5048C32.6443 27.4578 32.654 27.4074 32.6536 27.3566V23.8819C32.654 23.8311 32.6443 23.7807 32.6251 23.7336C32.6059 23.6866 32.5776 23.6438 32.5418 23.6078C32.506 23.5717 32.4634 23.5431 32.4165 23.5236C32.3696 23.5041 32.3193 23.494 32.2684 23.494H23.5375C23.4353 23.494 23.3374 23.4534 23.2651 23.3812C23.1929 23.309 23.1523 23.211 23.1523 23.1088V19.3345C23.1523 19.2323 23.1929 19.1344 23.2651 19.0621C23.3374 18.9899 23.4353 18.9493 23.5375 18.9493H31.91C32.0129 18.9493 32.1115 18.9085 32.1843 18.8357C32.257 18.763 32.2979 18.6643 32.2979 18.5615V15.4264C32.2944 15.3262 32.2519 15.2312 32.1795 15.1617C32.107 15.0923 32.0104 15.0539 31.91 15.0546H23.5375C23.4351 15.0539 23.3371 15.0127 23.265 14.9401C23.1928 14.8674 23.1523 14.7692 23.1523 14.6668V11.2268C23.1523 11.1247 23.1929 11.0267 23.2651 10.9544C23.3374 10.8822 23.4353 10.8416 23.5375 10.8416H32.2684C32.3193 10.8416 32.3696 10.8316 32.4165 10.812C32.4634 10.7925 32.506 10.7639 32.5418 10.7279C32.5776 10.6918 32.6059 10.649 32.6251 10.602C32.6443 10.5549 32.654 10.5046 32.6536 10.4538Z" fill="#EFEEEE"/>
<path d="M13.6113 6.49487H9.59895C9.49679 6.49487 9.39882 6.53545 9.32658 6.60769C9.25434 6.67993 9.21376 6.7779 9.21376 6.88006L9.17363 20.6051C9.17363 21.98 9.15223 23.8632 7.09789 23.8632C5.04355 23.8632 4.86968 21.9907 4.86968 20.7094H0.993718C0.893864 20.7108 0.798444 20.7509 0.727581 20.8212C0.656717 20.8916 0.61595 20.9867 0.613879 21.0866C0.59783 24.8315 2.34188 27.7498 7.34666 27.7498C12.6323 27.7498 13.9965 23.4887 13.9965 20.7709V6.87739C13.9958 6.77569 13.9549 6.6784 13.8828 6.60674C13.8106 6.53509 13.713 6.49487 13.6113 6.49487Z" fill="#EFEEEE"/>
</svg>
