<svg xmlns="http://www.w3.org/2000/svg" viewBox="0 0 358.56 218.77"><defs><style>.cls-1{fill:#efeeee;}.cls-2{fill:#199cff;isolation:isolate;}</style></defs><g id="Date_dark"><path class="cls-1" d="M91.1,29.42H66.53a1.45,1.45,0,0,0-1.45,1.45l-.17,68.8c0,6.85-.1,16.22-10.32,16.22-9.48,0-10.93-8-11.08-14.29a1.45,1.45,0,0,0-1.45-1.41H23.7a1.47,1.47,0,0,0-1.46,1.47c-.27,18.87,7.07,33.61,32.16,33.59,2.24,0,12.74,0,17.64-.05a1.46,1.46,0,0,0,1.33-.95L89.9,90.14a1.45,1.45,0,0,0-1.73-1.91L77.86,90.94a1.45,1.45,0,0,1-1.77-1.8L92.5,31.27A1.46,1.46,0,0,0,91.1,29.42Z"/><path class="cls-2" d="M162.09,135.25a1.46,1.46,0,0,0,1.46-1.46v-18.3A1.45,1.45,0,0,0,162.1,114H117.69a1.45,1.45,0,0,1-1.45-1.45V92.85a1.45,1.45,0,0,1,1.45-1.45h42.66A1.45,1.45,0,0,0,161.8,90V73.39a1.45,1.45,0,0,0-1.45-1.45H117.69a1.45,1.45,0,0,1-1.45-1.45v-18A1.45,1.45,0,0,1,117.69,51H162.1a1.45,1.45,0,0,0,1.45-1.45V30.94a1.45,1.45,0,0,0-1.45-1.45l-36.83-.07a1.46,1.46,0,0,0-1.31.83L103.28,74.1a1.45,1.45,0,0,0,1.53,2.05l11.32-1.74a1.45,1.45,0,0,1,1.41,2.26L77,135.18"/><path class="cls-1" d="M336.08,43.48,325.74,58.8a1.46,1.46,0,0,1-2.06.36,39.84,39.84,0,0,0-23.39-7.82c-16.64.22-32.76,10.95-33.5,31v.16c.74,20,16.86,30.78,33.5,31a39.91,39.91,0,0,0,23.39-7.82,1.44,1.44,0,0,1,2.05.35l10.35,15.33a1.45,1.45,0,0,1-.3,2,57.15,57.15,0,0,1-35.53,12.07c-32.44,0-55.35-24.25-55.35-53s22.91-53,55.35-53a57.09,57.09,0,0,1,35.53,12.07A1.45,1.45,0,0,1,336.08,43.48Z"/><path class="cls-1" d="M240.93,49.69V31.05a1.45,1.45,0,0,0-1.45-1.45l-68.64-.1A1.45,1.45,0,0,0,169.38,31V133.88a1.45,1.45,0,0,0,1.45,1.45l68.65,0a1.45,1.45,0,0,0,1.45-1.45V115.6a1.45,1.45,0,0,0-1.45-1.45H195.07a1.45,1.45,0,0,1-1.45-1.45V93a1.45,1.45,0,0,1,1.45-1.45h42.66a1.45,1.45,0,0,0,1.45-1.45V73.5a1.45,1.45,0,0,0-1.45-1.45H195.07a1.45,1.45,0,0,1-1.45-1.45v-18a1.45,1.45,0,0,1,1.45-1.45h44.41A1.45,1.45,0,0,0,240.93,49.69Z"/><path class="cls-1" d="M159.08,154.65l-4.51,4.64a.25.25,0,0,0,.18.43h5.84a.25.25,0,0,1,.25.25v3.09a.25.25,0,0,1-.25.25h-12a.25.25,0,0,1-.25-.25v-2.88a.28.28,0,0,1,.07-.17l7.87-8.1a2,2,0,0,0-1.5-3.35,2.69,2.69,0,0,0-2.52,1.88.25.25,0,0,1-.29.17l-3.17-.79a.26.26,0,0,1-.18-.33,6.29,6.29,0,0,1,6.11-4.67A5.77,5.77,0,0,1,159.08,154.65Z"/><path class="cls-1" d="M181.91,154.29a9.51,9.51,0,1,1-9.51-9.47A9.49,9.49,0,0,1,181.91,154.29Zm-15.27-1.36a5.93,5.93,0,0,0,7.12,7.11,5.85,5.85,0,0,0,4.4-4.4,5.92,5.92,0,0,0-11.52-2.71Z"/><path class="cls-1" d="M195.39,154.65l-4.52,4.65a.25.25,0,0,0,.18.42h5.85a.25.25,0,0,1,.25.25v3.09a.25.25,0,0,1-.25.25h-12a.25.25,0,0,1-.25-.25v-2.88a.28.28,0,0,1,.07-.17l7.87-8.1a2,2,0,0,0-1.5-3.35,2.69,2.69,0,0,0-2.52,1.88.25.25,0,0,1-.29.17l-3.17-.79a.26.26,0,0,1-.18-.33,6.28,6.28,0,0,1,6.1-4.67A5.77,5.77,0,0,1,195.39,154.65Z"/><path class="cls-1" d="M211.2,145.5v3.11a.25.25,0,0,1-.25.24h-5.49a.25.25,0,0,0-.24.25v2a5.57,5.57,0,0,1,1.23-.19,6.41,6.41,0,1,1,.07,12.8,9.33,9.33,0,0,1-6.44-2.53.24.24,0,0,1,0-.34L202,158.6a.24.24,0,0,1,.35,0,6.46,6.46,0,0,0,4.22,1.68,3,3,0,0,0,3.19-2.92,3.11,3.11,0,0,0-3.19-3.14,2.93,2.93,0,0,0-2,.74.28.28,0,0,1-.17.07h-2.28a.24.24,0,0,1-.24-.24V145.5a.24.24,0,0,1,.24-.24H211A.25.25,0,0,1,211.2,145.5Z"/><path class="cls-1" d="M139.67,159.78a2.79,2.79,0,0,0-2,.23.23.23,0,0,1-.28,0l-6.63-6.58a.23.23,0,0,0-.17-.07H22.48a.25.25,0,0,0-.25.24v1a.25.25,0,0,0,.25.25H130a.22.22,0,0,1,.17.07l6.19,6.14a.26.26,0,0,1,0,.29,2.79,2.79,0,0,0-.23,2,3,3,0,0,0,2.34,2.18,2.91,2.91,0,0,0,1.16-5.69ZM139,164a1.41,1.41,0,1,1,1.41-1.41A1.41,1.41,0,0,1,139,164Z"/><path class="cls-1" d="M228.39,153.24l-6.18-6.14a.26.26,0,0,1-.05-.29,2.77,2.77,0,0,0,.23-2,2.94,2.94,0,0,0-2.33-2.19,2.91,2.91,0,0,0-3.35,3.36,2.94,2.94,0,0,0,2.19,2.33,2.77,2.77,0,0,0,2-.23.24.24,0,0,1,.29,0l6.62,6.58a.25.25,0,0,0,.18.08H336.08a.25.25,0,0,0,.25-.25v-1a.25.25,0,0,0-.25-.24H228.57A.25.25,0,0,1,228.39,153.24Zm-10.22-7.71a1.41,1.41,0,1,1,1.4,1.4A1.41,1.41,0,0,1,218.17,145.53Z"/><path class="cls-1" d="M212.29,174v2.38a.25.25,0,0,1-.25.24h-3.63a.25.25,0,0,0-.25.25v10.6a.25.25,0,0,1-.24.25h-2.44a.25.25,0,0,1-.25-.25v-10.6a.25.25,0,0,0-.25-.25h-3.63a.25.25,0,0,1-.25-.24V174a.25.25,0,0,1,.25-.25H212A.25.25,0,0,1,212.29,174Z"/><path class="cls-1" d="M223.13,174v2.36a.25.25,0,0,1-.25.25H217a.25.25,0,0,0-.25.24v2.33a.25.25,0,0,0,.25.25h5.65a.24.24,0,0,1,.24.24v2.13a.25.25,0,0,1-.24.25H217a.25.25,0,0,0-.25.25v2.32a.25.25,0,0,0,.25.25h5.88a.25.25,0,0,1,.25.24v2.36a.25.25,0,0,1-.25.25h-8.73a.25.25,0,0,1-.25-.25V174a.25.25,0,0,1,.25-.24h8.73A.25.25,0,0,1,223.13,174Z"/><path class="cls-1" d="M237.31,175.35l-1.38,2a.24.24,0,0,1-.34.06,5.55,5.55,0,0,0-3.2-1.06,4.31,4.31,0,1,0,0,8.59,5.54,5.54,0,0,0,3.2-1,.23.23,0,0,1,.34.06l1.38,2a.26.26,0,0,1-.05.34,7.93,7.93,0,0,1-4.87,1.64,7.33,7.33,0,1,1,0-14.64,7.87,7.87,0,0,1,4.87,1.64A.26.26,0,0,1,237.31,175.35Z"/><path class="cls-1" d="M241.49,174V179a.25.25,0,0,0,.25.24h4.82a.25.25,0,0,0,.25-.24V174a.25.25,0,0,1,.24-.25h2.36a.25.25,0,0,1,.24.25v13.47a.25.25,0,0,1-.24.25h-2.36a.25.25,0,0,1-.24-.25v-5.06a.25.25,0,0,0-.25-.25h-4.82a.25.25,0,0,0-.25.25v5.06a.25.25,0,0,1-.25.25h-2.35a.25.25,0,0,1-.25-.25V174a.25.25,0,0,1,.25-.25h2.35A.25.25,0,0,1,241.49,174Z"/><path class="cls-1" d="M266.48,174v2.38a.24.24,0,0,1-.24.24H262.6a.25.25,0,0,0-.24.25v10.6a.25.25,0,0,1-.25.25h-2.44a.25.25,0,0,1-.25-.25v-10.6a.25.25,0,0,0-.25-.25h-3.63a.24.24,0,0,1-.24-.24V174a.25.25,0,0,1,.24-.25h10.7A.25.25,0,0,1,266.48,174Z"/><path class="cls-1" d="M275.18,173.87l4.91,13.47a.25.25,0,0,1-.23.33h-2.49a.23.23,0,0,1-.23-.16l-1-2.67a.25.25,0,0,0-.23-.17H271.3a.26.26,0,0,0-.23.17l-1,2.67a.25.25,0,0,1-.24.16h-2.49a.25.25,0,0,1-.23-.33l4.91-13.47a.24.24,0,0,1,.23-.17H275A.24.24,0,0,1,275.18,173.87Zm-2.66,7.95h2.19a.25.25,0,0,0,.23-.33l-1.09-3a.25.25,0,0,0-.47,0l-1.09,3A.25.25,0,0,0,272.52,181.82Z"/><path class="cls-1" d="M284.21,174v10.62a.25.25,0,0,0,.24.25h5.85a.25.25,0,0,1,.25.24v2.36a.25.25,0,0,1-.25.25h-8.78a.25.25,0,0,1-.25-.25V174a.25.25,0,0,1,.25-.25H284A.25.25,0,0,1,284.21,174Z"/><path class="cls-1" d="M295,174v6.62a.25.25,0,0,0,.44.16l5.51-6.93a.26.26,0,0,1,.19-.1h3a.25.25,0,0,1,.19.4l-5.12,6.45a.24.24,0,0,0,0,.3l5.12,6.42a.25.25,0,0,1-.2.4h-3a.25.25,0,0,1-.19-.09l-3.46-4.37a.26.26,0,0,0-.39,0l-2,2.56a.27.27,0,0,0-.05.15v1.5a.25.25,0,0,1-.25.25H292.4a.25.25,0,0,1-.24-.25V174a.25.25,0,0,1,.24-.25h2.34A.25.25,0,0,1,295,174Z"/><path class="cls-1" d="M314,174.88l-1.32,1.91a.24.24,0,0,1-.32.08,4.33,4.33,0,0,0-2.2-.66c-.78,0-1.66.44-1.66,1.29s1.48,1.29,2.24,1.53c2.32.63,4.25,2.05,4.25,4.42h0a4.68,4.68,0,0,1-4.93,4.54,7.76,7.76,0,0,1-4.76-1.67.25.25,0,0,1-.07-.32l1.21-2.05a.24.24,0,0,1,.35-.07,5.68,5.68,0,0,0,3.24,1.2c1,0,2.05-.48,2.05-1.63s-1.53-1.51-2.49-1.8c-2-.54-4-1.75-4-4.17a4.39,4.39,0,0,1,4.58-4.13,6.56,6.56,0,0,1,3.77,1.16A.25.25,0,0,1,314,174.88Z"/><path class="cls-1" d="M55.77,174v2.37a.24.24,0,0,1-.24.24H49.64a.25.25,0,0,0-.25.24v2.34a.25.25,0,0,0,.25.24h5.65a.24.24,0,0,1,.24.24v2.14a.24.24,0,0,1-.24.24H49.64a.25.25,0,0,0-.25.24v2.34a.25.25,0,0,0,.25.24h5.89a.24.24,0,0,1,.24.24v2.37a.24.24,0,0,1-.24.24H46.79a.24.24,0,0,1-.24-.24V174a.24.24,0,0,1,.24-.24h8.74A.24.24,0,0,1,55.77,174Z"/><path class="cls-1" d="M60,173.8l5.92,7.8a.25.25,0,0,0,.44-.15V174a.24.24,0,0,1,.24-.25H69a.24.24,0,0,1,.24.25v13.48a.24.24,0,0,1-.24.24H66.78a.26.26,0,0,1-.2-.1l-5.92-7.79a.24.24,0,0,0-.43.14v7.51a.24.24,0,0,1-.24.24H57.62a.24.24,0,0,1-.24-.24V174a.25.25,0,0,1,.24-.25h2.19A.26.26,0,0,1,60,173.8Zm-2.62,13.87"/><path class="cls-1" d="M83.36,175.34,82.25,177c-.16.23-.31.25-.41.18a6.34,6.34,0,0,0-3.65-1,4.57,4.57,0,0,0,0,9.14,6.16,6.16,0,0,0,3.24-.82.25.25,0,0,0,.13-.22v-1.6a.24.24,0,0,0-.24-.24H80a.24.24,0,0,1-.24-.24v-2.28a.24.24,0,0,1,.24-.24h4a.24.24,0,0,1,.24.24v5.76a.25.25,0,0,1-.09.19,8.28,8.28,0,0,1-5.9,2.2,7.32,7.32,0,1,1,0-14.64,9.13,9.13,0,0,1,5.1,1.63A.25.25,0,0,1,83.36,175.34Z"/><path class="cls-1" d="M88.63,174v13.48a.24.24,0,0,1-.24.24H86a.24.24,0,0,1-.24-.24V174a.25.25,0,0,1,.24-.25h2.37A.25.25,0,0,1,88.63,174Z"/><path class="cls-1" d="M92.85,173.8l5.92,7.8a.24.24,0,0,0,.43-.15V174a.25.25,0,0,1,.25-.25h2.36a.25.25,0,0,1,.24.25v13.48a.24.24,0,0,1-.24.24H99.63a.26.26,0,0,1-.2-.1l-5.92-7.79a.24.24,0,0,0-.43.14v7.51a.24.24,0,0,1-.24.24H90.47a.24.24,0,0,1-.24-.24V174a.25.25,0,0,1,.24-.25h2.19A.26.26,0,0,1,92.85,173.8Zm-2.62,13.87"/><path class="cls-1" d="M112.87,174v2.37a.24.24,0,0,1-.24.24h-5.89a.24.24,0,0,0-.24.24v2.34a.24.24,0,0,0,.24.24h5.66a.24.24,0,0,1,.24.24v2.14a.24.24,0,0,1-.24.24h-5.66a.24.24,0,0,0-.24.24v2.34a.24.24,0,0,0,.24.24h5.89a.24.24,0,0,1,.24.24v2.37a.24.24,0,0,1-.24.24h-8.74a.24.24,0,0,1-.24-.24V174a.24.24,0,0,1,.24-.24h8.74A.24.24,0,0,1,112.87,174Z"/><path class="cls-1" d="M123.71,174v2.37a.24.24,0,0,1-.24.24h-5.9a.24.24,0,0,0-.24.24v2.34a.24.24,0,0,0,.24.24h5.66a.24.24,0,0,1,.24.24v2.14a.24.24,0,0,1-.24.24h-5.66a.24.24,0,0,0-.24.24v2.34a.24.24,0,0,0,.24.24h5.9a.24.24,0,0,1,.24.24v2.37a.24.24,0,0,1-.24.24h-8.75a.24.24,0,0,1-.24-.24V174a.24.24,0,0,1,.24-.24h8.75A.24.24,0,0,1,123.71,174Z"/><path class="cls-1" d="M130.43,173.7a5.4,5.4,0,0,1,5.26,5.49,5.53,5.53,0,0,1-2.86,4.87.25.25,0,0,0-.06.39l2.85,2.81a.24.24,0,0,1-.17.41h-3.09a.28.28,0,0,1-.17-.07l-3-2.93h-1.07v2.76a.25.25,0,0,1-.25.24h-2.34a.25.25,0,0,1-.25-.24V174a.25.25,0,0,1,.25-.25Zm-2.28,7.9a.24.24,0,0,0,.24.24h2a2.66,2.66,0,0,0,0-5.3h-2a.24.24,0,0,0-.24.24Z"/><path class="cls-1" d="M140.1,174v13.48a.24.24,0,0,1-.24.24h-2.37a.24.24,0,0,1-.24-.24V174a.25.25,0,0,1,.24-.25h2.37A.25.25,0,0,1,140.1,174Z"/><path class="cls-1" d="M144.32,173.8l5.92,7.8a.24.24,0,0,0,.43-.15V174a.25.25,0,0,1,.25-.25h2.36a.25.25,0,0,1,.24.25v13.48a.24.24,0,0,1-.24.24H151.1a.26.26,0,0,1-.2-.1L145,179.78a.24.24,0,0,0-.43.14v7.51a.24.24,0,0,1-.24.24h-2.37a.24.24,0,0,1-.24-.24V174a.25.25,0,0,1,.24-.25h2.19A.26.26,0,0,1,144.32,173.8Zm-2.62,13.87"/><path class="cls-1" d="M167.68,175.34,166.57,177c-.16.23-.31.25-.42.18a6.29,6.29,0,0,0-3.64-1,4.57,4.57,0,0,0,0,9.14,6.16,6.16,0,0,0,3.24-.82.25.25,0,0,0,.13-.22v-1.6a.24.24,0,0,0-.24-.24h-1.37a.24.24,0,0,1-.24-.24v-2.28a.24.24,0,0,1,.24-.24h4a.24.24,0,0,1,.24.24v5.76a.25.25,0,0,1-.09.19,8.28,8.28,0,0,1-5.9,2.2,7.32,7.32,0,1,1,0-14.64,9.13,9.13,0,0,1,5.1,1.63A.25.25,0,0,1,167.68,175.34Z"/><path class="cls-1" d="M193.29,189.09a.18.18,0,0,1-.09.16,2.11,2.11,0,0,1-1.14.08,5.52,5.52,0,0,1-2.18-1.1,11.12,11.12,0,0,1-.79-.85c-.28-.32-.55-.66-.84-1s-.49-.62-.71-.92a.16.16,0,0,0-.23,0,5,5,0,0,1-1.67.69,9.94,9.94,0,0,1-2,.19,4.79,4.79,0,0,1-1.59-.27,4.54,4.54,0,0,1-1.38-.76,3.6,3.6,0,0,1-1-1.2,3.38,3.38,0,0,1-.37-1.59,4,4,0,0,1,.24-1.45,5.28,5.28,0,0,1,.63-1.2,5.87,5.87,0,0,1,.88-1,7.76,7.76,0,0,1,1-.77c-.25-.31-.46-.58-.63-.82a7.31,7.31,0,0,1-.43-.7,3.12,3.12,0,0,1-.26-.66,3.34,3.34,0,0,1-.08-.7,2.92,2.92,0,0,1,.31-1.33,2.87,2.87,0,0,1,.82-1,4,4,0,0,1,1.21-.6,5,5,0,0,1,1.43-.21,4.14,4.14,0,0,1,1.44.23A3.15,3.15,0,0,1,187,173a2.61,2.61,0,0,1,.67.94,3.1,3.1,0,0,1,.22,1.12,3.07,3.07,0,0,1-.22,1.16,4,4,0,0,1-.58,1,5.7,5.7,0,0,1-.82.81,7.88,7.88,0,0,1-.74.55.19.19,0,0,0-.05.26l2.27,3.19a.19.19,0,0,0,.29,0,5.3,5.3,0,0,0,.73-1.26,5.09,5.09,0,0,0,.32-1.48.18.18,0,0,1,.18-.17h2a.19.19,0,0,1,.18.22,12.78,12.78,0,0,1-.68,2.34,6.73,6.73,0,0,1-1.46,2.12.18.18,0,0,0,0,.23,35.48,35.48,0,0,0,2.22,3.1,1.93,1.93,0,0,0,1.57.55.19.19,0,0,1,.21.17Zm-9.92-9.28-.64.51a2.38,2.38,0,0,0-.44.51,2.21,2.21,0,0,0-.26.64,3.53,3.53,0,0,0-.1.85,1.88,1.88,0,0,0,.18.81,1.72,1.72,0,0,0,.47.6,2.8,2.8,0,0,0,.67.39,2.12,2.12,0,0,0,.75.14,4.32,4.32,0,0,0,2-.46.19.19,0,0,0,.06-.28Zm2.12-4.7a1.31,1.31,0,0,0-.24-.84,1.07,1.07,0,0,0-.86-.3,1.16,1.16,0,0,0-.95.34,1.22,1.22,0,0,0-.28.82,1,1,0,0,0,.12.41,3.53,3.53,0,0,0,.28.5l.32.49c.11.15.2.28.28.37a3.3,3.3,0,0,0,.92-.74,1.57,1.57,0,0,0,.41-1Z"/></g></svg>