<svg width="289" height="126" viewBox="0 0 289 126" fill="none" xmlns="http://www.w3.org/2000/svg">
<path d="M68.0493 4.87737V14.9152C68.0492 15.0552 67.9935 15.1894 67.8945 15.2884C67.7955 15.3873 67.6613 15.443 67.5213 15.4432H58.1958C58.0709 15.4424 57.9499 15.4868 57.8551 15.568C57.7602 15.6492 57.6978 15.7619 57.6794 15.8854C57.6714 15.9135 57.6675 15.9425 57.6677 15.9717V72.0526C57.6675 72.0832 57.6714 72.1137 57.6794 72.1433C57.6579 72.2656 57.5941 72.3765 57.499 72.4565C57.404 72.5364 57.2838 72.5804 57.1596 72.5806H47.0777C47.0418 72.5806 47.006 72.5765 46.971 72.5684H6.72183C6.65219 72.5686 6.58319 72.5551 6.51882 72.5285C6.45445 72.5019 6.39598 72.4628 6.34679 72.4135C6.2976 72.3643 6.25865 72.3057 6.2322 72.2413C6.20575 72.1769 6.19232 72.1078 6.19269 72.0382V61.7787C6.19153 61.6961 6.21172 61.6146 6.2513 61.5421V49.9789C6.25115 49.8385 6.30661 49.7037 6.40556 49.6041C6.50451 49.5044 6.63889 49.448 6.77934 49.4471H17.0719C17.2124 49.448 17.3467 49.5044 17.4457 49.6041C17.5446 49.7037 17.6001 49.8385 17.6 49.9789V60.7255C17.6 60.8655 17.6556 60.9998 17.7546 61.0988C17.8536 61.1979 17.9879 61.2535 18.128 61.2535H46.0216C46.1616 61.2533 46.2958 61.1977 46.3948 61.0987C46.4938 60.9997 46.5495 60.8655 46.5497 60.7255V15.9706C46.5495 15.8307 46.4938 15.6965 46.3948 15.5976C46.2958 15.4987 46.1616 15.4432 46.0216 15.4432H36.7752C36.6347 15.4433 36.4999 15.3878 36.4002 15.2889C36.3006 15.19 36.2441 15.0556 36.2433 14.9152V4.87737C36.2441 4.73694 36.3006 4.60256 36.4002 4.50363C36.4999 4.40469 36.6347 4.34923 36.7752 4.34938H67.5213C67.6613 4.34953 67.7955 4.4052 67.8945 4.50419C67.9935 4.60317 68.0492 4.73738 68.0493 4.87737Z" fill="white"/>
<path d="M140.148 50.0116V72.0155C140.148 72.1556 140.092 72.2899 139.993 72.3889C139.894 72.4879 139.76 72.5435 139.62 72.5435H78.0837C77.9443 72.5427 77.811 72.4866 77.7129 72.3877C77.6147 72.2887 77.5598 72.1549 77.5601 72.0155V62.0071C77.5598 61.8677 77.6147 61.7339 77.7129 61.6349C77.811 61.536 77.9443 61.4799 78.0837 61.4791H89.7022V15.9706C89.7022 15.8307 89.6466 15.6966 89.5477 15.5976C89.4488 15.4987 89.3146 15.4432 89.1747 15.4432H78.0721C77.9321 15.443 77.7979 15.3873 77.6989 15.2884C77.5999 15.1894 77.5442 15.0552 77.5441 14.9152V4.8735C77.5449 4.73409 77.601 4.60071 77.6999 4.50249C77.7989 4.40428 77.9327 4.34923 78.0721 4.34938H139.225C139.364 4.34923 139.498 4.4043 139.597 4.50253C139.696 4.60075 139.752 4.73414 139.752 4.8735V26.5928C139.752 26.7327 139.697 26.8669 139.598 26.9659C139.499 27.0649 139.365 27.1206 139.225 27.1208H129.266C129.126 27.1206 128.992 27.0649 128.893 26.9659C128.794 26.8669 128.738 26.7327 128.738 26.5928V15.9706C128.738 15.8312 128.683 15.6975 128.585 15.5986C128.487 15.4998 128.353 15.4439 128.214 15.4432H101.35C101.21 15.4432 101.076 15.4987 100.977 15.5976C100.878 15.6965 100.822 15.8307 100.822 15.9706V30.716C100.822 30.856 100.878 30.9902 100.977 31.0892C101.076 31.1882 101.21 31.2439 101.35 31.244H118.38C118.449 31.244 118.518 31.2577 118.582 31.2842C118.646 31.3108 118.704 31.3497 118.753 31.3987C118.802 31.4477 118.841 31.5059 118.867 31.57C118.894 31.6341 118.907 31.7027 118.907 31.772V41.7789C118.907 41.9187 118.852 42.0529 118.753 42.1518C118.654 42.2507 118.52 42.3063 118.38 42.3063H104.063V42.3223H101.35C101.21 42.3223 101.076 42.3779 100.977 42.477C100.878 42.576 100.822 42.7103 100.822 42.8503V60.9516C100.822 61.0914 100.878 61.2254 100.977 61.3241C101.076 61.4228 101.21 61.4784 101.35 61.4785H128.609C128.748 61.4778 128.882 61.4218 128.98 61.3228C129.078 61.2239 129.133 61.09 129.133 60.9505V50.0116C129.133 49.9422 129.146 49.8734 129.172 49.8092C129.199 49.745 129.237 49.6866 129.286 49.6374C129.335 49.5881 129.393 49.549 129.457 49.5222C129.521 49.4955 129.59 49.4816 129.659 49.4814H139.619C139.689 49.4812 139.758 49.4948 139.822 49.5215C139.886 49.5481 139.945 49.5871 139.994 49.6364C140.043 49.6857 140.082 49.7442 140.108 49.8086C140.135 49.873 140.148 49.942 140.148 50.0116Z" fill="#1A9CD8"/>
<path d="M212.343 50.0116V72.0155C212.343 72.1556 212.287 72.2899 212.188 72.3889C212.089 72.4879 211.955 72.5435 211.815 72.5435H150.279C150.139 72.5427 150.006 72.4866 149.908 72.3877C149.81 72.2887 149.755 72.1549 149.755 72.0155V62.0071C149.755 61.8677 149.81 61.7339 149.908 61.6349C150.006 61.536 150.139 61.4799 150.279 61.4791H161.897V15.9706C161.897 15.9013 161.884 15.8327 161.857 15.7688C161.831 15.7048 161.792 15.6466 161.743 15.5976C161.694 15.5487 161.636 15.5098 161.572 15.4833C161.508 15.4568 161.439 15.4432 161.37 15.4432H150.267C150.127 15.443 149.993 15.3873 149.894 15.2884C149.795 15.1894 149.739 15.0552 149.739 14.9152V4.8735C149.74 4.73409 149.796 4.60071 149.895 4.50249C149.994 4.40428 150.128 4.34923 150.267 4.34938H211.42C211.559 4.34923 211.693 4.40428 211.792 4.50249C211.891 4.60071 211.947 4.73409 211.948 4.8735V26.5928C211.948 26.7328 211.892 26.867 211.793 26.966C211.694 27.0649 211.56 27.1206 211.42 27.1208H201.461C201.321 27.1208 201.187 27.0651 201.088 26.9661C200.989 26.8671 200.933 26.7328 200.933 26.5928V15.9706C200.933 15.8312 200.878 15.6975 200.78 15.5986C200.682 15.4998 200.549 15.4439 200.409 15.4432H173.543C173.474 15.4432 173.406 15.4568 173.342 15.4833C173.278 15.5098 173.219 15.5487 173.17 15.5976C173.121 15.6466 173.083 15.7048 173.056 15.7688C173.03 15.8327 173.016 15.9013 173.016 15.9706V30.716C173.016 30.856 173.071 30.9902 173.17 31.0892C173.269 31.1882 173.403 31.2439 173.543 31.244H190.573C190.713 31.244 190.848 31.2996 190.947 31.3987C191.046 31.4977 191.101 31.632 191.101 31.772V41.7789C191.101 41.9188 191.046 42.0529 190.946 42.1518C190.847 42.2507 190.713 42.3063 190.573 42.3063H176.258V42.3223H173.543C173.474 42.3223 173.405 42.336 173.341 42.3625C173.277 42.3891 173.219 42.428 173.17 42.477C173.121 42.526 173.082 42.5842 173.056 42.6483C173.029 42.7123 173.016 42.781 173.016 42.8503V60.9516C173.016 61.0916 173.071 61.2258 173.17 61.3248C173.269 61.4238 173.403 61.4795 173.543 61.4796H200.802C200.942 61.4787 201.075 61.4227 201.173 61.3237C201.271 61.2248 201.326 61.091 201.326 60.9516V50.0116C201.326 49.8715 201.382 49.7372 201.481 49.6382C201.58 49.5392 201.714 49.4836 201.854 49.4836H211.814C211.883 49.4833 211.952 49.4968 212.016 49.5233C212.08 49.5497 212.139 49.5886 212.188 49.6377C212.237 49.6867 212.276 49.745 212.303 49.8092C212.329 49.8733 212.343 49.9421 212.343 50.0116Z" fill="white"/>
<path d="M282.296 50.0547V72.0587C282.295 72.1974 282.24 72.3303 282.142 72.4284C282.044 72.5266 281.911 72.5821 281.772 72.5828H222.474C222.335 72.5821 222.202 72.5266 222.104 72.4285C222.006 72.3303 221.951 72.1975 221.95 72.0587V62.0131C221.95 61.9648 221.958 61.9168 221.974 61.871V12.9426C221.973 12.9306 221.974 12.9187 221.977 12.9072V4.8735C221.978 4.73472 222.034 4.60183 222.132 4.50369C222.23 4.40556 222.363 4.35011 222.502 4.34938H280.334C280.473 4.35011 280.606 4.40556 280.704 4.50369C280.802 4.60183 280.858 4.73472 280.858 4.8735V26.6348C280.858 26.7736 280.802 26.9065 280.704 27.0046C280.606 27.1027 280.473 27.1582 280.334 27.1589H270.366C270.227 27.1582 270.095 27.1027 269.996 27.0046C269.898 26.9064 269.843 26.7735 269.842 26.6348V15.9645C269.842 15.8258 269.786 15.6929 269.688 15.5949C269.59 15.4969 269.457 15.4415 269.318 15.4409H233.612C233.473 15.4415 233.34 15.4969 233.242 15.5949C233.144 15.6929 233.088 15.8258 233.088 15.9645V60.961C233.088 61.0998 233.144 61.2326 233.242 61.3306C233.34 61.4287 233.473 61.484 233.612 61.4846H270.756C270.895 61.484 271.028 61.4287 271.126 61.3306C271.224 61.2326 271.28 61.0998 271.281 60.961V50.0547C271.281 49.9859 271.294 49.9177 271.32 49.8541C271.347 49.7906 271.385 49.7328 271.434 49.6841C271.482 49.6354 271.54 49.5968 271.604 49.5705C271.667 49.5441 271.735 49.5306 271.804 49.5306H281.772C281.841 49.5306 281.909 49.5441 281.973 49.5705C282.036 49.5968 282.094 49.6354 282.143 49.6841C282.191 49.7328 282.23 49.7906 282.256 49.8541C282.282 49.9177 282.296 49.9859 282.296 50.0547Z" fill="white"/>
<path d="M14.6529 117.356V118.987H8.10911V108.602H14.3062V110.233H10.0117V112.897H13.7268V114.527H10.0117V117.356H14.6529Z" fill="#1A9CD8"/>
<path d="M28.9862 108.586V118.987H27.0477L21.7015 111.573V118.987H19.873V108.602H21.7761L27.1577 116.052V108.586H28.9862Z" fill="#1A9CD8"/>
<path d="M43.2521 113.298V118.605C42.9131 118.704 42.6438 118.779 42.4365 118.834C42.2292 118.89 42.0069 118.94 41.7625 118.988C41.4773 119.053 41.1877 119.098 40.8961 119.122C40.5687 119.153 40.1773 119.169 39.7178 119.169C38.8118 119.169 38.0008 119.03 37.285 118.751C36.6079 118.497 35.9908 118.105 35.4725 117.601C34.9791 117.113 34.5945 116.527 34.344 115.88C34.0813 115.202 33.95 114.48 33.9569 113.753C33.9602 112.366 34.5111 111.037 35.4896 110.054C35.9923 109.547 36.5892 109.145 37.2468 108.868C37.9591 108.566 38.7262 108.414 39.4999 108.423C39.9019 108.423 40.2525 108.434 40.5599 108.458C40.8469 108.48 41.1324 108.52 41.4147 108.576C41.6755 108.631 41.9323 108.704 42.1833 108.793C42.4393 108.884 42.7152 108.99 43.0182 109.112L42.87 110.96C42.2159 110.609 41.6326 110.373 41.1206 110.241C40.5957 110.114 40.0573 110.05 39.5171 110.052C39.0444 110.047 38.5756 110.137 38.1381 110.316C37.721 110.487 37.3442 110.743 37.0323 111.068C36.7104 111.403 36.461 111.8 36.2997 112.235C36.1174 112.719 36.0277 113.234 36.0354 113.751C36.0354 114.354 36.1338 114.89 36.335 115.362C36.5128 115.805 36.782 116.205 37.125 116.536C37.468 116.867 37.8771 117.122 38.3256 117.285C38.7928 117.454 39.2865 117.54 39.7836 117.537C40.0593 117.54 40.3348 117.519 40.6069 117.474C40.8569 117.43 41.1032 117.367 41.3434 117.285V114.945H39.4817V113.298H43.2521Z" fill="#1A9CD8"/>
<path d="M50.6435 108.602H48.7403V118.987H50.6435V108.602Z" fill="#1A9CD8"/>
<path d="M65.5435 108.586V118.987H63.6011L58.2549 111.573V118.987H56.4264V108.602H58.3296L63.7117 116.052V108.586H65.5435Z" fill="#1A9CD8"/>
<path d="M77.9024 117.356V118.987H71.3586V108.602H77.5557V110.233H73.2617V112.897H76.9768V114.527H73.2617V117.356H77.9024Z" fill="#1A9CD8"/>
<path d="M89.6436 117.356V118.987H83.1031V108.602H89.3008V110.233H85.0063V112.897H88.7213V114.527H85.0063V117.356H89.6436Z" fill="#1A9CD8"/>
<path d="M101.737 117.781C101.469 117.415 101.221 117.052 100.984 116.702C100.748 116.351 100.519 116.005 100.303 115.651C100.086 115.298 99.8604 114.927 99.6331 114.525C100.258 114.344 100.809 113.97 101.209 113.458C101.623 112.937 101.827 112.327 101.827 111.626C101.827 111.073 101.725 110.597 101.516 110.204C101.318 109.821 101.035 109.489 100.687 109.234C100.314 108.971 99.8921 108.783 99.4463 108.682C98.944 108.564 98.4295 108.505 97.9136 108.508C97.3931 108.508 96.877 108.524 96.3654 108.555C95.8495 108.583 95.3337 108.618 94.8172 108.654V118.983H96.7204V114.781H97.4945C97.7389 115.203 97.9595 115.585 98.1646 115.931C98.3697 116.278 98.5782 116.609 98.7911 116.936C99.0039 117.263 99.2162 117.59 99.433 117.917C99.6497 118.244 99.9019 118.598 100.178 118.985H102.644C102.302 118.553 101.999 118.152 101.737 117.781ZM99.3257 112.762C99.0338 113.046 98.4864 113.188 97.6747 113.188H96.7176V110.198L97.6576 110.178H97.803C98.477 110.178 98.9735 110.3 99.2887 110.541C99.6038 110.781 99.7576 111.127 99.7576 111.573C99.757 112.081 99.611 112.479 99.3235 112.762H99.3257Z" fill="#1A9CD8"/>
<path d="M108.819 108.602H106.916V118.987H108.819V108.602Z" fill="#1A9CD8"/>
<path d="M123.715 108.586V118.987H121.776L116.43 111.573V118.987H114.602V108.602H116.505L121.886 116.052V108.586H123.715Z" fill="#1A9CD8"/>
<path d="M137.981 113.298V118.605C137.642 118.704 137.373 118.779 137.165 118.834C136.958 118.89 136.736 118.94 136.492 118.988C136.206 119.053 135.917 119.098 135.625 119.122C135.298 119.153 134.906 119.169 134.447 119.169C133.541 119.169 132.73 119.03 132.014 118.751C131.337 118.497 130.72 118.105 130.201 117.601C129.707 117.113 129.322 116.527 129.071 115.88C128.808 115.202 128.677 114.48 128.683 113.752C128.681 113.068 128.816 112.39 129.082 111.759C129.343 111.122 129.727 110.542 130.212 110.053C130.717 109.548 131.315 109.145 131.973 108.867C132.686 108.565 133.453 108.414 134.227 108.422C134.628 108.422 134.979 108.434 135.286 108.458C135.573 108.48 135.859 108.519 136.141 108.576C136.402 108.631 136.659 108.703 136.91 108.793C137.166 108.883 137.442 108.989 137.745 109.112L137.599 110.959C136.945 110.609 136.362 110.372 135.85 110.241C135.325 110.113 134.787 110.05 134.246 110.052C133.774 110.047 133.305 110.136 132.867 110.315C132.45 110.486 132.074 110.742 131.762 111.068C131.44 111.403 131.189 111.8 131.025 112.234C130.846 112.719 130.758 113.234 130.765 113.751C130.765 114.353 130.863 114.889 131.064 115.362C131.242 115.805 131.512 116.205 131.856 116.536C132.199 116.867 132.609 117.122 133.058 117.284C133.525 117.454 134.019 117.539 134.516 117.536C134.791 117.539 135.067 117.518 135.339 117.473C135.589 117.429 135.835 117.366 136.075 117.284V114.944H134.208V113.297L137.981 113.298Z" fill="#1A9CD8"/>
<path d="M160.125 121.65C159.884 121.65 159.666 121.644 159.473 121.632C159.294 121.622 159.115 121.6 158.939 121.569C158.778 121.539 158.621 121.497 158.467 121.442C158.298 121.379 158.137 121.296 157.987 121.197C157.799 121.078 157.626 120.939 157.47 120.78C157.271 120.587 157.065 120.366 156.854 120.117C156.643 119.868 156.426 119.606 156.202 119.329C155.978 119.051 155.77 118.779 155.576 118.513C155.154 118.811 154.677 119.02 154.172 119.13C153.668 119.229 153.155 119.277 152.64 119.274C152.221 119.275 151.804 119.204 151.408 119.066C151.018 118.932 150.653 118.733 150.33 118.477C150.01 118.224 149.747 117.906 149.56 117.543C149.363 117.16 149.263 116.733 149.27 116.302C149.266 115.916 149.33 115.533 149.46 115.17C149.58 114.838 149.745 114.524 149.949 114.237C150.149 113.958 150.38 113.702 150.638 113.475C150.889 113.253 151.159 113.052 151.444 112.877C151.252 112.635 151.089 112.421 150.956 112.234C150.831 112.061 150.719 111.879 150.62 111.691C150.534 111.527 150.467 111.353 150.42 111.174C150.377 110.996 150.356 110.813 150.357 110.63C150.351 110.272 150.431 109.918 150.592 109.598C150.747 109.299 150.967 109.038 151.236 108.836C151.52 108.625 151.838 108.466 152.176 108.365C152.538 108.256 152.913 108.201 153.291 108.202C153.673 108.196 154.053 108.257 154.414 108.383C154.722 108.493 155.005 108.662 155.248 108.881C155.472 109.084 155.648 109.335 155.765 109.614C155.879 109.89 155.937 110.186 155.937 110.484C155.94 110.795 155.881 111.102 155.765 111.39C155.652 111.665 155.499 111.921 155.311 112.151C155.122 112.383 154.909 112.596 154.677 112.785C154.455 112.969 154.222 113.138 153.98 113.293L155.937 116.047C156.226 115.713 156.459 115.334 156.626 114.924C156.778 114.511 156.864 114.077 156.88 113.637H155.663V112.421H159.832V113.637H158.726C158.608 114.32 158.42 114.988 158.164 115.631C157.922 116.223 157.516 116.803 156.948 117.37C157.129 117.612 157.343 117.884 157.591 118.186C157.838 118.488 158.08 118.775 158.315 119.047C158.552 119.318 158.76 119.553 158.941 119.753C159.121 119.953 159.248 120.071 159.322 120.106C159.415 120.144 159.512 120.172 159.612 120.188C159.857 120.228 160.106 120.249 160.355 120.251L160.125 121.65ZM152.405 114.222C152.212 114.367 152.046 114.499 151.908 114.62C151.774 114.735 151.658 114.87 151.564 115.019C151.469 115.173 151.399 115.341 151.355 115.517C151.303 115.734 151.279 115.957 151.282 116.18C151.279 116.396 151.326 116.61 151.418 116.805C151.506 116.988 151.633 117.149 151.79 117.276C151.946 117.402 152.12 117.503 152.306 117.575C152.494 117.648 152.694 117.686 152.896 117.686C153.492 117.694 154.08 117.544 154.599 117.251L152.405 114.222ZM154.054 110.561C154.054 110.284 153.991 110.066 153.864 109.909C153.737 109.751 153.516 109.673 153.2 109.673C152.85 109.673 152.602 109.761 152.458 109.936C152.31 110.117 152.233 110.346 152.241 110.579C152.248 110.69 152.278 110.798 152.331 110.896C152.395 111.031 152.468 111.161 152.549 111.286C152.633 111.419 152.717 111.546 152.802 111.666C152.886 111.788 152.959 111.884 153.02 111.957C153.291 111.807 153.533 111.611 153.736 111.377C153.94 111.154 154.054 110.863 154.054 110.56V110.561Z" fill="white"/>
<path d="M174.436 110.216V118.986H172.533V110.216H169.47V108.583H177.516V110.213L174.436 110.216Z" fill="white"/>
<path d="M182.156 118.986V108.603H188.354V110.234H184.059V112.898H187.774V114.529H184.059V117.356H188.699V118.986H182.156Z" fill="white"/>
<path d="M201.893 118.589C201.409 118.812 200.897 118.968 200.37 119.052C199.8 119.135 199.225 119.174 198.649 119.169C197.966 119.168 197.288 119.049 196.646 118.816C195.995 118.585 195.393 118.235 194.869 117.783C194.336 117.319 193.901 116.752 193.592 116.116C193.266 115.458 193.103 114.699 193.103 113.841C193.098 113.116 193.243 112.397 193.529 111.731C193.803 111.086 194.2 110.501 194.698 110.009C195.206 109.511 195.807 109.116 196.467 108.848C197.171 108.56 197.926 108.415 198.687 108.422C199.086 108.422 199.43 108.434 199.72 108.459C200.01 108.483 200.273 108.516 200.508 108.558C200.738 108.599 200.966 108.657 201.188 108.73C201.406 108.803 201.641 108.893 201.895 109.002L201.749 110.832C201.424 110.675 201.131 110.546 200.871 110.445C200.626 110.348 200.375 110.266 200.119 110.201C199.878 110.141 199.632 110.101 199.385 110.083C199.137 110.065 198.862 110.056 198.56 110.056C198.122 110.053 197.688 110.134 197.281 110.296C196.879 110.458 196.515 110.701 196.212 111.012C195.891 111.347 195.638 111.741 195.469 112.173C195.094 113.169 195.094 114.267 195.469 115.262C195.645 115.71 195.906 116.12 196.239 116.468C196.561 116.803 196.946 117.07 197.372 117.256C197.809 117.445 198.282 117.541 198.758 117.537C198.987 117.537 199.211 117.528 199.429 117.51C199.655 117.49 199.879 117.453 200.1 117.399C200.352 117.338 200.601 117.259 200.843 117.164C201.108 117.061 201.41 116.925 201.748 116.756L201.893 118.589Z" fill="white"/>
<path d="M214.433 118.986V114.601H208.888V118.986H206.985V108.603H208.888V112.934H214.433V108.603H216.336V118.986H214.433Z" fill="white"/>
<path d="M232.049 110.216V118.986H230.146V110.216H227.084V108.583H235.13V110.213L232.049 110.216Z" fill="white"/>
<path d="M244.264 118.986L243.339 116.287H240.277L239.298 118.986H237.504L241.437 108.261H242.455L246.17 118.986H244.264ZM241.854 111.72L240.839 114.673H242.76L241.854 111.72Z" fill="white"/>
<path d="M250.662 118.986V108.603H252.565V117.356H257.023V118.986H250.662Z" fill="white"/>
<path d="M266.954 118.986C266.797 118.733 266.594 118.398 266.346 117.981C266.097 117.563 265.823 117.129 265.521 116.676C265.219 116.223 264.898 115.782 264.56 115.353C264.261 114.965 263.921 114.61 263.546 114.293V118.986H261.643V108.603H263.546V112.789C264.203 112.155 264.807 111.467 265.349 110.732C265.899 109.989 266.427 109.279 266.935 108.603H269.182C268.928 108.929 268.65 109.304 268.348 109.726C268.047 110.149 267.728 110.581 267.391 111.022C267.053 111.465 266.706 111.896 266.349 112.318C266.021 112.71 265.673 113.085 265.307 113.441C265.711 113.837 266.086 114.261 266.43 114.709C266.805 115.193 267.165 115.691 267.509 116.202C267.854 116.713 268.177 117.215 268.478 117.706C268.78 118.195 269.052 118.621 269.294 118.984L266.954 118.986Z" fill="white"/>
<path d="M279.822 116.105C279.822 116.625 279.716 117.078 279.504 117.464C279.301 117.842 279.02 118.172 278.68 118.433C278.338 118.695 277.951 118.892 277.538 119.014C277.127 119.139 276.699 119.203 276.269 119.204C275.734 119.209 275.2 119.161 274.674 119.059C274.15 118.945 273.64 118.775 273.152 118.552L273.424 116.667C273.726 116.848 273.995 116.996 274.23 117.109C274.447 117.217 274.671 117.307 274.901 117.381C275.105 117.446 275.314 117.494 275.526 117.526C275.748 117.558 275.972 117.573 276.197 117.572C276.603 117.581 277 117.45 277.32 117.199C277.469 117.09 277.59 116.947 277.672 116.781C277.754 116.616 277.795 116.433 277.792 116.249C277.793 116.048 277.726 115.853 277.602 115.696C277.454 115.514 277.28 115.355 277.085 115.225C276.847 115.062 276.599 114.914 276.342 114.782C276.066 114.638 275.78 114.481 275.49 114.311C275.127 114.094 274.807 113.888 274.529 113.695C274.267 113.515 274.027 113.306 273.814 113.07C273.406 112.63 273.187 112.048 273.205 111.448C273.202 111.04 273.282 110.637 273.441 110.261C273.596 109.896 273.828 109.568 274.121 109.301C274.435 109.018 274.801 108.799 275.199 108.657C275.652 108.495 276.131 108.415 276.612 108.422C276.95 108.422 277.252 108.434 277.519 108.458C277.784 108.482 278.032 108.513 278.262 108.558C278.493 108.6 278.72 108.661 278.941 108.739C279.165 108.818 279.415 108.911 279.693 109.02L279.548 110.941C279.222 110.747 278.935 110.593 278.688 110.479C278.462 110.372 278.229 110.284 277.99 110.216C277.782 110.157 277.57 110.115 277.356 110.089C277.133 110.064 276.909 110.052 276.685 110.053C276.226 110.053 275.879 110.185 275.643 110.451C275.417 110.692 275.291 111.009 275.29 111.339C275.288 111.551 275.354 111.757 275.479 111.928C275.61 112.107 275.769 112.263 275.951 112.39C276.142 112.525 276.342 112.646 276.549 112.753C276.761 112.863 276.957 112.972 277.138 113.079L277.428 113.245C277.718 113.414 278.008 113.589 278.298 113.77C278.577 113.943 278.835 114.147 279.068 114.378C279.29 114.6 279.474 114.857 279.612 115.14C279.755 115.441 279.827 115.771 279.822 116.105Z" fill="white"/>
<path d="M9.31833 91.5693C9.20102 91.5693 9.08851 91.5227 9.00556 91.4397C8.9226 91.3568 8.876 91.2443 8.876 91.127C8.876 91.0097 8.9226 90.8972 9.00556 90.8142C9.08851 90.7313 9.20102 90.6847 9.31833 90.6847H119.897C120.014 90.6847 120.127 90.7313 120.21 90.8142C120.293 90.8972 120.339 91.0097 120.339 91.127C120.339 91.2443 120.293 91.3568 120.21 91.4397C120.127 91.5227 120.014 91.5693 119.897 91.5693H9.31833Z" fill="white"/>
<path d="M174.709 91.4874C174.592 91.4874 174.479 91.4408 174.396 91.3579C174.313 91.2749 174.267 91.1624 174.267 91.0451C174.267 90.9278 174.313 90.8153 174.396 90.7324C174.479 90.6494 174.592 90.6028 174.709 90.6028H282.362C282.479 90.6028 282.592 90.6494 282.675 90.7324C282.758 90.8153 282.805 90.9278 282.805 91.0451C282.805 91.1624 282.758 91.2749 282.675 91.3579C282.592 91.4408 282.479 91.4874 282.362 91.4874H174.709Z" fill="white"/>
<path d="M125.817 96.2857V95.4332C126.404 94.7698 126.987 94.1533 127.567 93.5839C128.147 93.0144 128.672 92.4522 129.141 91.8971C129.562 91.4039 129.933 90.8694 130.247 90.3015C130.52 89.8074 130.664 89.2524 130.667 88.6877C130.667 88.1437 130.53 87.7659 130.257 87.5544C129.983 87.3428 129.605 87.237 129.123 87.237C128.81 87.237 128.428 87.3004 127.979 87.4272C127.529 87.554 127.011 87.7751 126.425 88.0906L126.248 86.4044C126.716 86.1963 127.2 86.0264 127.695 85.8963C128.233 85.7677 128.785 85.7068 129.338 85.715C129.688 85.7187 130.038 85.7522 130.383 85.815C130.766 85.8811 131.134 86.0161 131.469 86.2137C131.816 86.4221 132.108 86.7116 132.319 87.0573C132.547 87.42 132.661 87.8975 132.661 88.4898C132.665 88.9682 132.599 89.4446 132.465 89.904C132.337 90.334 132.16 90.7479 131.937 91.1375C131.708 91.5358 131.446 91.9148 131.156 92.2708C130.856 92.6394 130.536 93.0111 130.197 93.386C130.002 93.6031 129.797 93.8297 129.582 94.066C129.367 94.3023 129.135 94.5464 128.885 94.7985H133.087V96.2857H125.817Z" fill="white"/>
<path d="M143.999 91.0993C144 91.773 143.928 92.4449 143.784 93.1029C143.657 93.7038 143.44 94.2818 143.138 94.8168C142.867 95.2956 142.488 95.7052 142.033 96.0137C141.583 96.3156 141.058 96.4667 140.459 96.4671C139.846 96.4671 139.315 96.316 138.865 96.0137C138.409 95.7054 138.031 95.2958 137.76 94.8168C137.458 94.2827 137.244 93.7042 137.124 93.1029C136.986 92.444 136.917 91.7725 136.919 91.0993C136.917 90.4231 136.986 89.7485 137.124 89.0863C137.243 88.482 137.457 87.9004 137.76 87.3636C138.031 86.8848 138.41 86.4751 138.865 86.1667C139.315 85.8648 139.846 85.7137 140.459 85.7133C141.058 85.7133 141.583 85.8644 142.033 86.1667C142.488 86.4753 142.867 86.8849 143.138 87.3636C143.441 87.9013 143.658 88.4824 143.784 89.0863C143.928 89.7476 144 90.4225 143.999 91.0993ZM141.926 91.0993C141.929 90.59 141.896 90.0811 141.829 89.5762C141.777 89.1619 141.682 88.7542 141.545 88.3599C141.421 88.0215 141.268 87.7556 141.085 87.5621C140.903 87.3686 140.695 87.2718 140.46 87.2718C140.226 87.2718 140.017 87.3686 139.834 87.5621C139.651 87.7556 139.498 88.0215 139.375 88.3599C139.238 88.7541 139.143 89.1619 139.092 89.5762C139.024 90.0811 138.992 90.59 138.994 91.0993C138.991 91.6057 139.024 92.1117 139.092 92.6136C139.144 93.0244 139.239 93.4286 139.375 93.8194C139.498 94.1578 139.651 94.4237 139.834 94.6172C140.017 94.8107 140.226 94.9075 140.46 94.9075C140.695 94.9075 140.903 94.8107 141.085 94.6172C141.268 94.4237 141.422 94.1583 141.547 93.8211C141.684 93.4302 141.779 93.026 141.831 92.6153C141.898 92.1128 141.93 91.6062 141.926 91.0993Z" fill="white"/>
<path d="M147.791 96.2857V95.4332C148.377 94.7698 148.96 94.1533 149.541 93.5839C150.121 93.0144 150.645 92.4522 151.113 91.8971C151.534 91.4039 151.905 90.8694 152.218 90.3015C152.492 89.8075 152.637 89.2524 152.639 88.6877C152.639 88.1437 152.502 87.7659 152.228 87.5544C151.955 87.3428 151.577 87.237 151.094 87.237C150.781 87.237 150.4 87.3004 149.951 87.4272C149.502 87.554 148.984 87.7751 148.397 88.0906L148.221 86.4044C148.688 86.1962 149.172 86.0263 149.667 85.8963C150.205 85.7678 150.757 85.7069 151.309 85.715C151.66 85.7187 152.01 85.7522 152.356 85.815C152.738 85.881 153.106 86.0161 153.44 86.2137C153.788 86.422 154.08 86.7115 154.291 87.0573C154.519 87.42 154.633 87.8975 154.633 88.4898C154.637 88.9682 154.571 89.4447 154.437 89.904C154.309 90.3339 154.132 90.7478 153.91 91.1375C153.68 91.5357 153.418 91.9147 153.127 92.2708C152.828 92.6394 152.509 93.0111 152.17 93.386C151.974 93.6031 151.769 93.8297 151.554 94.066C151.339 94.3023 151.108 94.547 150.86 94.8002H155.062V96.2874L147.791 96.2857Z" fill="white"/>
<path d="M164.643 93.3661V96.2858H162.747V93.3661H158.661V92.1691C158.752 91.9999 158.875 91.7823 159.032 91.5162L159.579 90.6095C159.775 90.2833 159.99 89.945 160.225 89.5944C160.459 89.2439 160.7 88.9054 160.948 88.5788C161.521 87.817 162.003 87.2064 162.394 86.7472C162.785 86.2879 163.092 85.9378 163.313 85.6967H164.643V91.88H166.148V93.3672L164.643 93.3661ZM162.747 88.905C162.395 89.389 162.059 89.8757 161.74 90.3651C161.42 90.8546 161.117 91.3592 160.831 91.8789H162.747V88.905Z" fill="white"/>
</svg>
