<svg width="48" height="51" viewBox="0 0 48 51" fill="none" xmlns="http://www.w3.org/2000/svg">
<path d="M10.272 45.1582C10.368 45.2509 10.464 45.1582 10.56 45.1582C13.44 45.1582 16.32 45.1582 19.296 45.1582C19.584 45.1582 19.584 45.0655 19.584 44.88C19.584 43.7673 19.584 42.6546 19.584 41.5418C19.584 41.3564 19.68 41.2636 19.872 41.2636C20.928 41.2636 21.984 41.2636 23.04 41.2636C23.232 41.2636 23.328 41.3564 23.328 41.5418C23.328 43.86 23.328 46.1782 23.328 48.4964C23.328 48.6818 23.232 48.8673 23.04 48.8673C16.32 48.8673 9.50402 48.8673 2.78402 48.8673C2.49602 48.8673 2.40002 48.7746 2.40002 48.4964C2.40002 47.4764 2.40002 46.5491 2.40002 45.5291C2.40002 45.3436 2.49602 45.2509 2.68802 45.2509C3.84002 45.2509 4.99202 45.2509 6.14402 45.2509C6.33602 45.2509 6.43202 45.2509 6.43202 44.9727C6.43202 40.2436 6.43202 35.5146 6.43202 30.7855C6.43202 30.4146 6.43202 30.4146 6.04802 30.4146C4.99202 30.4146 3.84002 30.4146 2.78402 30.4146C2.59202 30.4146 2.49602 30.3218 2.49602 30.1364C2.49602 29.1164 2.49602 28.0964 2.49602 27.0764C2.49602 26.8909 2.59202 26.7982 2.78402 26.7982C9.50402 26.7982 16.128 26.7982 22.848 26.7982C23.136 26.7982 23.232 26.8909 23.232 27.1691C23.232 29.3946 23.232 31.62 23.232 33.8455C23.232 34.0309 23.232 34.1236 22.944 34.1236C21.888 34.1236 20.832 34.1236 19.776 34.1236C19.584 34.1236 19.584 34.0309 19.584 33.9382C19.584 32.9182 19.584 31.8982 19.584 30.7855C19.584 30.5073 19.488 30.4146 19.2 30.4146C16.416 30.4146 13.536 30.4146 10.752 30.4146C10.368 30.4146 10.368 30.4146 10.368 30.7855C10.368 32.2691 10.368 33.66 10.368 35.1436C10.368 35.5146 10.368 35.5146 10.752 35.5146C12.48 35.5146 14.208 35.5146 16.032 35.5146C16.32 35.5146 16.416 35.6073 16.416 35.8855C16.416 36.8127 16.416 37.8327 16.416 38.76C16.416 39.0382 16.32 39.1309 16.032 39.1309C14.208 39.1309 12.384 39.1309 10.56 39.1309C10.464 39.2236 10.464 39.3164 10.464 39.4091C10.464 41.1709 10.464 43.0255 10.464 44.7873C10.272 44.88 10.176 44.9727 10.272 45.1582Z" fill="#1B9DD9"/>
<path d="M41.76 9.45821C41.76 8.34548 41.76 7.23275 41.76 6.12002C41.76 5.84184 41.664 5.74912 41.376 5.74912C38.592 5.74912 35.712 5.74912 32.928 5.74912C32.544 5.74912 32.448 5.74911 32.448 6.21275C32.448 7.69639 32.448 9.0873 32.448 10.5709C32.448 10.8491 32.544 10.9418 32.736 10.9418C34.464 10.9418 36.288 10.9418 38.016 10.9418C38.4 10.9418 38.4 10.9418 38.4 11.3128C38.4 12.24 38.4 13.1673 38.4 14.1873C38.4 14.4655 38.304 14.5582 38.016 14.5582C36.288 14.5582 34.56 14.5582 32.736 14.5582C32.352 14.5582 32.352 14.5582 32.352 15.0218C32.352 16.7837 32.352 18.5455 32.352 20.3073C32.352 20.5855 32.448 20.5855 32.64 20.5855C35.616 20.5855 38.496 20.5855 41.472 20.5855C41.664 20.5855 41.76 20.4928 41.76 20.3073C41.76 19.1946 41.76 18.0818 41.76 16.9691C41.76 16.7837 41.856 16.6909 42.048 16.6909C43.104 16.6909 44.16 16.6909 45.216 16.6909C45.312 16.6909 45.504 16.5982 45.408 16.7837C45.408 16.8764 45.408 16.9691 45.408 16.9691C45.408 19.1946 45.408 21.5128 45.408 23.7382C45.408 23.8309 45.408 23.9237 45.408 23.9237C45.408 24.0164 45.408 24.1091 45.312 24.1091C45.216 24.1091 45.12 24.1091 45.12 24.1091C38.4 24.1091 31.68 24.1091 24.96 24.1091C24.48 24.1091 24.48 24.1091 24.48 23.6455C24.48 22.7182 24.48 21.6982 24.48 20.7709C24.48 20.5855 24.576 20.4928 24.768 20.4928C26.016 20.4928 27.168 20.4928 28.416 20.4928C28.512 20.4 28.512 20.2146 28.512 20.1218C28.512 16.5055 28.512 12.8891 28.512 9.36548C28.512 8.25275 28.512 7.14002 28.512 6.0273C28.512 5.93457 28.512 5.74912 28.416 5.65639C27.168 5.65639 26.016 5.65639 24.768 5.65639C24.48 5.65639 24.384 5.56366 24.48 5.37821C24.48 4.45093 24.48 3.43093 24.48 2.50366C24.48 2.22548 24.576 2.13275 24.864 2.13275C27.936 2.13275 31.008 2.13275 34.176 2.13275C37.728 2.13275 41.28 2.13275 44.928 2.13275C45.312 2.13275 45.312 2.13275 45.312 2.50366C45.312 4.82184 45.312 7.0473 45.312 9.36548C45.216 9.45821 45.024 9.45821 44.928 9.45821C43.968 9.45821 43.008 9.45821 42.048 9.45821C41.952 9.55093 41.856 9.55093 41.76 9.45821Z" fill="#1B9DD9"/>
<path d="M25.536 37.8327C25.536 34.3091 25.536 30.7854 25.536 27.2618C25.536 26.8909 25.536 26.8909 25.92 26.8909C32.256 26.8909 38.592 26.8909 44.832 26.8909C45.12 26.8909 45.12 26.8909 45.12 27.1691C45.12 29.3945 45.12 31.7127 45.12 33.9382C45.12 34.2164 45.024 34.3091 44.736 34.3091C43.776 34.3091 42.72 34.3091 41.76 34.3091C41.472 34.3091 41.472 34.2164 41.472 33.9382C41.472 32.9182 41.472 31.8054 41.472 30.7854C41.472 30.6 41.376 30.5073 41.184 30.5073C37.248 30.5073 33.312 30.5073 29.472 30.5073C29.28 30.5073 29.184 30.6 29.184 30.7854C29.184 35.5145 29.184 40.2436 29.184 44.88C29.184 45.0654 29.28 45.1582 29.472 45.1582C33.504 45.1582 37.536 45.1582 41.664 45.1582C41.856 45.1582 41.952 45.1582 41.952 44.88C41.952 43.7673 41.952 42.6545 41.952 41.5418C41.952 41.2636 42.048 41.2636 42.24 41.2636C43.296 41.2636 44.352 41.2636 45.408 41.2636C45.6 41.2636 45.6 41.2636 45.6 41.4491C45.6 43.86 45.6 46.1782 45.6 48.5891C45.6 48.7745 45.6 48.8673 45.312 48.8673C38.784 48.8673 32.256 48.8673 25.632 48.8673C25.44 48.8673 25.344 48.7745 25.344 48.6818C25.344 48.5891 25.344 48.4964 25.344 48.4036C25.536 44.88 25.536 41.3564 25.536 37.8327Z" fill="#010101"/>
<path d="M19.488 24.2946C19.392 24.2946 19.296 24.2946 19.2 24.2946C13.728 24.2946 8.25602 24.2946 2.78402 24.2946C2.49602 24.2946 2.40002 24.2946 2.40002 23.9237C2.40002 21.6055 2.40002 19.38 2.40002 17.0618C2.40002 16.7837 2.49602 16.7837 2.68802 16.7837C3.74402 16.7837 4.80002 16.7837 5.85602 16.7837C6.14402 16.7837 6.14402 16.8764 6.14402 17.0618C6.14402 18.1746 6.14402 19.1946 6.14402 20.3073C6.14402 20.4928 6.14402 20.5855 6.43202 20.5855C9.50402 20.5855 12.48 20.5855 15.552 20.5855C15.744 20.5855 15.84 20.4928 15.84 20.3073C15.84 15.5782 15.84 10.8491 15.84 6.0273C15.84 5.84184 15.744 5.74912 15.552 5.74912C14.592 5.74912 13.632 5.74912 12.672 5.74912C12.48 5.74912 12.384 5.74912 12.384 5.47093C12.384 4.45093 12.384 3.43093 12.384 2.41093C12.384 2.13275 12.48 2.13275 12.672 2.13275C14.688 2.13275 16.704 2.13275 18.816 2.13275C20.16 2.13275 21.408 2.13275 22.752 2.13275C23.04 2.13275 23.04 2.22548 23.04 2.41093C23.04 3.43093 23.04 4.35821 23.04 5.37821C23.04 5.65639 22.944 5.74912 22.752 5.74912C21.696 5.74912 20.736 5.74912 19.68 5.74912C19.68 5.74912 19.68 5.84184 19.584 5.84184C19.584 5.93457 19.584 6.12002 19.584 6.21275C19.584 12.0546 19.584 17.8964 19.584 23.7382C19.584 24.0164 19.584 24.2018 19.488 24.2946Z" fill="#010101"/>
</svg>
