<svg width="31" height="32" viewBox="0 0 31 32" fill="none" xmlns="http://www.w3.org/2000/svg">
<path d="M28.6159 0.600037H2.19434C0.983671 0.600037 0 1.61241 0 2.85517V29.6236C0 30.8664 0.983671 31.8787 2.19434 31.8787H28.6159C29.8266 31.8787 30.8171 30.8664 30.8171 29.6236V2.85517C30.8171 1.61241 29.8266 0.600037 28.6159 0.600037ZM9.31392 27.4103H4.74639V12.4831H9.3208V27.4103H9.31392ZM7.03016 10.4444C5.56497 10.4444 4.38181 9.23659 4.38181 7.75643C4.38181 6.27628 5.56497 5.06842 7.03016 5.06842C8.48847 5.06842 9.6785 6.27628 9.6785 7.75643C9.6785 9.24357 8.49534 10.4444 7.03016 10.4444ZM26.4353 27.4103H21.8678V20.1492C21.8678 18.4177 21.8334 16.1905 19.4946 16.1905C17.1145 16.1905 16.7499 18.0756 16.7499 20.0235V27.4103H12.1824V12.4831H16.5642V14.5218H16.6261C17.2383 13.3489 18.731 12.1131 20.9529 12.1131C25.5755 12.1131 26.4353 15.2061 26.4353 19.2276V27.4103Z" fill="#E7E7E7"/>
</svg>
