<svg width="31" height="23" viewBox="0 0 31 23" fill="none" xmlns="http://www.w3.org/2000/svg">
<path fill-rule="evenodd" clip-rule="evenodd" d="M19.0909 20.125C19.0909 20.3792 18.9903 20.6229 18.8113 20.8026C18.6323 20.9824 18.3895 21.0833 18.1364 21.0833H2.86364C2.61048 21.0833 2.36768 20.9824 2.18867 20.8026C2.00966 20.6229 1.90909 20.3792 1.90909 20.125V2.875C1.90909 2.62083 2.00966 2.37708 2.18867 2.19736C2.36768 2.01763 2.61048 1.91667 2.86364 1.91667H18.1364C18.3895 1.91667 18.6323 2.01763 18.8113 2.19736C18.9903 2.37708 19.0909 2.62083 19.0909 2.875V6.70833C19.0909 6.9625 19.1915 7.20625 19.3705 7.38598C19.5495 7.5657 19.7923 7.66667 20.0455 7.66667C20.2986 7.66667 20.5414 7.5657 20.7204 7.38598C20.8994 7.20625 21 6.9625 21 6.70833V2.875C21 2.1125 20.6983 1.38124 20.1613 0.842068C19.6242 0.302901 18.8958 0 18.1364 0H2.86364C2.10415 0 1.37578 0.302901 0.83874 0.842068C0.301704 1.38124 0 2.1125 0 2.875L0 20.125C0 20.8875 0.301704 21.6188 0.83874 22.1579C1.37578 22.6971 2.10415 23 2.86364 23H18.1364C18.8958 23 19.6242 22.6971 20.1613 22.1579C20.6983 21.6188 21 20.8875 21 20.125V16.2917C21 16.0375 20.8994 15.7937 20.7204 15.614C20.5414 15.4343 20.2986 15.3333 20.0455 15.3333C19.7923 15.3333 19.5495 15.4343 19.3705 15.614C19.1915 15.7937 19.0909 16.0375 19.0909 16.2917V20.125Z" fill="black"/>
<path fill-rule="evenodd" clip-rule="evenodd" d="M19.0909 20.125C19.0909 20.3792 18.9903 20.6229 18.8113 20.8026C18.6323 20.9824 18.3895 21.0833 18.1364 21.0833H2.86364C2.61048 21.0833 2.36768 20.9824 2.18867 20.8026C2.00966 20.6229 1.90909 20.3792 1.90909 20.125V2.875C1.90909 2.62083 2.00966 2.37708 2.18867 2.19736C2.36768 2.01763 2.61048 1.91667 2.86364 1.91667H18.1364C18.3895 1.91667 18.6323 2.01763 18.8113 2.19736C18.9903 2.37708 19.0909 2.62083 19.0909 2.875V6.70833C19.0909 6.9625 19.1915 7.20625 19.3705 7.38598C19.5495 7.5657 19.7923 7.66667 20.0455 7.66667C20.2986 7.66667 20.5414 7.5657 20.7204 7.38598C20.8994 7.20625 21 6.9625 21 6.70833V2.875C21 2.1125 20.6983 1.38124 20.1613 0.842068C19.6242 0.302901 18.8958 0 18.1364 0H2.86364C2.10415 0 1.37578 0.302901 0.83874 0.842068C0.301704 1.38124 0 2.1125 0 2.875L0 20.125C0 20.8875 0.301704 21.6188 0.83874 22.1579C1.37578 22.6971 2.10415 23 2.86364 23H18.1364C18.8958 23 19.6242 22.6971 20.1613 22.1579C20.6983 21.6188 21 20.8875 21 20.125V16.2917C21 16.0375 20.8994 15.7937 20.7204 15.614C20.5414 15.4343 20.2986 15.3333 20.0455 15.3333C19.7923 15.3333 19.5495 15.4343 19.3705 15.614C19.1915 15.7937 19.0909 16.0375 19.0909 16.2917V20.125Z" fill="url(#paint0_linear_0_1)"/>
<path fill-rule="evenodd" clip-rule="evenodd" d="M30.7062 12.2584C30.7994 12.1589 30.8732 12.0407 30.9236 11.9106C30.9741 11.7804 31 11.6409 31 11.5C31 11.3591 30.9741 11.2196 30.9236 11.0894C30.8732 10.9593 30.7994 10.8411 30.7062 10.7416L24.7067 4.31415C24.519 4.113 24.2643 4 23.9988 4C23.7333 4 23.4786 4.113 23.2908 4.31415C23.1031 4.5153 22.9976 4.78812 22.9976 5.07259C22.9976 5.35706 23.1031 5.62987 23.2908 5.83102L27.5845 10.4288H9.99992C9.73472 10.4288 9.48039 10.5416 9.29287 10.7425C9.10535 10.9434 9 11.2159 9 11.5C9 11.7841 9.10535 12.0566 9.29287 12.2575C9.48039 12.4584 9.73472 12.5712 9.99992 12.5712H27.5845L23.2908 17.169C23.1031 17.3701 22.9976 17.6429 22.9976 17.9274C22.9976 18.2119 23.1031 18.4847 23.2908 18.6858C23.4786 18.887 23.7333 19 23.9988 19C24.2643 19 24.519 18.887 24.7067 18.6858L30.7062 12.2584Z" fill="black"/>
<path fill-rule="evenodd" clip-rule="evenodd" d="M30.7062 12.2584C30.7994 12.1589 30.8732 12.0407 30.9236 11.9106C30.9741 11.7804 31 11.6409 31 11.5C31 11.3591 30.9741 11.2196 30.9236 11.0894C30.8732 10.9593 30.7994 10.8411 30.7062 10.7416L24.7067 4.31415C24.519 4.113 24.2643 4 23.9988 4C23.7333 4 23.4786 4.113 23.2908 4.31415C23.1031 4.5153 22.9976 4.78812 22.9976 5.07259C22.9976 5.35706 23.1031 5.62987 23.2908 5.83102L27.5845 10.4288H9.99992C9.73472 10.4288 9.48039 10.5416 9.29287 10.7425C9.10535 10.9434 9 11.2159 9 11.5C9 11.7841 9.10535 12.0566 9.29287 12.2575C9.48039 12.4584 9.73472 12.5712 9.99992 12.5712H27.5845L23.2908 17.169C23.1031 17.3701 22.9976 17.6429 22.9976 17.9274C22.9976 18.2119 23.1031 18.4847 23.2908 18.6858C23.4786 18.887 23.7333 19 23.9988 19C24.2643 19 24.519 18.887 24.7067 18.6858L30.7062 12.2584Z" fill="url(#paint1_linear_0_1)"/>
<defs>
<linearGradient id="paint0_linear_0_1" x1="6.68182" y1="-31.0152" x2="35.3644" y2="23.0404" gradientUnits="userSpaceOnUse">
<stop stop-color="#605ED0"/>
<stop offset="0.540625" stop-color="#4CC9F0"/>
<stop offset="1" stop-color="#7209B7"/>
</linearGradient>
<linearGradient id="paint1_linear_0_1" x1="16" y1="-16.2273" x2="29.4555" y2="24.5073" gradientUnits="userSpaceOnUse">
<stop stop-color="#605ED0"/>
<stop offset="0.540625" stop-color="#4CC9F0"/>
<stop offset="1" stop-color="#7209B7"/>
</linearGradient>
</defs>
</svg>
