<svg width="22" height="34" viewBox="0 0 22 34" fill="none" xmlns="http://www.w3.org/2000/svg">
<g clip-path="url(#clip0_1203_145)">
<path d="M7.52495 8.70712L3.31458 26.5526L13.5479 29.0296L17.7583 11.1841L7.52495 8.70712Z" fill="white"/>
<path d="M19.6513 3.11294L17.685 2.66338L13.6741 3.40211L12.4529 1.32367L9.29802 0.704285L6.6028 2.05296L0.704712 28.477L2.3455 30.7653L5.53254 31.464L7.79183 30.1393L9.47826 32.573L12.9028 33.416L15.2893 32.1956L21.1259 5.29706M13.6303 29.2369L3.32075 26.8882L7.49422 8.40482L17.7325 10.8451L13.6303 29.2369Z" fill="#1A9CD8"/>
<path d="M19.6513 3.11294L17.685 2.66338L13.6741 3.40211L12.4529 1.32367L9.29802 0.704285L6.6028 2.05296L0.704712 28.477L2.3455 30.7653L5.53254 31.464L7.79183 30.1393L9.47826 32.573L12.9028 33.416L15.2893 32.1956L21.1259 5.29706M13.6303 29.2369L3.32075 26.8882L7.49422 8.40482L17.7325 10.8451L13.6303 29.2369Z" fill="url(#paint0_linear_1203_145)"/>
<path d="M10.5359 15.3256L11.704 17.638L14.2008 17.3866L12.3686 19.1555L13.2735 21.685L10.9155 20.3118L8.98778 21.8293L9.67055 19.5169L7.74426 18.2885L9.88432 17.8908L10.5359 15.3256Z" fill="#1A9CD8"/>
<path d="M10.5359 15.3256L11.704 17.638L14.2008 17.3866L12.3686 19.1555L13.2735 21.685L10.9155 20.3118L8.98778 21.8293L9.67055 19.5169L7.74426 18.2885L9.88432 17.8908L10.5359 15.3256Z" fill="url(#paint1_linear_1203_145)"/>
<path d="M12.1766 6.21647L9.73432 5.63625C9.65667 5.61766 9.57618 5.61475 9.49742 5.62767C9.41866 5.6406 9.34319 5.66911 9.27532 5.71158C9.20744 5.75405 9.14849 5.80964 9.10182 5.87519C9.05516 5.94073 9.02169 6.01495 9.00334 6.09359C8.985 6.17223 8.98212 6.25377 8.99488 6.33354C9.00764 6.4133 9.03579 6.48975 9.07772 6.5585C9.11965 6.62725 9.17454 6.68696 9.23925 6.73423C9.30396 6.78149 9.37723 6.81539 9.45488 6.83397L11.9 7.41467C12.0569 7.4522 12.222 7.42508 12.3592 7.33927C12.4963 7.25346 12.5941 7.11598 12.6312 6.95709C12.6683 6.7982 12.6415 6.63091 12.5568 6.49202C12.472 6.35312 12.3363 6.25401 12.1794 6.21647H12.1766Z" fill="black"/>
<path d="M12.1766 6.21647L9.73432 5.63625C9.65667 5.61766 9.57618 5.61475 9.49742 5.62767C9.41866 5.6406 9.34319 5.66911 9.27532 5.71158C9.20744 5.75405 9.14849 5.80964 9.10182 5.87519C9.05516 5.94073 9.02169 6.01495 9.00334 6.09359C8.985 6.17223 8.98212 6.25377 8.99488 6.33354C9.00764 6.4133 9.03579 6.48975 9.07772 6.5585C9.11965 6.62725 9.17454 6.68696 9.23925 6.73423C9.30396 6.78149 9.37723 6.81539 9.45488 6.83397L11.9 7.41467C12.0569 7.4522 12.222 7.42508 12.3592 7.33927C12.4963 7.25346 12.5941 7.11598 12.6312 6.95709C12.6683 6.7982 12.6415 6.63091 12.5568 6.49202C12.472 6.35312 12.3363 6.25401 12.1794 6.21647H12.1766Z" fill="url(#paint2_linear_1203_145)"/>
<path d="M17.0622 7.37789L14.6194 6.79719C14.5418 6.7786 14.4612 6.7757 14.3824 6.78864C14.3037 6.80157 14.2282 6.8301 14.1603 6.87259C14.0231 6.9584 13.9253 7.09588 13.8882 7.25477C13.8699 7.33344 13.867 7.41501 13.8798 7.4948C13.8926 7.5746 13.9207 7.65107 13.9627 7.71984C14.0474 7.85874 14.1831 7.95785 14.34 7.99539L16.7828 8.57609C16.8286 8.58678 16.8755 8.59216 16.9225 8.59212C17.0745 8.59748 17.2229 8.54471 17.3382 8.44431C17.4535 8.34391 17.5273 8.20323 17.5449 8.05024C17.5625 7.89725 17.5227 7.74315 17.4332 7.61857C17.3438 7.494 17.2113 7.40808 17.0622 7.37789Z" fill="black"/>
<path d="M17.0622 7.37789L14.6194 6.79719C14.5418 6.7786 14.4612 6.7757 14.3824 6.78864C14.3037 6.80157 14.2282 6.8301 14.1603 6.87259C14.0231 6.9584 13.9253 7.09588 13.8882 7.25477C13.8699 7.33344 13.867 7.41501 13.8798 7.4948C13.8926 7.5746 13.9207 7.65107 13.9627 7.71984C14.0474 7.85874 14.1831 7.95785 14.34 7.99539L16.7828 8.57609C16.8286 8.58678 16.8755 8.59216 16.9225 8.59212C17.0745 8.59748 17.2229 8.54471 17.3382 8.44431C17.4535 8.34391 17.5273 8.20323 17.5449 8.05024C17.5625 7.89725 17.5227 7.74315 17.4332 7.61857C17.3438 7.494 17.2113 7.40808 17.0622 7.37789Z" fill="url(#paint3_linear_1203_145)"/>
<path d="M18.0152 10.2932L10.0711 8.40627L7.91429 9.15774L17.1461 11.3532L13.1576 28.5652L3.92619 26.3712L7.91429 9.15632L10.0711 8.40485L7.60271 7.81802C7.52488 7.79924 7.44415 7.79622 7.36516 7.80912C7.28616 7.82202 7.21046 7.85058 7.1424 7.89318C7.07433 7.93579 7.01524 7.99158 6.96852 8.05737C6.92179 8.12315 6.88835 8.19764 6.87011 8.27654L2.60443 26.6891C2.56781 26.848 2.59491 27.0151 2.67978 27.1538C2.76464 27.2925 2.90035 27.3914 3.05712 27.4288L13.4715 29.904C13.6283 29.9409 13.7931 29.9136 13.9302 29.828C13.9981 29.7856 14.0571 29.7299 14.1037 29.6642C14.1503 29.5986 14.1836 29.5242 14.2017 29.4455L18.4669 11.0329C18.4855 10.9542 18.4885 10.8727 18.4758 10.7929C18.4631 10.7131 18.4349 10.6366 18.3929 10.5679C18.3509 10.4991 18.296 10.4395 18.2311 10.3923C18.1663 10.3452 18.0929 10.3115 18.0152 10.2932Z" fill="black"/>
<path d="M18.0152 10.2932L10.0711 8.40627L7.91429 9.15774L17.1461 11.3532L13.1576 28.5652L3.92619 26.3712L7.91429 9.15632L10.0711 8.40485L7.60271 7.81802C7.52488 7.79924 7.44415 7.79622 7.36516 7.80912C7.28616 7.82202 7.21046 7.85058 7.1424 7.89318C7.07433 7.93579 7.01524 7.99158 6.96852 8.05737C6.92179 8.12315 6.88835 8.19764 6.87011 8.27654L2.60443 26.6891C2.56781 26.848 2.59491 27.0151 2.67978 27.1538C2.76464 27.2925 2.90035 27.3914 3.05712 27.4288L13.4715 29.904C13.6283 29.9409 13.7931 29.9136 13.9302 29.828C13.9981 29.7856 14.0571 29.7299 14.1037 29.6642C14.1503 29.5986 14.1836 29.5242 14.2017 29.4455L18.4669 11.0329C18.4855 10.9542 18.4885 10.8727 18.4758 10.7929C18.4631 10.7131 18.4349 10.6366 18.3929 10.5679C18.3509 10.4991 18.296 10.4395 18.2311 10.3923C18.1663 10.3452 18.0929 10.3115 18.0152 10.2932Z" fill="url(#paint4_linear_1203_145)"/>
<path d="M14.8984 17.2352C14.849 17.1152 14.7633 17.0142 14.6535 16.9468C14.5438 16.8794 14.4157 16.849 14.2878 16.8602L12.015 17.0536L11.1301 14.9237C11.0814 14.8028 10.9959 14.7009 10.886 14.6327C10.7761 14.5645 10.6475 14.5335 10.5191 14.5444C10.3906 14.5553 10.269 14.6075 10.1718 14.6932C10.0746 14.779 10.007 14.894 9.97883 15.0213L9.45767 17.2706L7.18487 17.464C7.05633 17.4736 6.93416 17.5245 6.83614 17.6092C6.73813 17.694 6.66939 17.8083 6.63993 17.9354C6.61047 18.0625 6.62182 18.1958 6.67234 18.3159C6.72286 18.436 6.8099 18.5367 6.9208 18.6032L8.8727 19.8L8.35154 22.0492C8.32126 22.1757 8.33153 22.3088 8.38088 22.429C8.43023 22.5493 8.51608 22.6505 8.62602 22.718C8.73595 22.7855 8.86425 22.8159 8.99234 22.8046C9.12042 22.7933 9.24164 22.7411 9.33844 22.6554L11.0649 21.1458L13.0178 22.3445C13.1273 22.4133 13.2557 22.4448 13.3843 22.4346C13.5128 22.4243 13.6347 22.3728 13.7323 22.2875C13.8299 22.2021 13.898 22.0875 13.9268 21.9602C13.9556 21.8329 13.9436 21.6997 13.8924 21.5798L13.0075 19.45L14.7345 17.9404C14.8322 17.8557 14.9008 17.7417 14.9303 17.6149C14.9597 17.4881 14.9486 17.3551 14.8984 17.2352ZM11.7174 19.5141L12.0481 20.3104L11.3188 19.8627C10.8139 19.5533 10.3072 20.1854 9.9616 20.4873L10.1563 19.6467C10.1858 19.5202 10.175 19.3875 10.1253 19.2677C10.0755 19.1479 9.98952 19.0472 9.87963 18.9801L9.15215 18.5315L10.0016 18.4593C10.5913 18.4093 10.6327 17.5951 10.7366 17.1465L11.0673 17.9423C11.2969 18.4961 12.0723 18.2834 12.5273 18.2447C12.1757 18.5513 11.4808 18.9452 11.7174 19.5141Z" fill="black"/>
<path d="M14.8984 17.2352C14.849 17.1152 14.7633 17.0142 14.6535 16.9468C14.5438 16.8794 14.4157 16.849 14.2878 16.8602L12.015 17.0536L11.1301 14.9237C11.0814 14.8028 10.9959 14.7009 10.886 14.6327C10.7761 14.5645 10.6475 14.5335 10.5191 14.5444C10.3906 14.5553 10.269 14.6075 10.1718 14.6932C10.0746 14.779 10.007 14.894 9.97883 15.0213L9.45767 17.2706L7.18487 17.464C7.05633 17.4736 6.93416 17.5245 6.83614 17.6092C6.73813 17.694 6.66939 17.8083 6.63993 17.9354C6.61047 18.0625 6.62182 18.1958 6.67234 18.3159C6.72286 18.436 6.8099 18.5367 6.9208 18.6032L8.8727 19.8L8.35154 22.0492C8.32126 22.1757 8.33153 22.3088 8.38088 22.429C8.43023 22.5493 8.51608 22.6505 8.62602 22.718C8.73595 22.7855 8.86425 22.8159 8.99234 22.8046C9.12042 22.7933 9.24164 22.7411 9.33844 22.6554L11.0649 21.1458L13.0178 22.3445C13.1273 22.4133 13.2557 22.4448 13.3843 22.4346C13.5128 22.4243 13.6347 22.3728 13.7323 22.2875C13.8299 22.2021 13.898 22.0875 13.9268 21.9602C13.9556 21.8329 13.9436 21.6997 13.8924 21.5798L13.0075 19.45L14.7345 17.9404C14.8322 17.8557 14.9008 17.7417 14.9303 17.6149C14.9597 17.4881 14.9486 17.3551 14.8984 17.2352ZM11.7174 19.5141L12.0481 20.3104L11.3188 19.8627C10.8139 19.5533 10.3072 20.1854 9.9616 20.4873L10.1563 19.6467C10.1858 19.5202 10.175 19.3875 10.1253 19.2677C10.0755 19.1479 9.98952 19.0472 9.87963 18.9801L9.15215 18.5315L10.0016 18.4593C10.5913 18.4093 10.6327 17.5951 10.7366 17.1465L11.0673 17.9423C11.2969 18.4961 12.0723 18.2834 12.5273 18.2447C12.1757 18.5513 11.4808 18.9452 11.7174 19.5141Z" fill="url(#paint5_linear_1203_145)"/>
<path d="M21.7466 6.59498L21.9939 5.4449C22.0433 5.17648 21.8025 4.80712 21.4029 4.7222C20.8598 4.60616 20.7075 3.67213 20.7508 3.46174C20.8221 3.13153 20.518 2.71357 20.1361 2.623L16.4567 1.74889C16.3138 1.71422 16.1633 1.7334 16.0333 1.80283C15.9033 1.87227 15.8027 1.98723 15.7502 2.12627C15.6406 2.41495 15.4314 2.65366 15.1614 2.79825C14.8915 2.94285 14.579 2.98357 14.2817 2.91287C13.9843 2.84218 13.7224 2.66485 13.5441 2.41368C13.3659 2.16251 13.2835 1.85447 13.3121 1.54651C13.3265 1.39831 13.2872 1.24986 13.2015 1.12885C13.1158 1.00785 12.9896 0.922566 12.8464 0.88892L9.16704 0.0143307C9.02414 -0.0196093 8.87395 -0.000110477 8.74412 0.069236C8.6143 0.138582 8.51358 0.253106 8.46052 0.391715C8.34826 0.678476 8.13875 0.915311 7.86961 1.0597C7.60047 1.20408 7.28933 1.24656 6.99205 1.17951C6.9143 1.16123 6.83375 1.1587 6.75504 1.17207C6.67632 1.18544 6.60099 1.21444 6.53338 1.2574C6.46577 1.30037 6.40722 1.35645 6.36108 1.42242C6.31495 1.48839 6.28215 1.56295 6.26457 1.6418C6.26457 1.6418 5.35499 5.56802 5.35405 5.57132L0.016248 28.6125C-0.00226502 28.6912 -0.00522563 28.7728 0.00753669 28.8527C0.020299 28.9326 0.0485321 29.0091 0.0906099 29.0778C0.132688 29.1466 0.187779 29.2062 0.25271 29.2533C0.317642 29.3004 0.39113 29.334 0.468944 29.3522C0.766229 29.4236 1.02806 29.6013 1.20624 29.8526C1.38441 30.104 1.46693 30.4121 1.43861 30.7202C1.42397 30.8688 1.46313 31.0177 1.54881 31.1392C1.63449 31.2607 1.76085 31.3465 1.90434 31.3807L5.58366 32.2548C5.72659 32.2894 5.87708 32.2703 6.00708 32.2008C6.13708 32.1314 6.2377 32.0164 6.29019 31.8774C6.8025 30.5221 8.86524 31.0179 8.72878 32.4571C8.71435 32.6053 8.75365 32.7538 8.83935 32.8748C8.92505 32.9958 9.0513 33.0811 9.19452 33.1147L12.8738 33.9893C13.0167 34.0223 13.1665 34.0023 13.2961 33.9331C13.4257 33.8639 13.5265 33.7499 13.5804 33.6119C13.6724 33.3708 13.834 33.1634 14.0443 33.0168C14.2545 32.8702 14.5035 32.7912 14.7587 32.7902C15.0265 32.7902 15.257 32.9058 15.508 32.7482C15.5758 32.7057 15.6347 32.6501 15.6812 32.5845C15.7277 32.519 15.761 32.4447 15.7791 32.3661L16.5783 28.9177M16.5145 23.8051L15.5979 27.7502L14.7168 31.5528C14.3147 31.5611 13.9206 31.6676 13.568 31.8634C13.2154 32.0592 12.9148 32.3385 12.6917 32.6774L9.92852 32.0208C9.86602 31.5117 9.65104 31.0343 9.31254 30.6527C8.97403 30.2711 8.52823 30.0037 8.03516 29.8865C7.54208 29.7693 7.02538 29.8079 6.55462 29.9971C6.08385 30.1863 5.68161 30.517 5.40203 30.9448L2.63974 30.2881C2.5886 29.8844 2.44194 29.4991 2.21222 29.165C1.98249 28.831 1.67652 28.5581 1.32031 28.3696L6.39684 6.45016L6.98833 6.59167C7.03413 6.60252 7.08101 6.60806 7.12805 6.60818C7.2805 6.6143 7.42962 6.56189 7.54557 6.46143C7.66152 6.36098 7.73574 6.21989 7.7534 6.06638C7.77106 5.91288 7.73084 5.75828 7.6408 5.63352C7.55076 5.50875 7.41753 5.42302 7.26777 5.39348L6.67675 5.25196L7.32645 2.44799C7.72823 2.43943 8.12203 2.33272 8.47436 2.13692C8.82668 1.94112 9.1271 1.66203 9.35008 1.32338L12.1138 1.98003C12.1764 2.48898 12.3914 2.96629 12.7298 3.34775C13.0683 3.72922 13.514 3.99653 14.007 4.11373C14.5 4.23093 15.0165 4.19239 15.4872 4.00329C15.9579 3.8142 16.3601 3.48363 16.6398 3.05605L19.4025 3.71081C19.4156 3.76996 19.4254 3.82981 19.4319 3.89007C19.4687 4.07395 19.5257 4.25307 19.6019 4.42407C19.8323 4.94111 20.2267 5.36534 20.7224 5.62934L20.0704 8.43425L19.4789 8.29274C19.322 8.25552 19.157 8.28294 19.0201 8.36897C18.8832 8.45501 18.7856 8.5926 18.7489 8.75149C18.7121 8.91039 18.7392 9.07755 18.8241 9.21622C18.9091 9.3549 19.0449 9.45371 19.2018 9.49093L19.7928 9.63245L18.8287 13.8059L18.723 14.2615L18.0137 17.3236C18.0137 17.3236 16.5136 23.7976 16.5136 23.7981L16.5145 23.8051ZM20.1836 13.3525L21.7475 6.60205L20.1836 13.3525ZM17.792 23.6787L18.9764 18.5661L17.792 23.6787ZM16.8754 27.6229L17.4925 24.9585L16.8754 27.6229Z" fill="black"/>
<path d="M21.7466 6.59498L21.9939 5.4449C22.0433 5.17648 21.8025 4.80712 21.4029 4.7222C20.8598 4.60616 20.7075 3.67213 20.7508 3.46174C20.8221 3.13153 20.518 2.71357 20.1361 2.623L16.4567 1.74889C16.3138 1.71422 16.1633 1.7334 16.0333 1.80283C15.9033 1.87227 15.8027 1.98723 15.7502 2.12627C15.6406 2.41495 15.4314 2.65366 15.1614 2.79825C14.8915 2.94285 14.579 2.98357 14.2817 2.91287C13.9843 2.84218 13.7224 2.66485 13.5441 2.41368C13.3659 2.16251 13.2835 1.85447 13.3121 1.54651C13.3265 1.39831 13.2872 1.24986 13.2015 1.12885C13.1158 1.00785 12.9896 0.922566 12.8464 0.88892L9.16704 0.0143307C9.02414 -0.0196093 8.87395 -0.000110477 8.74412 0.069236C8.6143 0.138582 8.51358 0.253106 8.46052 0.391715C8.34826 0.678476 8.13875 0.915311 7.86961 1.0597C7.60047 1.20408 7.28933 1.24656 6.99205 1.17951C6.9143 1.16123 6.83375 1.1587 6.75504 1.17207C6.67632 1.18544 6.60099 1.21444 6.53338 1.2574C6.46577 1.30037 6.40722 1.35645 6.36108 1.42242C6.31495 1.48839 6.28215 1.56295 6.26457 1.6418C6.26457 1.6418 5.35499 5.56802 5.35405 5.57132L0.016248 28.6125C-0.00226502 28.6912 -0.00522563 28.7728 0.00753669 28.8527C0.020299 28.9326 0.0485321 29.0091 0.0906099 29.0778C0.132688 29.1466 0.187779 29.2062 0.25271 29.2533C0.317642 29.3004 0.39113 29.334 0.468944 29.3522C0.766229 29.4236 1.02806 29.6013 1.20624 29.8526C1.38441 30.104 1.46693 30.4121 1.43861 30.7202C1.42397 30.8688 1.46313 31.0177 1.54881 31.1392C1.63449 31.2607 1.76085 31.3465 1.90434 31.3807L5.58366 32.2548C5.72659 32.2894 5.87708 32.2703 6.00708 32.2008C6.13708 32.1314 6.2377 32.0164 6.29019 31.8774C6.8025 30.5221 8.86524 31.0179 8.72878 32.4571C8.71435 32.6053 8.75365 32.7538 8.83935 32.8748C8.92505 32.9958 9.0513 33.0811 9.19452 33.1147L12.8738 33.9893C13.0167 34.0223 13.1665 34.0023 13.2961 33.9331C13.4257 33.8639 13.5265 33.7499 13.5804 33.6119C13.6724 33.3708 13.834 33.1634 14.0443 33.0168C14.2545 32.8702 14.5035 32.7912 14.7587 32.7902C15.0265 32.7902 15.257 32.9058 15.508 32.7482C15.5758 32.7057 15.6347 32.6501 15.6812 32.5845C15.7277 32.519 15.761 32.4447 15.7791 32.3661L16.5783 28.9177M16.5145 23.8051L15.5979 27.7502L14.7168 31.5528C14.3147 31.5611 13.9206 31.6676 13.568 31.8634C13.2154 32.0592 12.9148 32.3385 12.6917 32.6774L9.92852 32.0208C9.86602 31.5117 9.65104 31.0343 9.31254 30.6527C8.97403 30.2711 8.52823 30.0037 8.03516 29.8865C7.54208 29.7693 7.02538 29.8079 6.55462 29.9971C6.08385 30.1863 5.68161 30.517 5.40203 30.9448L2.63974 30.2881C2.5886 29.8844 2.44194 29.4991 2.21222 29.165C1.98249 28.831 1.67652 28.5581 1.32031 28.3696L6.39684 6.45016L6.98833 6.59167C7.03413 6.60252 7.08101 6.60806 7.12805 6.60818C7.2805 6.6143 7.42962 6.56189 7.54557 6.46143C7.66152 6.36098 7.73574 6.21989 7.7534 6.06638C7.77106 5.91288 7.73084 5.75828 7.6408 5.63352C7.55076 5.50875 7.41753 5.42302 7.26777 5.39348L6.67675 5.25196L7.32645 2.44799C7.72823 2.43943 8.12203 2.33272 8.47436 2.13692C8.82668 1.94112 9.1271 1.66203 9.35008 1.32338L12.1138 1.98003C12.1764 2.48898 12.3914 2.96629 12.7298 3.34775C13.0683 3.72922 13.514 3.99653 14.007 4.11373C14.5 4.23093 15.0165 4.19239 15.4872 4.00329C15.9579 3.8142 16.3601 3.48363 16.6398 3.05605L19.4025 3.71081C19.4156 3.76996 19.4254 3.82981 19.4319 3.89007C19.4687 4.07395 19.5257 4.25307 19.6019 4.42407C19.8323 4.94111 20.2267 5.36534 20.7224 5.62934L20.0704 8.43425L19.4789 8.29274C19.322 8.25552 19.157 8.28294 19.0201 8.36897C18.8832 8.45501 18.7856 8.5926 18.7489 8.75149C18.7121 8.91039 18.7392 9.07755 18.8241 9.21622C18.9091 9.3549 19.0449 9.45371 19.2018 9.49093L19.7928 9.63245L18.8287 13.8059L18.723 14.2615L18.0137 17.3236C18.0137 17.3236 16.5136 23.7976 16.5136 23.7981L16.5145 23.8051ZM20.1836 13.3525L21.7475 6.60205L20.1836 13.3525ZM17.792 23.6787L18.9764 18.5661L17.792 23.6787ZM16.8754 27.6229L17.4925 24.9585L16.8754 27.6229Z" fill="url(#paint6_linear_1203_145)"/>
<path d="M20.4319 3.02051C20.4859 3.21486 20.5401 3.4089 20.5944 3.60262L20.4319 3.02051Z" fill="black"/>
<path d="M20.4319 3.02051C20.4859 3.21486 20.5401 3.4089 20.5944 3.60262L20.4319 3.02051Z" fill="url(#paint7_linear_1203_145)"/>
</g>
<defs>
<linearGradient id="paint0_linear_1203_145" x1="6.57511" y1="-1.88999" x2="34.139" y2="23.7689" gradientUnits="userSpaceOnUse">
<stop offset="0.0551248" stop-color="#605ED0"/>
<stop offset="0.544221" stop-color="#4CC9F0"/>
<stop offset="0.894485" stop-color="#7209B7"/>
</linearGradient>
<linearGradient id="paint1_linear_1203_145" x1="9.60029" y1="14.8098" x2="14.6974" y2="22.3551" gradientUnits="userSpaceOnUse">
<stop offset="0.0551248" stop-color="#605ED0"/>
<stop offset="0.544221" stop-color="#4CC9F0"/>
<stop offset="0.894485" stop-color="#7209B7"/>
</linearGradient>
<linearGradient id="paint2_linear_1203_145" x1="11.1402" y1="5.9127" x2="10.2232" y2="7.88949" gradientUnits="userSpaceOnUse">
<stop offset="0.10065" stop-color="#7209B7"/>
<stop offset="0.595468" stop-color="#4CC9F0"/>
<stop offset="0.817738" stop-color="#605ED0"/>
</linearGradient>
<linearGradient id="paint3_linear_1203_145" x1="16.0349" y1="7.07371" x2="15.1202" y2="9.05395" gradientUnits="userSpaceOnUse">
<stop offset="0.10065" stop-color="#7209B7"/>
<stop offset="0.595468" stop-color="#4CC9F0"/>
<stop offset="0.817738" stop-color="#605ED0"/>
</linearGradient>
<linearGradient id="paint4_linear_1203_145" x1="11.9383" y1="11.3784" x2="-2.22484" y2="22.2356" gradientUnits="userSpaceOnUse">
<stop offset="0.10065" stop-color="#7209B7"/>
<stop offset="0.595468" stop-color="#4CC9F0"/>
<stop offset="0.817738" stop-color="#605ED0"/>
</linearGradient>
<linearGradient id="paint5_linear_1203_145" x1="11.5194" y1="15.8789" x2="6.05331" y2="21.7506" gradientUnits="userSpaceOnUse">
<stop offset="0.10065" stop-color="#7209B7"/>
<stop offset="0.595468" stop-color="#4CC9F0"/>
<stop offset="0.817738" stop-color="#605ED0"/>
</linearGradient>
<linearGradient id="paint6_linear_1203_145" x1="12.941" y1="5.49774" x2="-8.14146" y2="20.0473" gradientUnits="userSpaceOnUse">
<stop offset="0.10065" stop-color="#7209B7"/>
<stop offset="0.595468" stop-color="#4CC9F0"/>
<stop offset="0.817738" stop-color="#605ED0"/>
</linearGradient>
<linearGradient id="paint7_linear_1203_145" x1="20.5275" y1="3.11465" x2="20.3163" y2="3.17756" gradientUnits="userSpaceOnUse">
<stop offset="0.10065" stop-color="#7209B7"/>
<stop offset="0.595468" stop-color="#4CC9F0"/>
<stop offset="0.817738" stop-color="#605ED0"/>
</linearGradient>
<clipPath id="clip0_1203_145">
<rect width="22" height="34" fill="white"/>
</clipPath>
</defs>
</svg>
