<svg width="40" height="34" viewBox="0 0 40 34" fill="none" xmlns="http://www.w3.org/2000/svg">
<g clip-path="url(#clip0_1194_123)">
<path d="M26.1054 6.71606L37.4738 13.2222L19.3685 26.4445" fill="#D9D9D9"/>
<path d="M39.3786 9.13123L38.178 7.84595L34.9229 6.39885L35.054 4.32351L33.0784 2.33333L30.4756 1.96588L25.8623 5.72883L17.65 22.4857L17.6834 25.0408L19.8011 27.0488L22.0614 27.6288L39.3786 11.4061V9.13123ZM22.3049 24.7131L19.6114 21.8335L27.2502 6.73994L34.2273 13.6753L22.3049 24.7131Z" fill="#1A9CD8"/>
<path d="M39.3786 9.13123L38.178 7.84595L34.9229 6.39885L35.054 4.32351L33.0784 2.33333L30.4756 1.96588L25.8623 5.72883L17.65 22.4857L17.6834 25.0408L19.8011 27.0488L22.0614 27.6288L39.3786 11.4061V9.13123ZM22.3049 24.7131L19.6114 21.8335L27.2502 6.73994L34.2273 13.6753L22.3049 24.7131Z" fill="url(#paint0_linear_1194_123)"/>
<path d="M26.6528 13.3431L26.1612 15.5219L27.9792 16.7463L25.7707 16.8952L24.9826 19.0711L24.1551 16.8506L22.0215 16.7804L23.7572 15.6318L23.1402 13.7471L24.7985 14.6763L26.6528 13.3431Z" fill="#1A9CD8"/>
<path d="M32.1987 7.33128L30.711 5.7256C30.6154 5.62249 30.4826 5.56143 30.3418 5.55584C30.201 5.55025 30.0637 5.60059 29.9602 5.69579C29.8567 5.79098 29.7953 5.92324 29.7897 6.06345C29.7841 6.20367 29.8347 6.34037 29.9303 6.44347L31.4184 8.04915C31.5139 8.15225 31.6467 8.21332 31.7875 8.21891C31.9283 8.2245 32.0656 8.17416 32.1691 8.07896C32.2727 7.98377 32.334 7.85151 32.3396 7.71129C32.3452 7.57108 32.2946 7.43438 32.1991 7.33128H32.1987Z" fill="black"/>
<path d="M32.1987 7.33128L30.711 5.7256C30.6154 5.62249 30.4826 5.56143 30.3418 5.55584C30.201 5.55025 30.0637 5.60059 29.9602 5.69579C29.8567 5.79098 29.7953 5.92324 29.7897 6.06345C29.7841 6.20367 29.8347 6.34037 29.9303 6.44347L31.4184 8.04915C31.5139 8.15225 31.6467 8.21332 31.7875 8.21891C31.9283 8.2245 32.0656 8.17416 32.1691 8.07896C32.2727 7.98377 32.334 7.85151 32.3396 7.71129C32.3452 7.57108 32.2946 7.43438 32.1991 7.33128H32.1987Z" fill="url(#paint1_linear_1194_123)"/>
<path d="M35.1749 10.5426L33.6868 8.93611C33.5912 8.83301 33.4585 8.77192 33.3177 8.7663C33.177 8.76067 33.0397 8.81096 32.9362 8.9061C32.8327 9.00124 32.7713 9.13344 32.7657 9.27362C32.76 9.4138 32.8105 9.55048 32.9061 9.65358L34.3942 11.2593C34.4908 11.3599 34.623 11.4192 34.7627 11.4246C34.9024 11.4301 35.0388 11.3813 35.1431 11.2885C35.1944 11.2416 35.236 11.1851 35.2654 11.1223C35.2948 11.0594 35.3114 10.9914 35.3144 10.9221C35.3173 10.8528 35.3065 10.7836 35.2826 10.7185C35.2586 10.6534 35.222 10.5936 35.1749 10.5426Z" fill="black"/>
<path d="M35.1749 10.5426L33.6868 8.93611C33.5912 8.83301 33.4585 8.77192 33.3177 8.7663C33.177 8.76067 33.0397 8.81096 32.9362 8.9061C32.8327 9.00124 32.7713 9.13344 32.7657 9.27362C32.76 9.4138 32.8105 9.55048 32.9061 9.65358L34.3942 11.2593C34.4908 11.3599 34.623 11.4192 34.7627 11.4246C34.9024 11.4301 35.0388 11.3813 35.1431 11.2885C35.1944 11.2416 35.236 11.1851 35.2654 11.1223C35.2948 11.0594 35.3114 10.9914 35.3144 10.9221C35.3173 10.8528 35.3065 10.7836 35.2826 10.7185C35.2586 10.6534 35.222 10.5936 35.1749 10.5426Z" fill="url(#paint2_linear_1194_123)"/>
<path d="M23.0477 4.47679L25.2823 5.55279C25.2825 5.60484 25.2795 5.65685 25.2734 5.70854C25.2702 5.87004 25.2853 6.03138 25.3182 6.18955C25.4173 6.66709 25.6739 7.09793 26.0472 7.41358L24.9643 9.64426L24.4861 9.41389C24.4234 9.38375 24.3553 9.3662 24.2858 9.36226C24.2162 9.35832 24.1466 9.36805 24.0808 9.39091C24.0151 9.41378 23.9545 9.44931 23.9025 9.49549C23.8505 9.54168 23.8082 9.5976 23.7779 9.66008C23.7477 9.72256 23.73 9.79036 23.7261 9.85961C23.7221 9.92887 23.7319 9.99822 23.7549 10.0637C23.7778 10.1292 23.8135 10.1896 23.8599 10.2413C23.9062 10.2931 23.9624 10.3352 24.0251 10.3654L24.5033 10.5957L22.8934 13.9113L22.7174 14.2739L21.5364 16.7074L19.0363 21.8582L17.5091 24.999L16.043 28.0222C15.9308 27.9997 15.8169 27.9861 15.7025 27.9817C16.0451 28.3249 16.3532 28.7006 16.6225 29.1035C16.6971 29.0519 16.7571 28.9821 16.7968 28.9007L18.1281 26.1594L19.3641 27.4929C19.4522 27.5857 19.5705 27.6441 19.6979 27.6578C19.8253 27.6715 19.9535 27.6395 20.0593 27.5676C20.2784 27.4153 20.5454 27.3472 20.811 27.3759C21.0766 27.4046 21.3227 27.5282 21.5038 27.7237C21.551 27.775 21.6079 27.8164 21.6712 27.8457C21.7346 27.8749 21.8031 27.8915 21.8728 27.8942C21.9426 27.897 22.0122 27.8861 22.0777 27.8619C22.1432 27.8378 22.2032 27.801 22.2544 27.7537L39.8298 11.5996C39.9333 11.5043 39.9946 11.372 40.0002 11.2318C40.0059 11.0916 39.9554 10.9549 39.86 10.8517C39.6793 10.6559 39.5757 10.4017 39.5682 10.1359C39.5607 9.8701 39.6499 9.61054 39.8192 9.40497C39.9014 9.30649 39.9448 9.18159 39.9412 9.0536C39.9377 8.9256 39.8875 8.80326 39.8001 8.70941L37.5602 6.29094C37.4732 6.19649 37.3547 6.13682 37.2267 6.12308C37.0988 6.10935 36.9702 6.14249 36.865 6.21632C36.7391 6.30378 36.5962 6.36417 36.4455 6.39364C36.2948 6.42311 36.1396 6.42101 35.9898 6.38747C35.7706 6.33922 35.5715 6.22495 35.4197 6.06017C35.239 5.86437 35.1354 5.6102 35.1279 5.3444C35.1204 5.0786 35.2096 4.81904 35.379 4.61347C35.4612 4.51496 35.5047 4.38998 35.5011 4.26189C35.4976 4.13381 35.4474 4.01138 35.3598 3.9175L33.1199 1.49945C33.033 1.4051 32.9145 1.3455 32.7866 1.33176C32.6588 1.31803 32.5303 1.35111 32.4251 1.42482C32.2991 1.51218 32.1561 1.57251 32.0054 1.60197C31.8547 1.63143 31.6994 1.62939 31.5495 1.59597C31.3303 1.54762 31.1313 1.43337 30.9794 1.26867C30.9322 1.21742 30.8753 1.17597 30.812 1.1467C30.7487 1.11743 30.6801 1.10093 30.6104 1.09814C30.5406 1.09535 30.471 1.10633 30.4055 1.13045C30.34 1.15456 30.28 1.19134 30.2288 1.23866L26.2638 4.88278C26.2215 4.84032 26.1724 4.80523 26.1184 4.77895M24.2776 15.5762L23.9661 14.9014L24.6177 15.2664C25.071 15.5199 25.4904 14.9614 25.7857 14.6905C25.7857 14.6905 25.6399 15.4177 25.6399 15.4185C25.5381 15.9246 26.2027 16.1522 26.5509 16.3464L25.8105 16.4332C25.6991 16.4463 25.5947 16.4941 25.5123 16.5699C25.4298 16.6457 25.3736 16.7455 25.3516 16.855L25.2054 17.583L24.8938 16.9086C24.8461 16.8077 24.7681 16.7242 24.6704 16.6697C24.5728 16.6152 24.4606 16.5923 24.3493 16.6044L23.6089 16.6912C23.905 16.4142 24.4992 16.0589 24.2764 15.5758L24.2776 15.5762ZM22.1249 17.9286L24.087 17.6966L24.9211 19.5022C24.9672 19.6047 25.0449 19.6899 25.1429 19.7453C25.241 19.8008 25.3542 19.8236 25.4662 19.8105C25.5782 19.7973 25.683 19.749 25.7655 19.6724C25.8479 19.5958 25.9037 19.495 25.9246 19.3846L26.3151 17.4378L28.296 17.2059C28.408 17.1938 28.5132 17.1465 28.5963 17.0708C28.6795 16.9951 28.7362 16.895 28.7583 16.785C28.7804 16.675 28.7666 16.5608 28.7191 16.4591C28.6715 16.3574 28.5927 16.2735 28.4939 16.2195L26.7545 15.2461L27.1451 13.2993C27.1681 13.1896 27.1555 13.0755 27.1089 12.9734C27.0624 12.8714 26.9844 12.7868 26.8863 12.7318C26.7883 12.6769 26.6751 12.6546 26.5634 12.668C26.4517 12.6814 26.3472 12.73 26.265 12.8066L24.7989 14.1535L24.1363 13.7836L26.7427 8.41658L27.6069 7.62246L33.2291 13.6903L32.0358 14.7854L22.0113 24.0013L20.1501 21.9929L22.1249 17.9286ZM38.7677 11.1352L36.94 12.8155L36.5795 12.4265C36.5322 12.3755 36.4752 12.3342 36.4119 12.3051C36.3485 12.276 36.2801 12.2595 36.2103 12.2568C36.1406 12.254 36.071 12.2649 36.0056 12.2889C35.9401 12.313 35.88 12.3496 35.8288 12.3967C35.7775 12.4439 35.7361 12.5006 35.7068 12.5637C35.6776 12.6268 35.6611 12.695 35.6583 12.7644C35.6555 12.8338 35.6665 12.9031 35.6906 12.9683C35.7147 13.0335 35.7515 13.0933 35.7988 13.1444L36.1592 13.5329L21.8757 26.6599C21.5809 26.4689 21.2439 26.3521 20.8937 26.3194C20.5436 26.2868 20.1907 26.3393 19.8655 26.4725L18.6246 25.1341L19.6533 23.0158L21.591 25.1069C21.6871 25.209 21.8197 25.2693 21.9601 25.275C22.1005 25.2806 22.2375 25.231 22.3416 25.1369L32.7562 15.5653L34.34 14.1097C34.4419 14.0136 34.502 13.8816 34.5076 13.742C34.5133 13.6024 34.4639 13.4661 34.3702 13.3622L28.026 6.51604C27.9299 6.41387 27.7973 6.35346 27.6569 6.34784C27.5164 6.34223 27.3794 6.39186 27.2754 6.48603L26.9777 6.75979L26.9606 6.75046C26.7178 6.63285 26.5264 6.43092 26.4226 6.18265C26.4226 6.18265 26.4226 6.17901 26.4226 6.17738L27.9999 4.72744L28.3599 5.11639C28.4566 5.21774 28.5891 5.27757 28.7293 5.28317C28.8695 5.28877 29.0064 5.23971 29.1109 5.1464C29.2144 5.05115 29.2757 4.91889 29.2813 4.77867C29.287 4.63845 29.2365 4.50172 29.1411 4.39852L28.7806 4.00997L30.608 2.33048C30.8238 2.47116 31.0633 2.572 31.315 2.62817C31.7496 2.72466 32.2035 2.68602 32.6153 2.51745L34.2985 4.33363C34.0972 4.72674 34.0218 5.17184 34.0823 5.60897C34.1428 6.0461 34.3364 6.45425 34.637 6.77844C34.9376 7.10263 35.3308 7.32729 35.7635 7.42214C36.1962 7.51699 36.6477 7.47749 37.0572 7.30895L38.7404 9.12512C38.5822 9.43762 38.5021 9.78353 38.5068 10.1335C38.5116 10.4834 38.6011 10.827 38.7677 11.1352Z" fill="black"/>
<path d="M23.0477 4.47679L25.2823 5.55279C25.2825 5.60484 25.2795 5.65685 25.2734 5.70854C25.2702 5.87004 25.2853 6.03138 25.3182 6.18955C25.4173 6.66709 25.6739 7.09793 26.0472 7.41358L24.9643 9.64426L24.4861 9.41389C24.4234 9.38375 24.3553 9.3662 24.2858 9.36226C24.2162 9.35832 24.1466 9.36805 24.0808 9.39091C24.0151 9.41378 23.9545 9.44931 23.9025 9.49549C23.8505 9.54168 23.8082 9.5976 23.7779 9.66008C23.7477 9.72256 23.73 9.79036 23.7261 9.85961C23.7221 9.92887 23.7319 9.99822 23.7549 10.0637C23.7778 10.1292 23.8135 10.1896 23.8599 10.2413C23.9062 10.2931 23.9624 10.3352 24.0251 10.3654L24.5033 10.5957L22.8934 13.9113L22.7174 14.2739L21.5364 16.7074L19.0363 21.8582L17.5091 24.999L16.043 28.0222C15.9308 27.9997 15.8169 27.9861 15.7025 27.9817C16.0451 28.3249 16.3532 28.7006 16.6225 29.1035C16.6971 29.0519 16.7571 28.9821 16.7968 28.9007L18.1281 26.1594L19.3641 27.4929C19.4522 27.5857 19.5705 27.6441 19.6979 27.6578C19.8253 27.6715 19.9535 27.6395 20.0593 27.5676C20.2784 27.4153 20.5454 27.3472 20.811 27.3759C21.0766 27.4046 21.3227 27.5282 21.5038 27.7237C21.551 27.775 21.6079 27.8164 21.6712 27.8457C21.7346 27.8749 21.8031 27.8915 21.8728 27.8942C21.9426 27.897 22.0122 27.8861 22.0777 27.8619C22.1432 27.8378 22.2032 27.801 22.2544 27.7537L39.8298 11.5996C39.9333 11.5043 39.9946 11.372 40.0002 11.2318C40.0059 11.0916 39.9554 10.9549 39.86 10.8517C39.6793 10.6559 39.5757 10.4017 39.5682 10.1359C39.5607 9.8701 39.6499 9.61054 39.8192 9.40497C39.9014 9.30649 39.9448 9.18159 39.9412 9.0536C39.9377 8.9256 39.8875 8.80326 39.8001 8.70941L37.5602 6.29094C37.4732 6.19649 37.3547 6.13682 37.2267 6.12308C37.0988 6.10935 36.9702 6.14249 36.865 6.21632C36.7391 6.30378 36.5962 6.36417 36.4455 6.39364C36.2948 6.42311 36.1396 6.42101 35.9898 6.38747C35.7706 6.33922 35.5715 6.22495 35.4197 6.06017C35.239 5.86437 35.1354 5.6102 35.1279 5.3444C35.1204 5.0786 35.2096 4.81904 35.379 4.61347C35.4612 4.51496 35.5047 4.38998 35.5011 4.26189C35.4976 4.13381 35.4474 4.01138 35.3598 3.9175L33.1199 1.49945C33.033 1.4051 32.9145 1.3455 32.7866 1.33176C32.6588 1.31803 32.5303 1.35111 32.4251 1.42482C32.2991 1.51218 32.1561 1.57251 32.0054 1.60197C31.8547 1.63143 31.6994 1.62939 31.5495 1.59597C31.3303 1.54762 31.1313 1.43337 30.9794 1.26867C30.9322 1.21742 30.8753 1.17597 30.812 1.1467C30.7487 1.11743 30.6801 1.10093 30.6104 1.09814C30.5406 1.09535 30.471 1.10633 30.4055 1.13045C30.34 1.15456 30.28 1.19134 30.2288 1.23866L26.2638 4.88278C26.2215 4.84032 26.1724 4.80523 26.1184 4.77895M24.2776 15.5762L23.9661 14.9014L24.6177 15.2664C25.071 15.5199 25.4904 14.9614 25.7857 14.6905C25.7857 14.6905 25.6399 15.4177 25.6399 15.4185C25.5381 15.9246 26.2027 16.1522 26.5509 16.3464L25.8105 16.4332C25.6991 16.4463 25.5947 16.4941 25.5123 16.5699C25.4298 16.6457 25.3736 16.7455 25.3516 16.855L25.2054 17.583L24.8938 16.9086C24.8461 16.8077 24.7681 16.7242 24.6704 16.6697C24.5728 16.6152 24.4606 16.5923 24.3493 16.6044L23.6089 16.6912C23.905 16.4142 24.4992 16.0589 24.2764 15.5758L24.2776 15.5762ZM22.1249 17.9286L24.087 17.6966L24.9211 19.5022C24.9672 19.6047 25.0449 19.6899 25.1429 19.7453C25.241 19.8008 25.3542 19.8236 25.4662 19.8105C25.5782 19.7973 25.683 19.749 25.7655 19.6724C25.8479 19.5958 25.9037 19.495 25.9246 19.3846L26.3151 17.4378L28.296 17.2059C28.408 17.1938 28.5132 17.1465 28.5963 17.0708C28.6795 16.9951 28.7362 16.895 28.7583 16.785C28.7804 16.675 28.7666 16.5608 28.7191 16.4591C28.6715 16.3574 28.5927 16.2735 28.4939 16.2195L26.7545 15.2461L27.1451 13.2993C27.1681 13.1896 27.1555 13.0755 27.1089 12.9734C27.0624 12.8714 26.9844 12.7868 26.8863 12.7318C26.7883 12.6769 26.6751 12.6546 26.5634 12.668C26.4517 12.6814 26.3472 12.73 26.265 12.8066L24.7989 14.1535L24.1363 13.7836L26.7427 8.41658L27.6069 7.62246L33.2291 13.6903L32.0358 14.7854L22.0113 24.0013L20.1501 21.9929L22.1249 17.9286ZM38.7677 11.1352L36.94 12.8155L36.5795 12.4265C36.5322 12.3755 36.4752 12.3342 36.4119 12.3051C36.3485 12.276 36.2801 12.2595 36.2103 12.2568C36.1406 12.254 36.071 12.2649 36.0056 12.2889C35.9401 12.313 35.88 12.3496 35.8288 12.3967C35.7775 12.4439 35.7361 12.5006 35.7068 12.5637C35.6776 12.6268 35.6611 12.695 35.6583 12.7644C35.6555 12.8338 35.6665 12.9031 35.6906 12.9683C35.7147 13.0335 35.7515 13.0933 35.7988 13.1444L36.1592 13.5329L21.8757 26.6599C21.5809 26.4689 21.2439 26.3521 20.8937 26.3194C20.5436 26.2868 20.1907 26.3393 19.8655 26.4725L18.6246 25.1341L19.6533 23.0158L21.591 25.1069C21.6871 25.209 21.8197 25.2693 21.9601 25.275C22.1005 25.2806 22.2375 25.231 22.3416 25.1369L32.7562 15.5653L34.34 14.1097C34.4419 14.0136 34.502 13.8816 34.5076 13.742C34.5133 13.6024 34.4639 13.4661 34.3702 13.3622L28.026 6.51604C27.9299 6.41387 27.7973 6.35346 27.6569 6.34784C27.5164 6.34223 27.3794 6.39186 27.2754 6.48603L26.9777 6.75979L26.9606 6.75046C26.7178 6.63285 26.5264 6.43092 26.4226 6.18265C26.4226 6.18265 26.4226 6.17901 26.4226 6.17738L27.9999 4.72744L28.3599 5.11639C28.4566 5.21774 28.5891 5.27757 28.7293 5.28317C28.8695 5.28877 29.0064 5.23971 29.1109 5.1464C29.2144 5.05115 29.2757 4.91889 29.2813 4.77867C29.287 4.63845 29.2365 4.50172 29.1411 4.39852L28.7806 4.00997L30.608 2.33048C30.8238 2.47116 31.0633 2.572 31.315 2.62817C31.7496 2.72466 32.2035 2.68602 32.6153 2.51745L34.2985 4.33363C34.0972 4.72674 34.0218 5.17184 34.0823 5.60897C34.1428 6.0461 34.3364 6.45425 34.637 6.77844C34.9376 7.10263 35.3308 7.32729 35.7635 7.42214C36.1962 7.51699 36.6477 7.47749 37.0572 7.30895L38.7404 9.12512C38.5822 9.43762 38.5021 9.78353 38.5068 10.1335C38.5116 10.4834 38.6011 10.827 38.7677 11.1352Z" fill="url(#paint3_linear_1194_123)"/>
<path d="M2.57785 13.9034L2.82666 29.6765L12.0258 29.5325L11.777 13.7595L2.57785 13.9034Z" fill="white"/>
<path d="M14.6349 7.37726L9.10315 22.159L17.7241 25.3588L23.2559 10.577L14.6349 7.37726Z" fill="white"/>
<path d="M11.6555 6.62836L9.89336 6.67784L6.65326 8.1582L5.17452 6.69041L2.36895 6.85507L0.373413 8.5585L1.02502 31.8419L2.90408 33.3941L5.75486 33.2886L7.38387 31.6979L9.33461 33.3608L12.4159 33.3243L14.1769 31.7932L13.3717 8.1294L11.6555 6.62836ZM12.1406 29.6875L2.90449 29.9548L2.48787 13.6582L11.6853 13.4826L12.1406 29.6875Z" fill="url(#paint4_linear_1194_123)"/>
<path d="M6.54491 18.7673L8.02854 20.4416L10.0905 19.6937L8.91594 21.5626L10.2236 23.4741L7.93202 22.8389L6.62392 24.5188L6.70782 22.4451L4.81287 21.8376L6.54125 21.0447L6.54491 18.7673Z" fill="#1A9CD8"/>
<path d="M25.7673 4.01196L24.1127 3.40765L20.5525 3.58651L19.7253 1.67624L17.0586 0.793701L14.5711 1.64014L12.1683 7.07489L12.4701 25.7185L13.663 27.9824L16.453 28.839L18.7438 28.3142L26.8026 6.03985L25.7673 4.01196ZM17.6345 25.6074L13.9228 24.2552L13.8662 7.35433L23.2415 10.3901L17.6345 25.6074Z" fill="#1A9CD8"/>
<path d="M25.7673 4.01196L24.1127 3.40765L20.5525 3.58651L19.7253 1.67624L17.0586 0.793701L14.5711 1.64014L12.1683 7.07489L12.4701 25.7185L13.663 27.9824L16.453 28.839L18.7438 28.3142L26.8026 6.03985L25.7673 4.01196ZM17.6345 25.6074L13.9228 24.2552L13.8662 7.35433L23.2415 10.3901L17.6345 25.6074Z" fill="url(#paint5_linear_1194_123)"/>
<path d="M16.3377 13.509L16.8908 15.6731L19.0679 15.9445L17.1669 17.0736L17.4544 19.3688L15.7065 17.7623L13.7724 18.6627L14.7975 16.8558L13.39 15.4537L15.2911 15.534L16.3377 13.509Z" fill="#1A9CD8"/>
<path d="M18.5471 5.64725L16.4908 4.8872C16.3587 4.83837 16.2126 4.84379 16.0845 4.90228C15.9564 4.96077 15.8569 5.06754 15.8079 5.19909C15.7588 5.33064 15.7643 5.47621 15.823 5.60376C15.8817 5.73131 15.989 5.83041 16.121 5.87924L18.1781 6.6393C18.2435 6.66348 18.313 6.67459 18.3828 6.672C18.4525 6.66942 18.521 6.65318 18.5844 6.62422C18.6478 6.59525 18.7049 6.55414 18.7524 6.50321C18.7998 6.45228 18.8368 6.39255 18.861 6.32741C18.8853 6.26227 18.8965 6.19301 18.8939 6.12357C18.8913 6.05414 18.875 5.98589 18.8459 5.92274C18.8168 5.85958 18.7755 5.80274 18.7244 5.75547C18.6733 5.70821 18.6133 5.67143 18.5479 5.64725H18.5471Z" fill="black"/>
<path d="M18.5471 5.64725L16.4908 4.8872C16.3587 4.83837 16.2126 4.84379 16.0845 4.90228C15.9564 4.96077 15.8569 5.06754 15.8079 5.19909C15.7588 5.33064 15.7643 5.47621 15.823 5.60376C15.8817 5.73131 15.989 5.83041 16.121 5.87924L18.1781 6.6393C18.2435 6.66348 18.313 6.67459 18.3828 6.672C18.4525 6.66942 18.521 6.65318 18.5844 6.62422C18.6478 6.59525 18.7049 6.55414 18.7524 6.50321C18.7998 6.45228 18.8368 6.39255 18.861 6.32741C18.8853 6.26227 18.8965 6.19301 18.8939 6.12357C18.8913 6.05414 18.875 5.98589 18.8459 5.92274C18.8168 5.85958 18.7755 5.80274 18.7244 5.75547C18.6733 5.70821 18.6133 5.67143 18.5479 5.64725H18.5471Z" fill="url(#paint6_linear_1194_123)"/>
<path d="M22.6612 7.167L20.6042 6.40735C20.5388 6.38317 20.4693 6.37205 20.3996 6.37463C20.3299 6.37721 20.2614 6.39343 20.198 6.42237C20.1346 6.45132 20.0775 6.49241 20.0301 6.54332C19.9826 6.59422 19.9457 6.65393 19.9214 6.71904C19.8971 6.78415 19.886 6.85339 19.8885 6.9228C19.8911 6.99221 19.9074 7.06043 19.9365 7.12357C19.9656 7.18671 20.0068 7.24353 20.0579 7.29079C20.109 7.33804 20.169 7.37481 20.2344 7.39899L22.2914 8.15904C22.4236 8.20575 22.5689 8.1993 22.6964 8.14107C22.8239 8.08284 22.9236 7.9774 22.9744 7.84715C23.0233 7.71559 23.0177 7.5701 22.959 7.44259C22.9003 7.31508 22.7932 7.21597 22.6612 7.167Z" fill="black"/>
<path d="M22.6612 7.167L20.6042 6.40735C20.5388 6.38317 20.4693 6.37205 20.3996 6.37463C20.3299 6.37721 20.2614 6.39343 20.198 6.42237C20.1346 6.45132 20.0775 6.49241 20.0301 6.54332C19.9826 6.59422 19.9457 6.65393 19.9214 6.71904C19.8971 6.78415 19.886 6.85339 19.8885 6.9228C19.8911 6.99221 19.9074 7.06043 19.9365 7.12357C19.9656 7.18671 20.0068 7.24353 20.0579 7.29079C20.109 7.33804 20.169 7.37481 20.2344 7.39899L22.2914 8.15904C22.4236 8.20575 22.5689 8.1993 22.6964 8.14107C22.8239 8.08284 22.9236 7.9774 22.9744 7.84715C23.0233 7.71559 23.0177 7.5701 22.959 7.44259C22.9003 7.31508 22.7932 7.21597 22.6612 7.167Z" fill="url(#paint7_linear_1194_123)"/>
<path d="M5.98699 10.8257L3.79352 10.8691C3.72378 10.8705 3.655 10.8855 3.5911 10.9134C3.5272 10.9412 3.46944 10.9813 3.42111 11.0314C3.3235 11.1326 3.27025 11.2682 3.27305 11.4085C3.27586 11.5488 3.33451 11.6822 3.43609 11.7794C3.53766 11.8766 3.67386 11.9296 3.8147 11.9268L6.00817 11.8834C6.04939 11.8828 6.0904 11.8774 6.13034 11.8672C6.26045 11.8389 6.37508 11.7628 6.45138 11.6541C6.52767 11.5454 6.56002 11.4121 6.54199 11.2807C6.52396 11.1493 6.45686 11.0295 6.35407 10.9451C6.25128 10.8608 6.12036 10.8182 5.9874 10.8257H5.98699Z" fill="black"/>
<path d="M5.98699 10.8257L3.79352 10.8691C3.72378 10.8705 3.655 10.8855 3.5911 10.9134C3.5272 10.9412 3.46944 10.9813 3.42111 11.0314C3.3235 11.1326 3.27025 11.2682 3.27305 11.4085C3.27586 11.5488 3.33451 11.6822 3.43609 11.7794C3.53766 11.8766 3.67386 11.9296 3.8147 11.9268L6.00817 11.8834C6.04939 11.8828 6.0904 11.8774 6.13034 11.8672C6.26045 11.8389 6.37508 11.7628 6.45138 11.6541C6.52767 11.5454 6.56002 11.4121 6.54199 11.2807C6.52396 11.1493 6.45686 11.0295 6.35407 10.9451C6.25128 10.8608 6.12036 10.8182 5.9874 10.8257H5.98699Z" fill="url(#paint8_linear_1194_123)"/>
<path d="M10.3743 10.7393L8.18284 10.7823C8.04194 10.785 7.90791 10.8434 7.81023 10.9446C7.71254 11.0457 7.65921 11.1814 7.66197 11.3217C7.66472 11.462 7.72333 11.5955 7.82491 11.6928C7.92649 11.7901 8.06271 11.8432 8.20361 11.8404L10.3971 11.797C10.4383 11.7962 10.4793 11.7908 10.5193 11.7808C10.6493 11.7525 10.7639 11.6764 10.8401 11.5678C10.9164 11.4591 10.9488 11.3259 10.9308 11.1945C10.9128 11.0632 10.8458 10.9434 10.7431 10.859C10.6404 10.7746 10.5096 10.7319 10.3767 10.7393H10.3743Z" fill="black"/>
<path d="M10.3743 10.7393L8.18284 10.7823C8.04194 10.785 7.90791 10.8434 7.81023 10.9446C7.71254 11.0457 7.65921 11.1814 7.66197 11.3217C7.66472 11.462 7.72333 11.5955 7.82491 11.6928C7.92649 11.7901 8.06271 11.8432 8.20361 11.8404L10.3971 11.797C10.4383 11.7962 10.4793 11.7908 10.5193 11.7808C10.6493 11.7525 10.7639 11.6764 10.8401 11.5678C10.9164 11.4591 10.9488 11.3259 10.9308 11.1945C10.9128 11.0632 10.8458 10.9434 10.7431 10.859C10.6404 10.7746 10.5096 10.7319 10.3767 10.7393H10.3743Z" fill="url(#paint9_linear_1194_123)"/>
<path d="M11.8046 12.9623L4.67117 13.1026L3.00469 14.194L11.2947 14.0318L11.5969 29.2312L3.30687 29.3934L3.00469 14.194L4.67117 13.1026L2.45245 13.1464C2.31163 13.1493 2.17772 13.2077 2.08013 13.3088C1.98254 13.41 1.92926 13.5456 1.93198 13.6858L2.25534 29.945C2.25651 30.0145 2.27147 30.0831 2.29936 30.1469C2.32725 30.2106 2.36753 30.2682 2.41787 30.3164C2.46822 30.3646 2.52763 30.4024 2.5927 30.4276C2.65776 30.4528 2.72719 30.465 2.79699 30.4634L12.1487 30.2792C12.19 30.2782 12.2309 30.2727 12.2709 30.2626C12.3869 30.2329 12.4894 30.1652 12.5619 30.0703C12.6344 29.9755 12.6726 29.859 12.6704 29.7398L12.3471 13.4822C12.3461 13.4125 12.3313 13.3436 12.3035 13.2796C12.2756 13.2157 12.2353 13.1578 12.1848 13.1095C12.1344 13.0611 12.0748 13.0232 12.0095 12.9979C11.9443 12.9727 11.8746 12.9605 11.8046 12.9623Z" fill="black"/>
<path d="M11.8046 12.9623L4.67117 13.1026L3.00469 14.194L11.2947 14.0318L11.5969 29.2312L3.30687 29.3934L3.00469 14.194L4.67117 13.1026L2.45245 13.1464C2.31163 13.1493 2.17772 13.2077 2.08013 13.3088C1.98254 13.41 1.92926 13.5456 1.93198 13.6858L2.25534 29.945C2.25651 30.0145 2.27147 30.0831 2.29936 30.1469C2.32725 30.2106 2.36753 30.2682 2.41787 30.3164C2.46822 30.3646 2.52763 30.4024 2.5927 30.4276C2.65776 30.4528 2.72719 30.465 2.79699 30.4634L12.1487 30.2792C12.19 30.2782 12.2309 30.2727 12.2709 30.2626C12.3869 30.2329 12.4894 30.1652 12.5619 30.0703C12.6344 29.9755 12.6726 29.859 12.6704 29.7398L12.3471 13.4822C12.3461 13.4125 12.3313 13.3436 12.3035 13.2796C12.2756 13.2157 12.2353 13.1578 12.1848 13.1095C12.1344 13.0611 12.0748 13.0232 12.0095 12.9979C11.9443 12.9727 11.8746 12.9605 11.8046 12.9623Z" fill="url(#paint10_linear_1194_123)"/>
<path d="M10.6488 19.4166C10.581 19.3277 10.4867 19.2624 10.3793 19.2303C10.2719 19.1981 10.1571 19.2008 10.0513 19.2378L8.16697 19.8867L6.96312 18.3049C6.89601 18.2147 6.80173 18.1482 6.694 18.1151C6.58628 18.0819 6.47075 18.0839 6.36422 18.1207C6.2577 18.1575 6.16576 18.2272 6.10178 18.3196C6.0378 18.4121 6.00513 18.5225 6.00852 18.6347L6.04925 20.622L4.16489 21.2734C4.05807 21.3091 3.96549 21.3779 3.90061 21.4696C3.83574 21.5614 3.80195 21.6714 3.80418 21.7836C3.80641 21.8958 3.84453 22.0044 3.91299 22.0935C3.98145 22.1826 4.07669 22.2477 4.18484 22.2792L6.09323 22.8555L6.13396 24.8429C6.13491 24.9552 6.17188 25.0644 6.23948 25.1543C6.30709 25.2443 6.40179 25.3104 6.50977 25.343C6.61775 25.3756 6.73337 25.373 6.83976 25.3356C6.94615 25.2981 7.03774 25.2278 7.10118 25.1349L8.24149 23.5053L10.1503 24.0816C10.2581 24.1152 10.3739 24.1135 10.4807 24.0769C10.5875 24.0403 10.6798 23.9706 10.744 23.878C10.8082 23.7854 10.841 23.6748 10.8375 23.5624C10.8341 23.4499 10.7946 23.3415 10.7249 23.253L9.52108 21.6712L10.6614 20.0416C10.7265 19.9497 10.7604 19.8395 10.7581 19.7271C10.7558 19.6146 10.7175 19.5059 10.6488 19.4166ZM8.44105 22.0006L8.89106 22.5923L8.17755 22.377C7.68396 22.2281 7.38993 22.8636 7.16146 23.1881L7.1468 22.4463C7.1446 22.3346 7.10698 22.2265 7.03931 22.1374C6.97165 22.0483 6.87741 21.9828 6.77009 21.9503L6.05658 21.7349L6.76072 21.4916C7.24942 21.3224 7.11096 20.6354 7.10281 20.2392L7.55079 20.8309C7.86397 21.2426 8.47566 20.8982 8.854 20.768C8.6235 21.1006 8.12013 21.578 8.44105 22.0006Z" fill="black"/>
<path d="M10.6488 19.4166C10.581 19.3277 10.4867 19.2624 10.3793 19.2303C10.2719 19.1981 10.1571 19.2008 10.0513 19.2378L8.16697 19.8867L6.96312 18.3049C6.89601 18.2147 6.80173 18.1482 6.694 18.1151C6.58628 18.0819 6.47075 18.0839 6.36422 18.1207C6.2577 18.1575 6.16576 18.2272 6.10178 18.3196C6.0378 18.4121 6.00513 18.5225 6.00852 18.6347L6.04925 20.622L4.16489 21.2734C4.05807 21.3091 3.96549 21.3779 3.90061 21.4696C3.83574 21.5614 3.80195 21.6714 3.80418 21.7836C3.80641 21.8958 3.84453 22.0044 3.91299 22.0935C3.98145 22.1826 4.07669 22.2477 4.18484 22.2792L6.09323 22.8555L6.13396 24.8429C6.13491 24.9552 6.17188 25.0644 6.23948 25.1543C6.30709 25.2443 6.40179 25.3104 6.50977 25.343C6.61775 25.3756 6.73337 25.373 6.83976 25.3356C6.94615 25.2981 7.03774 25.2278 7.10118 25.1349L8.24149 23.5053L10.1503 24.0816C10.2581 24.1152 10.3739 24.1135 10.4807 24.0769C10.5875 24.0403 10.6798 23.9706 10.744 23.878C10.8082 23.7854 10.841 23.6748 10.8375 23.5624C10.8341 23.4499 10.7946 23.3415 10.7249 23.253L9.52108 21.6712L10.6614 20.0416C10.7265 19.9497 10.7604 19.8395 10.7581 19.7271C10.7558 19.6146 10.7175 19.5059 10.6488 19.4166ZM8.44105 22.0006L8.89106 22.5923L8.17755 22.377C7.68396 22.2281 7.38993 22.8636 7.16146 23.1881L7.1468 22.4463C7.1446 22.3346 7.10698 22.2265 7.03931 22.1374C6.97165 22.0483 6.87741 21.9828 6.77009 21.9503L6.05658 21.7349L6.76072 21.4916C7.24942 21.3224 7.11096 20.6354 7.10281 20.2392L7.55079 20.8309C7.86397 21.2426 8.47566 20.8982 8.854 20.768C8.6235 21.1006 8.12013 21.578 8.44105 22.0006Z" fill="url(#paint11_linear_1194_123)"/>
<path d="M26.9776 5.3289C26.728 5.23541 26.5206 5.05542 26.3934 4.82196C26.2662 4.58849 26.2278 4.31719 26.2853 4.05782C26.3139 3.93286 26.2958 3.80181 26.2344 3.68917C26.173 3.57653 26.0725 3.49002 25.9517 3.4458L22.8538 2.30126C22.7333 2.2563 22.6005 2.25658 22.4802 2.30203C22.3599 2.34749 22.2603 2.43502 22.2001 2.54826C22.1273 2.68322 22.027 2.8016 21.9057 2.89586C21.7844 2.99012 21.6447 3.05821 21.4956 3.09579C21.2783 3.15131 21.0492 3.13914 20.8391 3.06091C20.5893 2.96755 20.3817 2.78753 20.2545 2.55393C20.1273 2.32033 20.089 2.04886 20.1468 1.78942C20.1752 1.66452 20.1571 1.53357 20.0957 1.42102C20.0343 1.30847 19.9339 1.22202 19.8132 1.17781L16.7152 0.0328626C16.5947 -0.0115292 16.462 -0.0109284 16.3419 0.0345543C16.2217 0.080037 16.1221 0.167323 16.0616 0.280265C15.9355 0.515692 15.7277 0.697466 15.4771 0.791768C15.2264 0.88607 14.9499 0.886478 14.6989 0.792916C14.6335 0.768483 14.5639 0.757175 14.4942 0.759643C14.4244 0.762111 14.3557 0.778307 14.2923 0.807297C14.2288 0.836288 14.1717 0.877499 14.1243 0.928559C14.0768 0.979619 14.04 1.03952 14.016 1.1048L12.141 6.14249C12.0839 6.12336 12.024 6.11417 11.9638 6.11531L8.66018 6.18061C8.53139 6.18258 8.40774 6.23123 8.31238 6.31746C8.21702 6.40369 8.1565 6.52158 8.14215 6.64905C8.10853 6.9123 7.9817 7.15497 7.78446 7.3334C7.58722 7.51183 7.33253 7.61433 7.06619 7.62244C6.7992 7.62721 6.53947 7.53578 6.33481 7.36497C6.13015 7.19417 5.99433 6.95548 5.95235 6.69286C5.93262 6.56645 5.86742 6.45149 5.76889 6.36941C5.67037 6.28733 5.54523 6.24373 5.41681 6.24672L2.1148 6.30959C1.98616 6.31175 1.8627 6.36049 1.76752 6.4467C1.67233 6.53291 1.61193 6.65069 1.59759 6.77803C1.56366 7.04115 1.43673 7.28362 1.23956 7.462C1.04239 7.64037 0.787871 7.74297 0.52163 7.75142C0.451787 7.75252 0.382854 7.76738 0.318803 7.79514C0.254752 7.82289 0.19685 7.86299 0.148432 7.91313C0.100014 7.96328 0.0620377 8.02246 0.036692 8.08729C0.0113464 8.15211 -0.000867877 8.22129 0.000752899 8.29083C0.000752899 8.29083 0.0699858 11.7573 0.0699858 11.7606L0.474389 32.1043C0.475659 32.1737 0.490669 32.2422 0.518559 32.3058C0.546449 32.3694 0.58667 32.4268 0.636916 32.4749C0.687161 32.523 0.746443 32.5607 0.811361 32.5859C0.876279 32.6112 0.945557 32.6234 1.01522 32.6219C1.28222 32.6173 1.54191 32.7088 1.74655 32.8797C1.95118 33.0505 2.08701 33.2892 2.12906 33.5518C2.14879 33.6783 2.21399 33.7932 2.31252 33.8753C2.41104 33.9574 2.53618 34.001 2.6646 33.998L5.96823 33.9331C6.09673 33.9304 6.2199 33.8815 6.31498 33.7954C6.41006 33.7093 6.47061 33.5918 6.48545 33.4646C6.6288 32.2256 8.48302 32.1932 8.67525 33.4213C8.69497 33.5477 8.76018 33.6626 8.8587 33.7447C8.95723 33.8268 9.08236 33.8704 9.21078 33.8674L12.5144 33.8021C12.6426 33.7986 12.7653 33.7494 12.8602 33.6636C12.9551 33.5777 13.0159 33.4608 13.0316 33.3341C13.0579 33.1133 13.1505 32.9055 13.2973 32.738C13.4441 32.5705 13.6382 32.451 13.8543 32.3951C14.0811 32.3375 14.3023 32.3842 14.4802 32.1988C14.5777 32.0976 14.6309 31.9619 14.6281 31.8217L14.5678 28.777L16.2783 29.4085C16.3986 29.4509 16.5302 29.4493 16.6496 29.4041C16.7689 29.3588 16.8683 29.2729 16.9299 29.1615C17.0027 29.0275 17.1026 28.9099 17.2233 28.8162C17.344 28.7226 17.4829 28.6548 17.6312 28.6172C17.8484 28.5617 18.0775 28.5738 18.2876 28.6521C18.353 28.6765 18.4226 28.6878 18.4924 28.6853C18.5622 28.6829 18.6308 28.6667 18.6943 28.6377C18.7578 28.6087 18.8149 28.5675 18.8623 28.5164C18.9097 28.4654 18.9465 28.4055 18.9706 28.3402L27.2896 6.00905C27.3141 5.94401 27.3255 5.87478 27.3231 5.80533C27.3208 5.73588 27.3046 5.66759 27.2756 5.60438C27.2466 5.54117 27.2054 5.48429 27.1542 5.43701C27.1031 5.38974 27.0431 5.35299 26.9776 5.3289ZM13.4206 24.5354L13.4898 28.0234L13.5586 31.3824C13.22 31.4761 12.9091 31.6499 12.6524 31.889C12.3957 32.1281 12.2008 32.4255 12.0844 32.7557L9.60256 32.8048C9.44056 32.3944 9.15624 32.0433 8.78786 31.7987C8.41948 31.554 7.9847 31.4276 7.54202 31.4365C7.09934 31.4453 6.66999 31.5889 6.31175 31.8481C5.9535 32.1072 5.68354 32.4694 5.53817 32.8859L3.05678 32.9346C2.92694 32.6094 2.72025 32.3202 2.45424 32.0916C2.18823 31.863 1.87075 31.7016 1.52877 31.6213L1.14391 12.2675L1.67334 12.257C1.71456 12.2562 1.75555 12.2508 1.79552 12.2408C1.92556 12.2125 2.04013 12.1364 2.11639 12.0277C2.19266 11.9191 2.22503 11.7858 2.20705 11.6545C2.18907 11.5231 2.12207 11.4033 2.01939 11.319C1.91671 11.2346 1.78589 11.1918 1.65298 11.1992L1.12355 11.2098L1.07183 8.73332C1.41041 8.63958 1.72123 8.46576 1.97784 8.22666C2.23446 7.98756 2.42926 7.69024 2.54568 7.36003L5.02748 7.31096C5.18948 7.72133 5.4738 8.07245 5.84218 8.31707C6.21057 8.5617 6.64534 8.6881 7.08802 8.67926C7.5307 8.67043 7.96005 8.52678 8.31829 8.26766C8.67654 8.00853 8.9465 7.64635 9.09187 7.22984L11.5737 7.18077C11.5972 7.22732 11.6181 7.27511 11.6364 7.32394C11.7781 7.61528 11.9832 7.87152 12.2368 8.07399C12.4904 8.27647 12.7861 8.4201 13.1025 8.49443L13.1514 10.9717L12.6219 10.9822C12.4811 10.985 12.3471 11.0434 12.2495 11.1446C12.1519 11.2458 12.0987 11.3814 12.1015 11.5217C12.1043 11.6619 12.1629 11.7953 12.2645 11.8925C12.3661 11.9898 12.5023 12.0428 12.6431 12.04L13.1725 12.0295L13.2458 15.7117L13.254 16.114L13.3078 18.8176C13.3078 18.8176 13.4202 24.5354 13.4206 24.5354ZM25.268 8.3975L24.7699 8.21337C24.6378 8.16459 24.4917 8.17006 24.3636 8.22859C24.2356 8.28712 24.1361 8.39391 24.0871 8.52546C24.0382 8.65701 24.0436 8.80256 24.1024 8.93007C24.1612 9.05759 24.2684 9.15663 24.4005 9.20541L24.8986 9.38914L18.1382 27.5371C17.7884 27.4997 17.4348 27.5475 17.1077 27.6764C16.7807 27.8054 16.49 28.0116 16.2607 28.2773L14.5458 27.6434L14.499 25.291L17.1779 26.2806C17.3097 26.3282 17.455 26.3223 17.5826 26.2643C17.7101 26.2063 17.8097 26.1007 17.86 25.9704L22.7878 12.7376L21.7921 12.3693L17.0467 25.1045L14.4737 24.1534L14.3841 19.6393L16.0315 18.5483L17.5953 19.7809C17.683 19.8516 17.7911 19.8926 17.9038 19.8978C18.0165 19.9031 18.1279 19.8723 18.2219 19.8101C18.3158 19.7478 18.3873 19.6573 18.426 19.5517C18.4646 19.4461 18.4684 19.331 18.4367 19.2232L17.8987 17.3113L19.5591 16.211C19.6536 16.1497 19.726 16.06 19.7657 15.955C19.8055 15.8499 19.8105 15.735 19.7801 15.6269C19.7497 15.5187 19.6855 15.4231 19.5967 15.3539C19.508 15.2847 19.3993 15.2455 19.2866 15.242L17.2939 15.1609L16.756 13.2474C16.7266 13.139 16.6633 13.0427 16.5752 12.9727C16.4871 12.9026 16.3788 12.8624 16.2661 12.8578C16.1535 12.8533 16.0423 12.8847 15.9488 12.9475C15.8553 13.0103 15.7844 13.1011 15.7464 13.2068L15.0541 15.0689L14.2953 15.0376L14.1768 9.07563L14.5841 7.97773L22.3581 10.85L21.7933 12.3665L22.789 12.7348L23.5388 10.7227C23.586 10.591 23.5797 10.4462 23.5212 10.3191C23.4626 10.1921 23.3566 10.0928 23.2256 10.0425L14.4546 6.80317C14.3224 6.7555 14.1767 6.76148 14.049 6.81983C13.9212 6.87818 13.8216 6.98422 13.7716 7.11506L13.6307 7.49347H13.6112C13.3411 7.49819 13.0787 7.40443 12.8732 7.22984L12.8687 7.22619L13.6156 5.22183L14.1133 5.40596C14.2455 5.45277 14.3908 5.44637 14.5184 5.38813C14.6459 5.32988 14.7456 5.22438 14.7963 5.09407C14.8208 5.02895 14.8322 4.95964 14.8297 4.89014C14.8272 4.82063 14.8109 4.7523 14.7818 4.68908C14.7527 4.62586 14.7113 4.569 14.6601 4.52177C14.6088 4.47455 14.5486 4.43789 14.4831 4.41392L13.985 4.22978L14.85 1.90825C15.1074 1.93624 15.3677 1.91769 15.6185 1.8535C16.0497 1.74333 16.4367 1.50427 16.7275 1.16848L19.0565 2.02709C19.0562 2.46809 19.1916 2.8986 19.4443 3.26071C19.697 3.62283 20.0551 3.89918 20.4702 4.05259C20.8854 4.206 21.3378 4.22911 21.7665 4.11882C22.1953 4.00853 22.5798 3.77012 22.8684 3.43566L25.1951 4.29549C25.1959 4.64523 25.2815 4.98961 25.4446 5.29937C25.6077 5.60912 25.8434 5.87512 26.1317 6.07476L25.268 8.3975ZM16.973 17.9399L16.3882 17.4792C16.2999 17.4107 16.1922 17.3714 16.0804 17.3668C15.9685 17.3622 15.858 17.3926 15.7643 17.4537L15.1436 17.8649C15.285 17.4849 15.6531 16.9 15.2345 16.5699L14.6501 16.1108L15.3949 16.1412C15.9142 16.1623 16.0343 15.4756 16.174 15.1005C16.174 15.1005 16.3748 15.8147 16.3752 15.8155C16.5149 16.3128 17.2109 16.2158 17.6096 16.232L16.9889 16.6421C16.8953 16.7038 16.8238 16.7936 16.7848 16.8984C16.7458 17.0033 16.7413 17.1177 16.7718 17.2253L16.973 17.9399Z" fill="url(#paint12_linear_1194_123)"/>
</g>
<defs>
<linearGradient id="paint0_linear_1194_123" x1="23.8963" y1="-0.0693766" x2="45" y2="26.575" gradientUnits="userSpaceOnUse">
<stop offset="0.0551248" stop-color="#605ED0"/>
<stop offset="0.544221" stop-color="#4CC9F0"/>
<stop offset="0.894485" stop-color="#7209B7"/>
</linearGradient>
<linearGradient id="paint1_linear_1194_123" x1="31.2897" y1="5.98624" x2="29.5237" y2="7.79003" gradientUnits="userSpaceOnUse">
<stop offset="0.10065" stop-color="#7209B7"/>
<stop offset="0.595468" stop-color="#4CC9F0"/>
<stop offset="0.817738" stop-color="#605ED0"/>
</linearGradient>
<linearGradient id="paint2_linear_1194_123" x1="34.265" y1="9.19592" x2="32.5022" y2="10.9989" gradientUnits="userSpaceOnUse">
<stop offset="0.10065" stop-color="#7209B7"/>
<stop offset="0.595468" stop-color="#4CC9F0"/>
<stop offset="0.817738" stop-color="#605ED0"/>
</linearGradient>
<linearGradient id="paint3_linear_1194_123" x1="29.9953" y1="5.62691" x2="11.4808" y2="22.7625" gradientUnits="userSpaceOnUse">
<stop offset="0.10065" stop-color="#7209B7"/>
<stop offset="0.595468" stop-color="#4CC9F0"/>
<stop offset="0.817738" stop-color="#605ED0"/>
</linearGradient>
<linearGradient id="paint4_linear_1194_123" x1="4.34144" y1="4.50564" x2="26.1947" y2="21.3109" gradientUnits="userSpaceOnUse">
<stop offset="0.0551248" stop-color="#605ED0"/>
<stop offset="0.544221" stop-color="#4CC9F0"/>
<stop offset="0.894485" stop-color="#7209B7"/>
</linearGradient>
<linearGradient id="paint5_linear_1194_123" x1="16.3752" y1="-1.4305" x2="39.3409" y2="16.4389" gradientUnits="userSpaceOnUse">
<stop offset="0.0551248" stop-color="#605ED0"/>
<stop offset="0.544221" stop-color="#4CC9F0"/>
<stop offset="0.894485" stop-color="#7209B7"/>
</linearGradient>
<linearGradient id="paint6_linear_1194_123" x1="17.6097" y1="5.14818" x2="16.5951" y2="7.00511" gradientUnits="userSpaceOnUse">
<stop offset="0.10065" stop-color="#7209B7"/>
<stop offset="0.595468" stop-color="#4CC9F0"/>
<stop offset="0.817738" stop-color="#605ED0"/>
</linearGradient>
<linearGradient id="paint7_linear_1194_123" x1="21.723" y1="6.6679" x2="20.7106" y2="8.52331" gradientUnits="userSpaceOnUse">
<stop offset="0.10065" stop-color="#7209B7"/>
<stop offset="0.595468" stop-color="#4CC9F0"/>
<stop offset="0.817738" stop-color="#605ED0"/>
</linearGradient>
<linearGradient id="paint8_linear_1194_123" x1="5.19875" y1="11.0031" x2="4.7793" y2="12.3323" gradientUnits="userSpaceOnUse">
<stop offset="0.10065" stop-color="#7209B7"/>
<stop offset="0.595468" stop-color="#4CC9F0"/>
<stop offset="0.817738" stop-color="#605ED0"/>
</linearGradient>
<linearGradient id="paint9_linear_1194_123" x1="9.58758" y1="10.9167" x2="9.16814" y2="12.2458" gradientUnits="userSpaceOnUse">
<stop offset="0.10065" stop-color="#7209B7"/>
<stop offset="0.595468" stop-color="#4CC9F0"/>
<stop offset="0.817738" stop-color="#605ED0"/>
</linearGradient>
<linearGradient id="paint10_linear_1194_123" x1="8.24861" y1="15.7925" x2="-2.38662" y2="22.7537" gradientUnits="userSpaceOnUse">
<stop offset="0.10065" stop-color="#7209B7"/>
<stop offset="0.595468" stop-color="#4CC9F0"/>
<stop offset="0.817738" stop-color="#605ED0"/>
</linearGradient>
<linearGradient id="paint11_linear_1194_123" x1="7.94146" y1="19.2679" x2="3.12047" y2="24.2407" gradientUnits="userSpaceOnUse">
<stop offset="0.10065" stop-color="#7209B7"/>
<stop offset="0.595468" stop-color="#4CC9F0"/>
<stop offset="0.817738" stop-color="#605ED0"/>
</linearGradient>
<linearGradient id="paint12_linear_1194_123" x1="16.0726" y1="5.49829" x2="-6.20623" y2="24.5978" gradientUnits="userSpaceOnUse">
<stop offset="0.10065" stop-color="#7209B7"/>
<stop offset="0.595468" stop-color="#4CC9F0"/>
<stop offset="0.817738" stop-color="#605ED0"/>
</linearGradient>
<clipPath id="clip0_1194_123">
<rect width="40" height="34" fill="white"/>
</clipPath>
</defs>
</svg>
