<svg width="34" height="34" viewBox="0 0 34 34" fill="none" xmlns="http://www.w3.org/2000/svg">
<g clip-path="url(#clip0_1108_693)">
<path d="M6.86676 10.7438L3.02466 27.1523L12.3629 29.4298L16.205 13.0213L6.86676 10.7438Z" fill="white"/>
<path d="M20.7505 7.1624L11.3212 21.019L19.2071 26.6084L28.6364 12.7519L20.7505 7.1624Z" fill="white"/>
<path d="M32.8793 6.61203L31.3629 5.54935L27.7169 4.79507L27.3769 2.59858L24.9119 0.980713L22.177 1.20192L18.335 6.20084L13.8015 25.5979L14.4199 28.2581L17.0409 30.1605L19.4706 29.9436L33.3995 8.98635L32.8793 6.61203ZM19.0515 26.8419L15.6515 24.462L19.9793 6.93387L28.6706 12.5526L19.0515 26.8419Z" fill="url(#paint0_linear_1108_693)"/>
<path d="M17.9325 5.60008L16.1381 5.18672L12.478 5.86597L11.3637 3.95488L8.48474 3.38538L6.02527 4.62545L0.643066 28.9217L2.14034 31.0258L5.04862 31.6682L7.11029 30.4502L8.64922 32.6879L11.7742 33.463L13.9519 32.3409L19.278 7.60832L17.9325 5.60008ZM12.4381 29.6205L3.03029 27.4608L6.83872 10.4658L16.1815 12.7096L12.4381 29.6205Z" fill="url(#paint1_linear_1108_693)"/>
<path d="M9.61434 16.8293L10.6802 18.9556L12.9587 18.7244L11.2867 20.3509L12.1125 22.6767L9.96072 21.414L8.20164 22.8094L8.82469 20.6832L7.06689 19.5537L9.01977 19.1881L9.61434 16.8293Z" fill="url(#paint2_linear_1108_693)"/>
<path d="M20.8807 13.9645L20.8782 16.3527L23.0091 17.208L20.794 17.8769L20.4889 20.3306L19.1386 18.2052L16.9495 18.6277L18.4544 17.0259L17.3953 15.202L19.2967 15.7862L20.8807 13.9645Z" fill="url(#paint3_linear_1108_693)"/>
<path d="M25.1545 6.40166L23.2722 5.07137C23.2123 5.02907 23.1449 4.99923 23.0737 4.98353C23.0026 4.96784 22.9291 4.9666 22.8574 4.97989C22.7858 4.99318 22.7174 5.02074 22.6563 5.061C22.5951 5.10125 22.5422 5.15341 22.5008 5.2145C22.4594 5.27559 22.4301 5.34441 22.4147 5.41704C22.3994 5.48966 22.3981 5.56467 22.4112 5.63777C22.4242 5.71087 22.4512 5.78064 22.4906 5.84309C22.5301 5.90555 22.5812 5.95946 22.641 6.00175L24.5234 7.33161C24.5832 7.37391 24.6506 7.40376 24.7217 7.41947C24.7929 7.43517 24.8663 7.43642 24.938 7.42315C25.0096 7.40988 25.0779 7.38235 25.1391 7.34212C25.2003 7.30189 25.2531 7.24976 25.2945 7.1887C25.336 7.12763 25.3652 7.05884 25.3806 6.98624C25.396 6.91364 25.3972 6.83866 25.3842 6.76558C25.3712 6.6925 25.3442 6.62274 25.3048 6.5603C25.2654 6.49786 25.2143 6.44396 25.1545 6.40166Z" fill="url(#paint4_linear_1108_693)"/>
<path d="M28.9217 9.06139L27.0394 7.73152C26.9795 7.68923 26.9121 7.65938 26.8409 7.64369C26.7698 7.62799 26.6963 7.62676 26.6246 7.64005C26.553 7.65334 26.4847 7.6809 26.4235 7.72115C26.3623 7.76141 26.3094 7.81357 26.268 7.87466C26.2266 7.93575 26.1973 8.00457 26.1819 8.0772C26.1666 8.14982 26.1654 8.22482 26.1784 8.29793C26.1914 8.37103 26.2184 8.4408 26.2578 8.50325C26.2973 8.5657 26.3484 8.61961 26.4083 8.66191L28.2906 9.99177C28.4121 10.0751 28.5607 10.1068 28.7047 10.08C28.8488 10.0533 28.9769 9.97029 29.062 9.84863C29.1036 9.78763 29.1331 9.71881 29.1486 9.64615C29.1641 9.57348 29.1654 9.4984 29.1524 9.42522C29.1393 9.35205 29.1122 9.28223 29.0727 9.21979C29.0331 9.15734 28.9818 9.10351 28.9217 9.06139Z" fill="url(#paint5_linear_1108_693)"/>
<path d="M11.1116 8.4537L8.88295 7.9202C8.81209 7.90311 8.73864 7.90043 8.66677 7.91231C8.5949 7.9242 8.52603 7.95041 8.46409 7.98946C8.40215 8.02851 8.34836 8.07963 8.30577 8.1399C8.26319 8.20016 8.23265 8.2684 8.21591 8.34071C8.19917 8.41302 8.19654 8.48799 8.20819 8.56134C8.21983 8.63468 8.24552 8.70497 8.28378 8.76819C8.32204 8.8314 8.37213 8.8863 8.43118 8.92976C8.49023 8.97322 8.55709 9.00439 8.62795 9.02147L10.8592 9.55542C11.0023 9.58993 11.1531 9.56499 11.2782 9.48608C11.4033 9.40718 11.4926 9.28078 11.5264 9.13468C11.5603 8.98859 11.5358 8.83476 11.4585 8.70706C11.3812 8.57935 11.2573 8.48821 11.1142 8.4537H11.1116Z" fill="url(#paint6_linear_1108_693)"/>
<path d="M15.5699 9.52157L13.3408 8.98763C13.2699 8.97055 13.1964 8.96787 13.1245 8.97977C13.0526 8.99166 12.9838 9.0179 12.9218 9.05696C12.7967 9.13587 12.7074 9.26227 12.6735 9.40837C12.6568 9.48071 12.6542 9.5557 12.6658 9.62908C12.6775 9.70245 12.7032 9.77276 12.7415 9.83599C12.8188 9.9637 12.9426 10.0548 13.0858 10.0893L15.3149 10.6233C15.3567 10.6331 15.3995 10.6381 15.4424 10.638C15.5811 10.643 15.7165 10.5944 15.8218 10.5021C15.927 10.4098 15.9944 10.2805 16.0104 10.1398C16.0265 9.99911 15.9901 9.85742 15.9085 9.74288C15.8269 9.62834 15.706 9.54933 15.5699 9.52157Z" fill="url(#paint7_linear_1108_693)"/>
<path d="M16.4394 12.2022L9.19019 10.4672L7.22202 11.1581L15.6464 13.1768L12.0067 29.0028L3.58274 26.9855L7.22202 11.1568L9.19019 10.4659L6.93769 9.92629C6.86667 9.90903 6.793 9.90624 6.72092 9.9181C6.64883 9.92996 6.57975 9.95623 6.51764 9.9954C6.45553 10.0346 6.40161 10.0859 6.35897 10.1464C6.31633 10.2069 6.28581 10.2753 6.26917 10.3479L2.37659 27.2778C2.34318 27.4239 2.36791 27.5776 2.44535 27.7051C2.5228 27.8326 2.64663 27.9235 2.78969 27.958L12.2931 30.2338C12.4362 30.2677 12.5867 30.2426 12.7117 30.164C12.7737 30.1249 12.8275 30.0737 12.8701 30.0134C12.9126 29.953 12.943 29.8846 12.9595 29.8122L16.8517 12.8823C16.8686 12.81 16.8713 12.735 16.8597 12.6616C16.8481 12.5882 16.8224 12.5179 16.7841 12.4547C16.7458 12.3915 16.6956 12.3367 16.6365 12.2933C16.5773 12.25 16.5103 12.219 16.4394 12.2022Z" fill="url(#paint8_linear_1108_693)"/>
<path d="M13.5953 18.5851C13.5502 18.4748 13.472 18.3819 13.3718 18.3199C13.2717 18.258 13.1548 18.2301 13.0381 18.2403L10.9641 18.4181L10.1566 16.4598C10.1122 16.3486 10.0341 16.2549 9.93382 16.1922C9.83353 16.1294 9.71625 16.101 9.59904 16.111C9.48183 16.1211 9.37081 16.169 9.28214 16.2479C9.19347 16.3267 9.13178 16.4324 9.10604 16.5495L8.63046 18.6176L6.55646 18.7955C6.43916 18.8043 6.32767 18.8511 6.23823 18.9291C6.14879 19.007 6.08607 19.1121 6.05918 19.2289C6.0323 19.3458 6.04266 19.4684 6.08876 19.5788C6.13486 19.6893 6.21429 19.7818 6.31549 19.843L8.09666 20.9434L7.62109 23.0115C7.59345 23.1278 7.60282 23.2502 7.64786 23.3607C7.69289 23.4713 7.77124 23.5644 7.87155 23.6265C7.97187 23.6885 8.08895 23.7164 8.20583 23.7061C8.32271 23.6957 8.43333 23.6476 8.52166 23.5688L10.0971 22.1809L11.8792 23.283C11.9792 23.3463 12.0963 23.3753 12.2136 23.3658C12.3309 23.3564 12.4421 23.309 12.5312 23.2306C12.6203 23.1521 12.6825 23.0467 12.7087 22.9297C12.735 22.8126 12.724 22.6901 12.6773 22.5799L11.8698 20.6215L13.4457 19.2336C13.5349 19.1557 13.5975 19.0509 13.6244 18.9343C13.6513 18.8177 13.6411 18.6954 13.5953 18.5851ZM10.6926 20.6805L10.9943 21.4127L10.3288 21.0011C9.86806 20.7165 9.40566 21.2978 9.09031 21.5754L9.26796 20.8024C9.29494 20.6861 9.28503 20.5641 9.23966 20.454C9.19428 20.3438 9.11579 20.2512 9.01551 20.1895L8.35166 19.777L9.12686 19.7107C9.66491 19.6647 9.70274 18.9161 9.79751 18.5036L10.0993 19.2353C10.3088 19.7445 11.0164 19.5489 11.4316 19.5133C11.1108 19.7953 10.4767 20.1574 10.6926 20.6805Z" fill="url(#paint9_linear_1108_693)"/>
<path d="M33.7612 8.29536C33.5324 8.13293 33.3688 7.89167 33.3004 7.61595C33.232 7.34022 33.2634 7.04856 33.3889 6.7946C33.4502 6.67274 33.4659 6.5323 33.4331 6.39948C33.4003 6.26666 33.3213 6.15056 33.2108 6.07285L30.3752 4.06981C30.265 3.99155 30.1305 3.95698 29.9971 3.97254C29.8636 3.98811 29.7403 4.05276 29.6502 4.15439C29.4618 4.36394 29.2054 4.4968 28.9285 4.52841C28.6516 4.56002 28.3728 4.48825 28.1437 4.32636C27.9146 4.16447 27.7506 3.92341 27.6822 3.64774C27.6137 3.37206 27.6454 3.08041 27.7713 2.8267C27.8325 2.70479 27.8481 2.56431 27.8153 2.43149C27.7824 2.29867 27.7033 2.18259 27.5928 2.10494L24.7567 0.100172C24.6466 0.023073 24.5129 -0.0109053 24.3802 0.00447139C24.2475 0.0198481 24.1246 0.0835483 24.0342 0.183885C23.9259 0.30433 23.7942 0.400489 23.6475 0.466269C23.5008 0.532049 23.3423 0.566015 23.1821 0.566015C22.9479 0.566175 22.7194 0.493056 22.5272 0.356516C22.4674 0.313973 22.4 0.283918 22.3288 0.268083C22.2576 0.252248 22.184 0.250946 22.1123 0.26425C22.0406 0.277554 21.9722 0.305203 21.911 0.345603C21.8498 0.386004 21.7971 0.438358 21.7558 0.499651L18.5492 5.22444C18.4964 5.18968 18.4382 5.16431 18.3771 5.1494L15.0196 4.34567C14.8891 4.3138 14.7518 4.33143 14.6332 4.39528C14.5145 4.45912 14.4227 4.56482 14.3748 4.69267C14.2747 4.95811 14.0839 5.17759 13.8375 5.31054C13.5912 5.4435 13.306 5.48094 13.0347 5.41593C12.7634 5.35093 12.5243 5.18788 12.3617 4.95694C12.1991 4.72599 12.1238 4.44275 12.15 4.1596C12.1631 4.02333 12.1273 3.88683 12.0491 3.77557C11.9708 3.66431 11.8556 3.58589 11.725 3.55495L8.36745 2.75079C8.23705 2.71958 8.1 2.73751 7.98153 2.80127C7.86305 2.86504 7.77115 2.97034 7.72273 3.09779C7.62029 3.36146 7.4291 3.57922 7.18351 3.71198C6.93791 3.84474 6.65398 3.8838 6.3827 3.82214C6.31161 3.80501 6.23789 3.80244 6.16582 3.81458C6.09374 3.82672 6.02474 3.85332 5.96281 3.89285C5.90087 3.93238 5.84723 3.98406 5.805 4.04488C5.76276 4.10571 5.73276 4.17448 5.71673 4.24721C5.71673 4.24721 4.8867 7.85728 4.88585 7.86031L0.0149276 29.0462C-0.00196619 29.1185 -0.00466785 29.1936 0.0069782 29.267C0.0186242 29.3404 0.0443879 29.4108 0.0827852 29.474C0.121183 29.5372 0.171455 29.592 0.230707 29.6353C0.289959 29.6786 0.35702 29.7095 0.428028 29.7263C0.69931 29.7919 0.938243 29.9553 1.10083 30.1864C1.26342 30.4175 1.33873 30.7008 1.31288 30.9841C1.29952 31.1208 1.33526 31.2577 1.41344 31.3694C1.49163 31.4811 1.60693 31.56 1.73788 31.5914L5.09538 32.3951C5.2258 32.427 5.36313 32.4094 5.48176 32.3455C5.60039 32.2817 5.69221 32.176 5.7401 32.0481C6.2076 30.802 8.08993 31.2578 7.9654 32.5812C7.95223 32.7175 7.9881 32.854 8.0663 32.9652C8.1445 33.0765 8.25971 33.1549 8.3904 33.1858L11.7479 33.99C11.8783 34.0203 12.0149 34.0019 12.1332 33.9383C12.2514 33.8746 12.3435 33.7699 12.3926 33.643C12.4766 33.4213 12.6241 33.2306 12.8159 33.0958C13.0078 32.961 13.235 32.8884 13.4679 32.8874C13.7123 32.8874 13.9226 32.9937 14.1517 32.8488C14.2136 32.8098 14.2673 32.7586 14.3097 32.6983C14.3522 32.638 14.3825 32.5698 14.3991 32.4975L15.1284 29.3268L16.6919 30.4316C16.8028 30.5079 16.9367 30.5414 17.0696 30.526C17.2024 30.5107 17.3256 30.4475 17.417 30.3478C17.5254 30.2275 17.6571 30.1314 17.8038 30.0657C17.9504 30 18.1089 29.9661 18.2691 29.9661C18.5033 29.966 18.7318 30.0391 18.924 30.1756C19.045 30.261 19.1942 30.2938 19.3388 30.2668C19.4835 30.2399 19.6117 30.1555 19.6954 30.0321L33.9015 9.08261C33.9431 9.0216 33.9726 8.95279 33.9881 8.88012C34.0036 8.80745 34.0049 8.73237 33.9919 8.65919C33.9788 8.58602 33.9517 8.5162 33.9121 8.45376C33.8726 8.39132 33.8213 8.33748 33.7612 8.29536ZM15.0693 24.6194L14.2337 28.2533L13.4296 31.7497C13.0627 31.7573 12.7031 31.8552 12.3813 32.0353C12.0596 32.2153 11.7852 32.4721 11.5817 32.7838L9.0602 32.18C9.00317 31.7119 8.807 31.2729 8.4981 30.922C8.1892 30.5712 7.7824 30.3253 7.33245 30.2175C6.8825 30.1098 6.411 30.1453 5.9814 30.3192C5.55181 30.4932 5.18475 30.7973 4.92963 31.1906L2.40895 30.5868C2.36229 30.2156 2.22845 29.8613 2.01882 29.5542C1.80919 29.2471 1.52998 28.9961 1.20493 28.8228L5.83743 8.66838L6.37718 8.7985C6.41898 8.80848 6.46175 8.81357 6.50468 8.81368C6.6438 8.81931 6.77988 8.77112 6.88568 8.67875C6.99149 8.58638 7.05922 8.45665 7.07533 8.31551C7.09144 8.17437 7.05475 8.03222 6.97258 7.9175C6.89042 7.80278 6.76884 7.72396 6.63218 7.69679L6.09285 7.56667L6.68573 4.98848C7.05237 4.98061 7.41172 4.88249 7.73323 4.70246C8.05474 4.52243 8.32888 4.26581 8.53235 3.95443L11.0543 4.55821C11.1114 5.02617 11.3076 5.46505 11.6165 5.8158C11.9254 6.16654 12.3321 6.41233 12.7819 6.52009C13.2318 6.62785 13.7032 6.59242 14.1327 6.41855C14.5622 6.24468 14.9293 5.94073 15.1845 5.54758L17.7056 6.14962C17.7175 6.204 17.7264 6.25903 17.7323 6.31444C17.7659 6.48351 17.8179 6.64821 17.8875 6.80544C18.0977 7.28085 18.4576 7.67091 18.91 7.91366L18.315 10.4927L17.7753 10.3626C17.6321 10.3284 17.4815 10.3536 17.3566 10.4327C17.2316 10.5118 17.1426 10.6383 17.1091 10.7844C17.0755 10.9305 17.1002 11.0842 17.1777 11.2117C17.2553 11.3392 17.3792 11.4301 17.5224 11.4643L18.0617 11.5944L17.182 15.4318L17.0855 15.8508L16.4382 18.6662C16.4382 18.6662 15.0693 24.6189 15.0693 24.6194ZM31.2363 11.0236L30.7803 10.7013C30.7204 10.6591 30.653 10.6293 30.5818 10.6136C30.5107 10.5979 30.4372 10.5967 30.3656 10.61C30.294 10.6233 30.2256 10.6509 30.1645 10.6912C30.1033 10.7314 30.0505 10.7836 30.0091 10.8447C29.9677 10.9058 29.9385 10.9746 29.9231 11.0472C29.9078 11.1198 29.9066 11.1948 29.9196 11.2679C29.9327 11.341 29.9597 11.4107 29.9991 11.4732C30.0386 11.5356 30.0897 11.5895 30.1496 11.6317L30.6052 11.9536L19.0592 28.9737C18.8063 28.877 18.5383 28.8277 18.2683 28.828C17.8036 28.8282 17.3501 28.9739 16.969 29.2453L15.3995 28.1362L15.9626 25.6864L18.4145 27.4188C18.5357 27.5029 18.6846 27.535 18.8288 27.5082C18.9731 27.4815 19.1013 27.3979 19.1858 27.2756L27.6042 14.8649L26.693 14.2208L18.5896 26.1661L16.2351 24.5023L17.3158 19.8013L19.2628 19.1052L20.5242 20.7946C20.5944 20.891 20.6931 20.9619 20.8056 20.997C20.9182 21.0322 21.0388 21.0298 21.1499 20.9901C21.261 20.9504 21.3568 20.8755 21.4232 20.7763C21.4897 20.6772 21.5235 20.559 21.5195 20.4389L21.4719 18.3136L23.4363 17.6113C23.5476 17.5728 23.644 17.4989 23.7115 17.4006C23.7789 17.3022 23.8138 17.1844 23.8111 17.0644C23.8084 16.9444 23.7682 16.8284 23.6964 16.7333C23.6247 16.6382 23.525 16.569 23.412 16.5357L21.4188 15.9254L21.3712 13.8C21.3698 13.6799 21.3309 13.5633 21.2601 13.4673C21.1892 13.3713 21.0902 13.3009 20.9775 13.2664C20.8647 13.2319 20.744 13.235 20.6331 13.2754C20.5222 13.3157 20.4269 13.3912 20.361 13.4908L19.1765 15.2409L18.4174 15.0084L19.8446 8.80154L20.5433 7.77183L27.6574 12.7985L26.693 14.2208L27.6042 14.8649L28.8848 12.9776C28.9665 12.8536 28.9976 12.702 28.9714 12.5549C28.9452 12.4079 28.8638 12.2771 28.7445 12.1904L20.7192 6.5196C20.598 6.43538 20.4491 6.40319 20.3048 6.42997C20.1605 6.45675 20.0323 6.54035 19.9479 6.66274L19.7065 7.01711L19.6869 7.01104C19.4128 6.94474 19.1718 6.77845 19.0095 6.54346C19.0082 6.54183 19.007 6.54009 19.0061 6.53826L20.2811 4.6584L20.7367 4.98068C20.8582 5.06401 21.0068 5.09568 21.1508 5.06895C21.2949 5.04222 21.423 4.9592 21.508 4.83754C21.5497 4.77654 21.5792 4.70772 21.5947 4.63505C21.6102 4.56238 21.6115 4.4873 21.5984 4.41413C21.5854 4.34095 21.5583 4.27114 21.5187 4.20869C21.4791 4.14625 21.4278 4.09242 21.3678 4.05029L20.9122 3.72802L22.3891 1.55192C22.6421 1.64867 22.9102 1.69804 23.1804 1.69766C23.645 1.69741 24.0983 1.55177 24.4792 1.28039L26.6085 2.78462C26.4936 3.24153 26.5187 3.72336 26.6802 4.1653C26.8418 4.60724 27.1321 4.98807 27.5121 5.25656C27.8921 5.52505 28.3436 5.66831 28.8058 5.66706C29.2679 5.66582 29.7187 5.52013 30.0973 5.2496L32.2265 6.75426C32.1368 7.11715 32.1342 7.49679 32.219 7.86093C32.3037 8.22506 32.4734 8.56291 32.7136 8.84578L31.2363 11.0236ZM20.3724 18.7243L19.9007 18.0924C19.8291 17.9981 19.7304 17.9291 19.6185 17.8948C19.5065 17.8606 19.3869 17.863 19.2764 17.9015L18.5424 18.1644C18.7842 17.8078 19.3074 17.299 18.9704 16.8466L18.499 16.2151L19.2441 16.4433C19.7638 16.602 20.0635 15.9228 20.3019 15.5706C20.3019 15.5706 20.3197 16.3635 20.3197 16.3643C20.3321 16.916 21.0609 16.9993 21.4596 17.1212L20.7256 17.3836C20.6149 17.4229 20.5193 17.497 20.4526 17.5953C20.3859 17.6936 20.3516 17.811 20.3546 17.9306L20.3724 18.7243Z" fill="url(#paint10_linear_1108_693)"/>
</g>
<defs>
<linearGradient id="paint0_linear_1108_693" x1="22" y1="-2" x2="38.6774" y2="27.5356" gradientUnits="userSpaceOnUse">
<stop offset="0.0767767" stop-color="#605ED0"/>
<stop offset="0.5875" stop-color="#4CC9F0"/>
<stop offset="0.858333" stop-color="#7209B7"/>
</linearGradient>
<linearGradient id="paint1_linear_1108_693" x1="6" y1="1" x2="31.3298" y2="24.4012" gradientUnits="userSpaceOnUse">
<stop offset="0.0551248" stop-color="#605ED0"/>
<stop offset="0.544221" stop-color="#4CC9F0"/>
<stop offset="0.894485" stop-color="#7209B7"/>
</linearGradient>
<linearGradient id="paint2_linear_1108_693" x1="6" y1="-6.74437e-07" x2="22.4031" y2="33.8044" gradientUnits="userSpaceOnUse">
<stop offset="0.0546065" stop-color="#605ED0"/>
<stop offset="0.538925" stop-color="#4CC9F0"/>
<stop offset="0.899584" stop-color="#7209B7"/>
</linearGradient>
<linearGradient id="paint3_linear_1108_693" x1="23" y1="-1" x2="27.2596" y2="30.8314" gradientUnits="userSpaceOnUse">
<stop offset="0.191666" stop-color="#605ED0"/>
<stop offset="0.5875" stop-color="#4CC9F0"/>
<stop offset="0.858333" stop-color="#7209B7"/>
</linearGradient>
<linearGradient id="paint4_linear_1108_693" x1="24.1616" y1="5.36884" x2="22.5828" y2="7.41518" gradientUnits="userSpaceOnUse">
<stop offset="0.10065" stop-color="#7209B7"/>
<stop offset="0.595468" stop-color="#4CC9F0"/>
<stop offset="0.817738" stop-color="#605ED0"/>
</linearGradient>
<linearGradient id="paint5_linear_1108_693" x1="27.9293" y1="8.0285" x2="26.3532" y2="10.0746" gradientUnits="userSpaceOnUse">
<stop offset="0.10065" stop-color="#7209B7"/>
<stop offset="0.595468" stop-color="#4CC9F0"/>
<stop offset="0.817738" stop-color="#605ED0"/>
</linearGradient>
<linearGradient id="paint6_linear_1108_693" x1="10.1659" y1="8.17439" x2="9.31855" y2="9.9871" gradientUnits="userSpaceOnUse">
<stop offset="0.10065" stop-color="#7209B7"/>
<stop offset="0.595468" stop-color="#4CC9F0"/>
<stop offset="0.817738" stop-color="#605ED0"/>
</linearGradient>
<linearGradient id="paint7_linear_1108_693" x1="14.6324" y1="9.24189" x2="13.7873" y2="11.0578" gradientUnits="userSpaceOnUse">
<stop offset="0.10065" stop-color="#7209B7"/>
<stop offset="0.595468" stop-color="#4CC9F0"/>
<stop offset="0.817738" stop-color="#605ED0"/>
</linearGradient>
<linearGradient id="paint8_linear_1108_693" x1="10.8941" y1="13.2" x2="-2.10265" y2="23.0878" gradientUnits="userSpaceOnUse">
<stop offset="0.10065" stop-color="#7209B7"/>
<stop offset="0.595468" stop-color="#4CC9F0"/>
<stop offset="0.817738" stop-color="#605ED0"/>
</linearGradient>
<linearGradient id="paint9_linear_1108_693" x1="10.5118" y1="17.338" x2="5.48334" y2="22.6989" gradientUnits="userSpaceOnUse">
<stop offset="0.10065" stop-color="#7209B7"/>
<stop offset="0.595468" stop-color="#4CC9F0"/>
<stop offset="0.817738" stop-color="#605ED0"/>
</linearGradient>
<linearGradient id="paint10_linear_1108_693" x1="20" y1="5.5" x2="-2.5" y2="29.5" gradientUnits="userSpaceOnUse">
<stop offset="0.10065" stop-color="#7209B7"/>
<stop offset="0.595468" stop-color="#4CC9F0"/>
<stop offset="0.817738" stop-color="#605ED0"/>
</linearGradient>
<clipPath id="clip0_1108_693">
<rect width="34" height="34" fill="white"/>
</clipPath>
</defs>
</svg>
