<svg width="59" height="59" viewBox="0 0 59 59" fill="none" xmlns="http://www.w3.org/2000/svg">
<g filter="url(#filter0_d_3483_399)">
<path fill-rule="evenodd" clip-rule="evenodd" d="M36.0574 19.951C35.9124 19.951 35.7638 19.8945 35.654 19.7847L33.0876 17.2181C32.8646 16.995 32.8646 16.6305 33.0876 16.4075C33.3106 16.1844 33.6753 16.1844 33.8982 16.4075L36.4645 18.974C36.6876 19.1971 36.6876 19.5616 36.4645 19.7847C36.3478 19.8945 36.2026 19.951 36.0574 19.951ZM41.1831 25.0771C41.0381 25.0771 40.8893 25.0206 40.7796 24.9108L38.2133 22.3442C37.9902 22.1211 37.9902 21.7565 38.2133 21.5336C38.4363 21.3105 38.8008 21.3105 39.0238 21.5336L41.5902 24.1002C41.8132 24.3231 41.8132 24.6877 41.5902 24.9108C41.477 25.024 41.3318 25.0771 41.1831 25.0771ZM11.4557 45.624L13.4239 45.8469C13.5619 45.8612 13.6894 45.9284 13.7815 46.0275L15.116 47.4896L15.9336 45.6876C15.9903 45.5603 16.0929 45.4611 16.2204 45.401L18.0221 44.5831L16.5602 43.2486C16.4575 43.153 16.3938 43.0291 16.3761 42.8875L16.1566 40.9191L14.4363 41.8963C14.3159 41.9635 14.1743 41.9882 14.0363 41.96L12.0965 41.5634L12.4929 43.5034C12.5212 43.638 12.5 43.7796 12.4292 43.9035L11.4557 45.624ZM15.2823 49.0897C15.123 49.0897 14.9673 49.0225 14.8611 48.9021L13.084 46.9586L10.4682 46.6648C10.2771 46.6435 10.1071 46.5268 10.0221 46.3568C9.93358 46.1868 9.93718 45.9815 10.0327 45.8151L11.3318 43.5247L10.8044 40.9439C10.7654 40.7564 10.8221 40.5617 10.9601 40.4235C11.0947 40.289 11.293 40.2288 11.4806 40.2678L14.0611 40.7952L16.3513 39.496C16.5176 39.4005 16.723 39.3969 16.8929 39.4854C17.0629 39.5704 17.1797 39.7402 17.2009 39.9315L17.4947 42.5476L19.438 44.3247C19.5796 44.4558 19.6469 44.6469 19.6186 44.838C19.5902 45.0293 19.4663 45.1886 19.2894 45.27L16.8929 46.3603L15.8026 48.757C15.7248 48.9304 15.5619 49.0543 15.3708 49.0861C15.3425 49.0897 15.3141 49.0897 15.2823 49.0897ZM18.4645 37.942L21.8274 38.3207C21.9655 38.3349 22.0929 38.4022 22.185 38.5012L24.4681 40.997L25.8664 37.9171C25.9231 37.7897 26.0257 37.6906 26.1531 37.6339L29.2328 36.2355L26.7336 33.9558C26.631 33.8602 26.5673 33.7363 26.5496 33.5947L26.1708 30.2351L23.2292 31.9061C23.1089 31.9733 22.9673 31.9981 22.8292 31.9697L19.516 31.29L20.1956 34.6036C20.2239 34.7382 20.2027 34.8798 20.1319 35.0037L18.4645 37.942ZM24.631 42.6007C24.4717 42.6007 24.3159 42.5335 24.2097 42.413L21.4876 39.4359L17.477 38.9827C17.2859 38.9614 17.116 38.8447 17.0309 38.6748C16.946 38.5048 16.946 38.2994 17.0416 38.1331L19.0345 34.6248L18.2239 30.6705C18.185 30.4829 18.2451 30.2882 18.3796 30.1501C18.5142 30.0156 18.7123 29.9554 18.9 29.9944L22.8539 30.8051L26.3619 28.812C26.5283 28.7164 26.7336 28.7128 26.9036 28.8013C27.0735 28.8898 27.1902 29.0563 27.2115 29.2474L27.661 33.2584L30.6381 35.9807C30.7797 36.1116 30.8469 36.3029 30.8185 36.494C30.7903 36.6852 30.6664 36.848 30.4894 36.9259L26.8151 38.5933L25.1478 42.268C25.0699 42.4414 24.907 42.5653 24.7159 42.5972C24.6876 42.5972 24.6592 42.6007 24.631 42.6007ZM29.1513 27.9305L31.1194 28.15C31.2575 28.1641 31.3849 28.2314 31.4806 28.334L32.8151 29.7961L33.6327 27.9943C33.6894 27.8668 33.792 27.7676 33.9194 27.7075L35.7212 26.8896L34.2593 25.5551C34.1566 25.4595 34.0928 25.3356 34.0787 25.1976L33.8593 23.2292L32.1389 24.2064C32.0186 24.2736 31.877 24.2983 31.7389 24.27L29.7992 23.8735L30.1956 25.8135C30.2239 25.9481 30.2026 26.0897 30.1318 26.2136C30.1318 26.2065 29.1513 27.9305 29.1513 27.9305ZM32.9778 31.3962C32.8185 31.3962 32.6628 31.329 32.5566 31.2086L30.7797 29.2651L28.1636 28.9713C27.9726 28.9501 27.8026 28.8333 27.7177 28.6633C27.6327 28.4933 27.6327 28.288 27.7284 28.1216L29.0274 25.8312L28.4999 23.2505C28.4611 23.0629 28.5176 22.8682 28.6558 22.73C28.7903 22.5956 28.9885 22.5353 29.1761 22.5743L31.7566 23.1017L34.0469 21.8025C34.2133 21.707 34.4186 21.7034 34.5884 21.7919C34.7584 21.8804 34.8752 22.0469 34.8965 22.238L35.1902 24.8541L37.1336 26.6313C37.2752 26.7623 37.3424 26.9534 37.3141 27.1446C37.2859 27.3358 37.162 27.4951 36.985 27.5765L34.5884 28.6669L33.4983 31.0635C33.4203 31.2369 33.2575 31.3608 33.0663 31.3928C33.0345 31.3962 33.0061 31.3962 32.9778 31.3962ZM7.60449 38.1401C7.45931 38.1401 7.31066 38.0836 7.19741 37.9738C6.97438 37.7507 6.97438 37.3861 7.19741 37.1632L25.3885 18.9704C25.6115 18.7474 25.9762 18.7474 26.199 18.9704C26.4221 19.1935 26.4221 19.5582 26.199 19.7812L8.01157 37.9702C7.89819 38.0836 7.75314 38.1401 7.60449 38.1401ZM20.4291 50.966C20.2841 50.966 20.1355 50.9093 20.0221 50.7996C19.7992 50.5766 19.7992 50.2119 20.0221 49.9889L38.2133 31.7963C38.4363 31.5732 38.8008 31.5732 39.0238 31.7963C39.2469 32.0194 39.2469 32.384 39.0238 32.6069L20.8362 50.796C20.723 50.9093 20.5779 50.966 20.4291 50.966ZM35.0309 12.7081C34.8858 12.7081 34.7372 12.6514 34.6274 12.5417C34.4044 12.3186 34.4044 11.954 34.6274 11.7309L41.3247 5.03306C41.5478 4.81001 41.9124 4.81001 42.1354 5.03306C42.3583 5.25612 42.3583 5.62078 42.1354 5.84369L35.438 12.5381C35.3247 12.6514 35.1797 12.7081 35.0309 12.7081ZM36.6204 16.5314C36.4752 16.5314 36.3265 16.4747 36.2167 16.365C35.9938 16.142 35.9938 15.7773 36.2167 15.5542L45.1513 6.61906C45.3744 6.39601 45.7388 6.39601 45.9619 6.61906C46.1849 6.84212 46.1849 7.20664 45.9619 7.42969L37.0274 16.365C36.9142 16.4783 36.769 16.5314 36.6204 16.5314ZM41.3247 17.2464C41.1797 17.2464 41.0309 17.1897 40.9212 17.0801C40.6982 16.857 40.6982 16.4924 40.9212 16.2693L45.8663 11.3238C46.0894 11.1008 46.454 11.1008 46.6769 11.3238C46.8999 11.5469 46.8999 11.9115 46.6769 12.1346L41.7318 17.0765C41.6186 17.1897 41.4699 17.2464 41.3247 17.2464ZM42.0363 21.9477C41.8911 21.9477 41.7424 21.891 41.6327 21.7814C41.4098 21.5583 41.4098 21.1937 41.6327 20.9706L50.5672 12.0354C50.7903 11.8124 51.1548 11.8124 51.3778 12.0354C51.6008 12.2585 51.6008 12.623 51.3778 12.8461L42.4434 21.7814C42.3301 21.891 42.1813 21.9477 42.0363 21.9477ZM45.8593 23.5372C45.7141 23.5372 45.5655 23.4806 45.4557 23.3708C45.2328 23.1478 45.2328 22.7831 45.4557 22.5602L52.1531 15.8622C52.376 15.6393 52.7406 15.6393 52.9637 15.8622C53.1867 16.0853 53.1867 16.4499 52.9637 16.673L46.2664 23.3708C46.1531 23.4806 46.0079 23.5372 45.8593 23.5372ZM20.146 56C19.9939 56 19.8487 55.9398 19.7389 55.8336C19.1902 55.2849 18.4575 54.984 17.6753 54.984C16.8929 54.984 16.1602 55.2885 15.6115 55.8336C15.3956 56.0496 15.0168 56.0496 14.8008 55.8336L2.16728 43.199C1.94424 42.976 1.94424 42.6113 2.16728 42.3883C2.71595 41.8396 3.01683 41.1068 3.01683 40.3244C3.01683 39.5421 2.71235 38.8093 2.16728 38.2606C2.06108 38.1544 2.00093 38.0056 2.00093 37.8569C2.00093 37.7047 2.06108 37.5596 2.16728 37.4534L25.5407 14.078C25.654 13.9648 25.8062 13.9081 25.9619 13.9117C26.1177 13.9151 26.2664 13.9859 26.3726 14.1028C26.4114 14.1453 26.4504 14.1878 26.4894 14.2267C27.0805 14.8179 27.8628 15.1401 28.6946 15.1401C29.5265 15.1401 30.3124 14.8144 30.9 14.2267C31.4876 13.6391 31.8133 12.8531 31.8133 12.0212C31.8133 11.1858 31.4876 10.4034 30.9 9.81581C30.8611 9.77681 30.8185 9.73781 30.7761 9.69896C30.6592 9.59621 30.592 9.4441 30.585 9.28825C30.5814 9.13254 30.6415 8.98029 30.7513 8.86703L38.4504 1.16729C38.6664 0.951289 39.0451 0.951289 39.261 1.16729C39.8097 1.71601 40.5425 2.01692 41.3247 2.01692C42.1071 2.01692 42.8398 1.71241 43.3885 1.16729C43.6115 0.944236 43.9761 0.944236 44.199 1.16729L56.8327 13.8019C56.9389 13.9081 56.9991 14.0567 56.9991 14.209C56.9991 14.3613 56.9389 14.5065 56.8327 14.6161C56.284 15.1648 55.9832 15.8976 55.9832 16.68C55.9832 17.4624 56.2875 18.1952 56.8327 18.7439C57.0558 18.967 57.0558 19.3315 56.8327 19.5546L49.1407 27.2437C48.9247 27.4597 48.546 27.4597 48.3301 27.2437C47.7424 26.6525 46.9566 26.3304 46.1248 26.3304C45.2893 26.3304 44.5071 26.6561 43.9194 27.2437C42.7018 28.4615 42.7018 30.4404 43.9194 31.6583C44.1425 31.8812 44.1425 32.2459 43.9194 32.4689L20.5496 55.8336C20.4434 55.9398 20.2982 56 20.146 56Z" fill="white"/>
</g>
<defs>
<filter id="filter0_d_3483_399" x="0" y="0" width="59" height="59" filterUnits="userSpaceOnUse" color-interpolation-filters="sRGB">
<feFlood flood-opacity="0" result="BackgroundImageFix"/>
<feColorMatrix in="SourceAlpha" type="matrix" values="0 0 0 0 0 0 0 0 0 0 0 0 0 0 0 0 0 0 127 0" result="hardAlpha"/>
<feOffset dy="1"/>
<feGaussianBlur stdDeviation="1"/>
<feComposite in2="hardAlpha" operator="out"/>
<feColorMatrix type="matrix" values="0 0 0 0 0 0 0 0 0 0 0 0 0 0 0 0 0 0 0.9 0"/>
<feBlend mode="normal" in2="BackgroundImageFix" result="effect1_dropShadow_3483_399"/>
<feBlend mode="normal" in="SourceGraphic" in2="effect1_dropShadow_3483_399" result="shape"/>
</filter>
</defs>
</svg>
